<svg width="87" height="86" viewBox="0 0 87 86" fill="none" xmlns="http://www.w3.org/2000/svg">
<path d="M64.315 27.1774C64.1892 27.1774 64.0646 27.1526 63.9484 27.1044C63.8321 27.0563 63.7265 26.9857 63.6375 26.8967C63.5486 26.8078 63.478 26.7022 63.4298 26.5859C63.3817 26.4697 63.3569 26.3451 63.3569 26.2193V16.1027C63.3569 14.9932 62.4543 14.0906 61.3448 14.0906H56.2345C55.125 14.0906 54.2224 14.9932 54.2224 16.1027V26.2193C54.2224 26.7484 53.7935 27.1774 53.2643 27.1774C52.735 27.1774 52.3062 26.7484 52.3062 26.2193V16.1027C52.3062 13.9367 54.0684 12.1745 56.2344 12.1745H61.3447C63.5107 12.1745 65.2729 13.9367 65.2729 16.1027V26.2193C65.273 26.3451 65.2482 26.4697 65.2001 26.5859C65.152 26.7022 65.0814 26.8078 64.9925 26.8968C64.9035 26.9857 64.7979 27.0563 64.6817 27.1045C64.5654 27.1526 64.4408 27.1774 64.315 27.1774Z" fill="#E9A52D"/>
<path d="M61.3449 11H56.2345C53.421 11 51.132 13.2891 51.132 16.1028V17.64C51.132 18.8159 52.0888 19.7725 53.2646 19.7725C54.4405 19.7725 55.3971 18.8159 55.3971 17.64V16.1028C55.3971 15.6409 55.7728 15.265 56.2346 15.265H61.345C61.5671 15.2652 61.7801 15.3536 61.9371 15.5106C62.0942 15.6677 62.1825 15.8806 62.1828 16.1028V17.64C62.1828 18.8159 63.1394 19.7725 64.3153 19.7725C65.4911 19.7725 66.4479 18.8159 66.4479 17.64V16.1028C66.4476 13.2891 64.1585 11 61.3449 11ZM66.5526 74.9053C65.6318 74.9053 64.8853 74.1588 64.8853 73.2379V70.5615H68.2199V73.2379C68.22 74.1588 67.4735 74.9053 66.5526 74.9053ZM51.0268 74.9053C50.1059 74.9053 49.3594 74.1588 49.3594 73.2379V70.5615H52.694V73.2379C52.6941 74.1588 51.9476 74.9053 51.0268 74.9053Z" fill="#095763"/>
<path d="M70.9258 26.2193H46.6539C44.9376 26.2193 43.5464 27.6105 43.5464 29.3268V67.454C43.5464 69.1703 44.9376 70.5615 46.6539 70.5615H70.9258C72.642 70.5615 74.0333 69.1703 74.0333 67.454V29.3268C74.0333 27.6105 72.642 26.2193 70.9258 26.2193Z" fill="#095763"/>
<path d="M70.9256 26.2193H67.8761C69.5923 26.2193 70.9836 27.6105 70.9836 29.3268V67.454C70.9836 69.1703 69.5924 70.5615 67.8761 70.5615H70.9256C72.6418 70.5615 74.0331 69.1703 74.0331 67.454V29.3268C74.0331 27.6105 72.6419 26.2193 70.9256 26.2193ZM50.0206 65.2559C49.7665 65.2559 49.5228 65.1549 49.3431 64.9753C49.1634 64.7956 49.0625 64.5519 49.0625 64.2978V30.6358C49.0625 30.1066 49.4914 29.6776 50.0206 29.6776C50.5499 29.6776 50.9788 30.1066 50.9788 30.6358V64.2978C50.9787 64.5519 50.8778 64.7955 50.6981 64.9752C50.5184 65.1549 50.2747 65.2558 50.0206 65.2559ZM55.8666 65.2559C55.7408 65.2559 55.6162 65.2311 55.5 65.1829C55.3837 65.1348 55.2781 65.0642 55.1891 64.9753C55.1002 64.8863 55.0296 64.7807 54.9814 64.6644C54.9333 64.5482 54.9085 64.4236 54.9085 64.2978V30.6358C54.9085 30.1066 55.3374 29.6776 55.8666 29.6776C56.3959 29.6776 56.8248 30.1066 56.8248 30.6358V64.2978C56.8248 64.5519 56.7238 64.7956 56.5441 64.9753C56.3644 65.1549 56.1207 65.2559 55.8666 65.2559ZM61.7129 65.2559C61.4588 65.2559 61.2151 65.1549 61.0354 64.9753C60.8557 64.7956 60.7548 64.5519 60.7548 64.2978V30.6358C60.7548 30.1066 61.1836 29.6776 61.7129 29.6776C62.2421 29.6776 62.671 30.1066 62.671 30.6358V64.2978C62.671 64.5519 62.57 64.7955 62.3903 64.9752C62.2107 65.1549 61.967 65.2558 61.7129 65.2559Z" fill="#DFFE8E"/>
<path d="M67.5587 65.2559C67.3046 65.2559 67.0609 65.1549 66.8812 64.9753C66.7015 64.7956 66.6006 64.5519 66.6006 64.2978V30.6358C66.6006 30.1066 67.0295 29.6776 67.5587 29.6776C68.088 29.6776 68.5168 30.1066 68.5168 30.6358V64.2978C68.5168 64.4236 68.4921 64.5482 68.4439 64.6644C68.3958 64.7807 68.3252 64.8863 68.2362 64.9753C68.1472 65.0642 68.0416 65.1348 67.9254 65.1829C67.8091 65.2311 67.6845 65.2559 67.5587 65.2559Z" fill="#095763"/>
<path d="M35.4778 39.8114C35.2237 39.8114 34.98 39.7104 34.8003 39.5308C34.6206 39.3511 34.5197 39.1074 34.5197 38.8533V36.3045C34.5197 34.9716 33.4353 33.8873 32.1025 33.8873C30.7695 33.8873 29.6853 34.9716 29.6853 36.3045V38.8533C29.6853 39.3824 29.2564 39.8114 28.7272 39.8114C28.1979 39.8114 27.769 39.3824 27.769 38.8533V36.3045C27.769 33.915 29.713 31.9711 32.1025 31.9711C34.4919 31.9711 36.4359 33.915 36.4359 36.3045V38.8533C36.4359 39.1074 36.335 39.3511 36.1553 39.5308C35.9756 39.7104 35.7319 39.8114 35.4778 39.8114Z" fill="#095763"/>
<path d="M17.5488 72.2816V41.5716C17.5488 40.0703 18.766 38.8533 20.2672 38.8533H43.938C45.4393 38.8533 46.6563 40.0704 46.6563 41.5716V72.2815C46.6563 73.7829 45.4392 74.9999 43.938 74.9999H20.2672C18.7658 75 17.5488 73.7829 17.5488 72.2816Z" fill="#095763"/>
<path d="M43.9376 38.8533H40.9976C42.4989 38.8533 43.7159 40.0704 43.7159 41.5716V72.2815C43.7159 73.7829 42.4988 74.9999 40.9976 74.9999H43.9376C45.4389 74.9999 46.6559 73.7828 46.6559 72.2815V41.5716C46.6561 40.0703 45.4389 38.8533 43.9376 38.8533Z" fill="#095763"/>
<path d="M17.5488 47.2523V41.5716C17.5488 40.0703 18.766 38.8533 20.2672 38.8533H43.938C45.4393 38.8533 46.6563 40.0704 46.6563 41.5716V47.2523C46.6563 48.7536 45.4392 49.9706 43.938 49.9706H20.2672C18.7658 49.9708 17.5488 48.7536 17.5488 47.2523Z" fill="#DFFE8E"/>
<path d="M43.9376 38.8533H40.9976C42.4989 38.8533 43.7159 40.0704 43.7159 41.5716V47.2523C43.7159 48.7536 42.4988 49.9706 40.9976 49.9706H43.9376C45.4389 49.9706 46.6559 48.7535 46.6559 47.2523V41.5716C46.6561 40.0703 45.4389 38.8533 43.9376 38.8533Z" fill="#DFFE8E"/>
<path d="M22.8101 61.2576V68.2783C22.8101 69.0289 23.4186 69.6375 24.1693 69.6375H40.0353C40.7859 69.6375 41.3946 69.029 41.3946 68.2783V61.2576C41.3946 60.507 40.7861 59.8984 40.0353 59.8984H24.1693C23.4187 59.8984 22.8101 60.5069 22.8101 61.2576Z" fill="#095763"/>
<path d="M48.5192 60.0638H46.6563V71.0961H48.5192C50.0205 71.0961 51.2375 69.879 51.2375 68.3778V62.7822C51.2375 61.2809 50.0205 60.0638 48.5192 60.0638ZM17.5487 60.0638H15.6857C14.1843 60.0638 12.9673 61.2809 12.9673 62.7821V68.3776C12.9673 69.879 14.1844 71.096 15.6857 71.096H17.5485L17.5487 60.0638Z" fill="#E9A52D"/>
<path d="M38.3912 38.8533H41.6716V52.9029H38.3912V38.8533ZM22.5337 38.8533H25.8141V52.9029H22.5337V38.8533Z" fill="#E9A52D"/>
<path d="M42.463 55.5424H37.5994C37.3791 55.5424 37.1679 55.4549 37.0122 55.2992C36.8565 55.1434 36.769 54.9322 36.769 54.712V53.7331C36.769 53.5129 36.8565 53.3017 37.0122 53.146C37.1679 52.9902 37.3791 52.9028 37.5994 52.9028H42.463C42.6832 52.9028 42.8944 52.9902 43.0502 53.146C43.2059 53.3017 43.2934 53.5129 43.2934 53.7331V54.712C43.2934 54.9322 43.2059 55.1434 43.0502 55.2992C42.8944 55.4549 42.6832 55.5424 42.463 55.5424ZM26.6055 55.5424H21.742C21.5218 55.5424 21.3106 55.4549 21.1548 55.2992C20.9991 55.1434 20.9116 54.9322 20.9116 54.712V53.7331C20.9116 53.5129 20.9991 53.3017 21.1548 53.146C21.3106 52.9902 21.5218 52.9028 21.742 52.9028H26.6056C26.8259 52.9028 27.0371 52.9902 27.1928 53.146C27.3485 53.3017 27.436 53.5129 27.436 53.7331V54.712C27.436 54.9322 27.3485 55.1435 27.1927 55.2992C27.037 55.4549 26.8257 55.5424 26.6055 55.5424Z" fill="#F8E837"/>
</svg>
