<svg width="87" height="88" viewBox="0 0 87 88" fill="none" xmlns="http://www.w3.org/2000/svg">
<g clip-path="url(#clip0_228_982)">
<path d="M23.2501 48.5001L9.75 81.5001L20.25 78.4999L24.75 87.5L38.25 56.0001L23.2501 48.5001ZM56.25 47L41.2501 56.0001L54.7501 87.5L59.2501 78.4999L69.7501 81.5001L56.25 47Z" fill="#DE4C3C"/>
<path d="M23.2503 48.5001L18.2852 60.635L18.5402 60.71L21.7502 70.6699L31.9802 68.48L32.6402 69.08L38.2501 56.0001L23.2503 48.5001ZM41.2503 56.0001L46.8602 69.08L47.5202 68.48L57.7502 70.6699L60.9602 60.71L61.5452 60.53L56.2501 47L41.2503 56.0001Z" fill="#C74436"/>
<path d="M39.75 0.5L47.52 7.51998L57.75 5.31508L60.96 15.29L70.92 18.5L68.73 28.73L75.75 36.5L68.73 44.27L70.92 54.5L60.96 57.71L57.75 67.67L47.52 65.48L39.75 72.5L31.98 65.48L21.75 67.67L18.54 57.71L8.56508 54.5L10.77 44.27L3.75 36.5L10.77 28.73L8.56508 18.5L18.54 15.29L21.75 5.31508L31.98 7.51998L39.75 0.5Z" fill="#FDB62F"/>
<path d="M75.75 36.5L68.7301 28.73L70.92 18.5L63.1651 15.995C54.7501 39.2299 34.7552 52.37 19.0801 59.375L21.7501 67.6699L31.98 65.48L39.7501 72.5L47.5201 65.48L57.75 67.6699L60.96 57.71L70.92 54.5L68.7301 44.27L75.75 36.5Z" fill="#FFA83D"/>
<path d="M30.7499 33.5C27.4365 33.5 24.75 30.8135 24.75 27.5001C24.75 24.1866 27.4365 21.5001 30.7499 21.5001C34.0634 21.5001 36.7499 24.1866 36.7499 27.5001C36.7499 30.8135 34.0634 33.5 30.7499 33.5ZM30.7499 24.4999C29.0925 24.4999 27.75 25.8425 27.75 27.4999C27.75 29.1573 29.0925 30.4999 30.7499 30.4999C32.4074 30.4999 33.7499 29.1573 33.7499 27.4999C33.7499 25.8425 32.4074 24.4999 30.7499 24.4999ZM50.2498 53.0001C46.9364 53.0001 44.2499 50.3136 44.2499 47.0001C44.2499 43.6867 46.9364 41.0002 50.2498 41.0002C53.5633 41.0002 56.2498 43.6867 56.2498 47.0001C56.2498 50.3134 53.5633 53.0001 50.2498 53.0001ZM50.2498 44C48.5924 44 47.2499 45.3425 47.2499 47C47.2499 48.6574 48.5924 49.9999 50.2498 49.9999C51.9073 49.9999 53.2498 48.6574 53.2498 47C53.2498 45.3425 51.9074 44 50.2498 44Z" fill="white"/>
<path d="M51.3052 27.0629L30.3046 48.0642L28.1833 45.943L49.1838 24.9417L51.3052 27.0629Z" fill="white"/>
</g>
<defs>
<clipPath id="clip0_228_982">
<rect width="87" height="87" fill="white" transform="translate(0 0.5)"/>
</clipPath>
</defs>
</svg>
