<svg width="68" height="68" viewBox="0 0 68 68" fill="none" xmlns="http://www.w3.org/2000/svg">
<g opacity="0.2" clip-path="url(#clip0_228_735)">
<path d="M60.094 39.8547L51.5201 5.85809C51.455 5.59989 51.3357 5.35852 51.17 5.15005C51.0044 4.94158 50.7962 4.77079 50.5594 4.64907L48.1672 3.41963C39.2963 -1.13988 28.704 -1.13988 19.8331 3.41963L17.4412 4.64893C17.2044 4.77063 16.9961 4.9414 16.8304 5.14987C16.6647 5.35834 16.5454 5.59973 16.4802 5.85795L7.9065 39.8549C7.78248 40.3478 7.81499 40.867 7.99951 41.3406C8.18403 41.8142 8.51141 42.2185 8.93621 42.4976L13.133 45.252V54.3897C13.133 61.0632 17.9007 66.7609 24.4698 67.9373L24.6352 67.9669C25.2373 68.075 25.8566 67.9162 26.3332 67.5313C26.5685 67.3413 26.7602 67.1029 26.8953 66.8323C27.0303 66.5617 27.1056 66.2652 27.1159 65.9629L27.6951 49.1768C28.611 49.6071 29.5918 49.9412 30.6052 50.1681L30.9358 56.0194C31.0232 57.5635 32.3032 58.7732 33.8497 58.7732C35.3966 58.7732 36.6766 57.5635 36.7637 56.0194L36.7998 55.3795C36.8149 55.1145 36.724 54.8545 36.5472 54.6565C36.3705 54.4585 36.1223 54.3389 35.8574 54.3239C35.7261 54.3162 35.5947 54.3346 35.4705 54.3778C35.3464 54.4211 35.232 54.4884 35.1339 54.576C35.0359 54.6635 34.956 54.7696 34.899 54.8881C34.8421 55.0065 34.809 55.1351 34.8018 55.2664L34.7656 55.9064C34.7383 56.3917 34.3359 56.7718 33.8499 56.7718C33.3638 56.7718 32.9616 56.3916 32.9341 55.9062L32.5607 49.2978L32.5605 49.296L31.867 37.0245C31.8595 36.8998 31.8777 36.7749 31.9206 36.6576C31.9634 36.5402 32.03 36.433 32.1161 36.3426C32.2016 36.2514 32.3048 36.1789 32.4195 36.1295C32.5343 36.0801 32.6579 36.0548 32.7828 36.0553H34.9168C35.1716 36.0553 35.4084 36.1574 35.5835 36.3426C35.6696 36.433 35.7362 36.5402 35.7791 36.6575C35.8219 36.7748 35.8402 36.8997 35.8326 37.0243L35.1392 49.2945L35.1391 49.2977L35.0428 51.0018C35.0278 51.2668 35.1187 51.5268 35.2955 51.7248C35.4722 51.9227 35.7204 52.0424 35.9853 52.0574C36.5363 52.0868 37.0097 51.6665 37.0408 51.1148L37.0943 50.1678C38.2197 49.9161 39.3007 49.5325 40.3003 49.0322L40.8845 65.9625C40.8949 66.2648 40.9701 66.5613 41.1052 66.8319C41.2402 67.1025 41.432 67.3409 41.6673 67.5309C41.9025 67.7211 42.1759 67.8584 42.4689 67.9336C42.7618 68.0087 43.0676 68.02 43.3653 67.9665L43.5307 67.9369C50.0996 66.7605 54.8675 61.0628 54.8675 54.3893V45.2516L59.0641 42.4973C59.489 42.2184 59.8164 41.814 60.001 41.3405C60.1855 40.8669 60.218 40.3476 60.094 39.8547ZM37.8308 37.1375C37.8356 37.0523 37.8358 36.9675 37.833 36.8828C38.5371 36.6514 39.2133 36.3427 39.8493 35.9623L40.0307 41.2159C39.265 41.6629 38.4227 42.0248 37.5394 42.2924L37.8308 37.1375ZM50.1271 8.51788L51.1776 12.6835H47.3157L50.1271 8.51788ZM46.1097 19.097C46.0546 19.097 46.0009 19.1026 45.9483 19.1111L45.3441 18.6035L45.6602 15.4934C45.6726 15.3719 45.672 15.2519 45.6622 15.134L45.9653 14.6848H51.6825L52.7952 19.0969H46.1097V19.097ZM47.3371 21.0983H53.2997L54.4124 25.5105H47.0189C47.3159 24.9737 47.4853 24.3607 47.4853 23.7155V22.1377C47.4851 21.786 47.4352 21.436 47.3371 21.0983ZM44.3128 30.0753L45.0219 27.5117H54.9173L56.03 31.9238H43.6002C43.8977 31.3325 44.1364 30.7133 44.3128 30.0753ZM42.4454 53.1653H52.8663V54.3895C52.8663 55.4908 52.7128 56.5602 52.4272 57.5775H42.5975L42.4454 53.1653ZM52.8663 51.1641H42.3763L42.224 46.7519H52.8663V51.1641ZM41.799 34.4334C41.9609 34.2694 42.1171 34.0999 42.2673 33.9251H56.5347L57.6474 38.3373H41.9337L41.799 34.4334ZM49.2569 6.22978L44.6042 13.1242L44.6032 13.1256L44.3634 13.481C43.66 13.1889 42.9448 12.9264 42.2195 12.6942L44.8239 4.09125C45.6501 4.42295 46.4605 4.79278 47.2525 5.19954L49.2569 6.22978ZM27.6998 12.1247L25.0619 3.41083C26.635 2.90189 28.2488 2.52843 29.8855 2.29453L30.167 5.63168C29.9095 5.98889 29.771 6.41808 29.7709 6.85844V7.83158C29.7713 8.31937 29.9401 8.79206 30.2488 9.16975L30.9996 10.0867C31.0158 10.1065 31.0247 10.1314 31.0246 10.157V11.5576C29.9057 11.6776 28.7952 11.867 27.6998 12.1247ZM33.0259 12.1864V10.1572C33.0255 9.66938 32.8567 9.19669 32.548 8.819L31.7973 7.90203C31.781 7.88221 31.7721 7.85735 31.7722 7.83172V6.85858C31.7722 6.79734 31.8219 6.74757 31.8832 6.74757H36.0833C36.1445 6.74757 36.1943 6.79734 36.1943 6.85858V7.83158C36.1943 7.85724 36.1854 7.8821 36.1691 7.90189L35.4183 8.819C35.1097 9.19669 34.9409 9.6693 34.9404 10.157V12.1863C34.9404 12.2157 34.9287 12.2439 34.9079 12.2648C34.8871 12.2856 34.8588 12.2973 34.8294 12.2973H33.1369C33.1223 12.2973 33.1079 12.2945 33.0944 12.2889C33.081 12.2833 33.0687 12.2752 33.0584 12.2649C33.0481 12.2546 33.0399 12.2424 33.0343 12.2289C33.0288 12.2154 33.0259 12.201 33.0259 12.1864ZM36.9417 10.1572C36.9417 10.1317 36.9506 10.1067 36.9669 10.0869L37.7174 9.17002C38.0262 8.79236 38.1951 8.31959 38.1955 7.83172V6.85858C38.1955 6.41924 38.0605 6.01098 37.83 5.67264L38.1149 2.29466C39.7517 2.52857 41.3655 2.90203 42.9386 3.41096L40.292 12.1535C39.1886 11.8884 38.0696 11.6928 36.9417 11.5679V10.1572ZM36.1246 2.08146L35.8998 4.74619H32.1006L31.8758 2.08146C33.2902 1.97807 34.7103 1.97807 36.1246 2.08146ZM20.7481 5.19954C21.5401 4.79278 22.3505 4.42295 23.1767 4.09125L25.7694 12.6557C25.0383 12.886 24.3173 13.1471 23.6083 13.4383L23.3972 13.1256C23.397 13.1252 23.3967 13.1248 23.3964 13.1245L18.7435 6.23005L20.7481 5.19954ZM29.8685 36.8255C29.863 36.9294 29.8631 37.0336 29.8689 37.1375L30.1602 42.2939C29.3872 42.0611 28.6524 41.7574 27.9641 41.382L28.1485 36.0378C28.6957 36.3539 29.2716 36.6177 29.8685 36.8255ZM15.1342 54.3895V53.1653H25.5551L25.4029 57.5775H15.5731C15.2817 56.5399 15.134 55.4673 15.1342 54.3895ZM15.1342 51.1641V46.7519H25.7764L25.6242 51.1641H15.1342ZM13.0833 27.5117H22.8451L23.5543 30.0753C23.7306 30.7133 23.9693 31.3325 24.2668 31.9238H11.9706L13.0833 27.5117ZM13.588 25.5105L14.7007 21.0983H20.53C20.4318 21.4361 20.382 21.7861 20.3819 22.1378V23.7156C20.3819 24.3608 20.5513 24.9737 20.8483 25.5106H13.588V25.5105ZM16.3181 14.6849H22.0353L22.2265 14.9682C22.1961 15.1416 22.1895 15.3184 22.207 15.4937L22.5231 18.6038L21.9332 19.0993C21.9191 19.0987 21.9052 19.0971 21.891 19.0971H15.2054L16.3181 14.6849ZM17.8734 8.51788L20.6847 12.6835H16.8229L17.8734 8.51788ZM10.0341 40.8244C9.95688 40.7737 9.89738 40.7002 9.86386 40.6141C9.83034 40.528 9.82446 40.4336 9.84704 40.344L9.84851 40.3384H15.5958C16.1486 40.3384 16.5964 39.8904 16.5964 39.3378C16.5964 38.7851 16.1486 38.3371 15.5958 38.3371H10.3531L11.4658 33.9249H25.5997C25.7893 34.1454 25.9886 34.3574 26.197 34.5602L26.0666 38.3371H19.86C19.3072 38.3371 18.8593 38.7851 18.8593 39.3378C18.8593 39.8904 19.3072 40.3384 19.86 40.3384H25.9975L25.8453 44.7505H15.1339V44.7115C15.134 44.5456 15.0927 44.3822 15.0138 44.2362C14.935 44.0901 14.8211 43.966 14.6823 43.875L10.0341 40.8244ZM25.0755 65.9745C25.0635 65.9845 25.0494 65.9917 25.0342 65.9956C25.0191 65.9995 25.0033 65.9999 24.9879 65.9969L24.8225 65.9673C21.0325 65.2885 17.9464 62.8474 16.3396 59.5786H25.3338L25.1159 65.8937C25.1157 65.9093 25.1119 65.9247 25.1049 65.9387C25.0979 65.9527 25.0878 65.9649 25.0755 65.9745ZM27.7714 46.9638L27.8883 43.5763C28.6585 43.9235 29.4588 44.1996 30.2792 44.4012L30.487 48.0772C29.5233 47.8141 28.6049 47.4385 27.7714 46.9638ZM34.9168 34.0542H32.7828C32.3858 34.0549 31.9931 34.1363 31.6284 34.2934C31.2638 34.4505 30.9349 34.68 30.6618 34.9681L30.6519 34.979C29.66 34.6521 28.7421 34.1332 27.9506 33.4518C27.903 33.4 27.8502 33.3533 27.7929 33.3124C26.7012 32.3194 25.8934 31.0248 25.4832 29.5417L24.5366 26.1196C24.4872 25.9411 24.3893 25.7798 24.2536 25.6537C24.118 25.5275 23.95 25.4415 23.7684 25.4052C22.9658 25.2447 22.3831 24.534 22.3831 23.7155V22.1377C22.3831 21.6274 22.6073 21.1464 22.998 20.8182L24.2157 19.7953C24.3141 19.7123 24.3955 19.611 24.4555 19.4971L24.4994 19.4786C28.1184 17.9523 32.1021 17.3246 36.0215 17.6625C36.5689 17.7105 37.0569 17.3023 37.1044 16.7517C37.1157 16.6208 37.1011 16.4889 37.0615 16.3636C37.0218 16.2383 36.9578 16.1221 36.8732 16.0215C36.7887 15.921 36.6851 15.8381 36.5684 15.7775C36.4518 15.717 36.3244 15.68 36.1935 15.6687C32.1984 15.3235 28.1399 15.9077 24.408 17.3575L24.2045 15.3557C26.5308 14.3812 28.9906 13.7625 31.5011 13.5205C31.8888 13.9949 32.478 14.2985 33.1369 14.2985H34.8294C35.4845 14.2985 36.071 13.9988 36.4587 13.5291C38.9372 13.7777 41.365 14.3933 43.6625 15.3557L43.4591 17.3578C42.533 16.9982 41.5874 16.691 40.6268 16.4377C40.4993 16.4032 40.3663 16.3942 40.2354 16.4112C40.1045 16.4283 39.9782 16.4711 39.8639 16.5372C39.7496 16.6032 39.6495 16.6913 39.5694 16.7962C39.4893 16.9012 39.4307 17.0209 39.3971 17.1486C39.3635 17.2763 39.3554 17.4094 39.3735 17.5402C39.3915 17.671 39.4353 17.7969 39.5022 17.9107C39.5691 18.0245 39.6579 18.1239 39.7635 18.2033C39.869 18.2826 39.9892 18.3403 40.1171 18.373C41.2253 18.6646 42.3115 19.0341 43.3677 19.4786L43.4117 19.4971C43.4717 19.611 43.5531 19.7123 43.6515 19.7953L44.8691 20.8182C45.0619 20.9798 45.2169 21.1817 45.3232 21.4096C45.4294 21.6376 45.4844 21.8862 45.4841 22.1377V23.7155C45.4841 24.534 44.9016 25.2447 44.0988 25.4052C43.9172 25.4415 43.7492 25.5275 43.6136 25.6537C43.4779 25.7798 43.38 25.9411 43.3306 26.1196L42.384 29.5417C41.6566 32.1713 39.6811 34.209 37.0847 35.0203C37.0691 35.0029 37.054 34.9852 37.0379 34.9681C36.7647 34.68 36.4358 34.4505 36.0712 34.2934C35.7066 34.1363 35.3138 34.0549 34.9168 34.0542ZM37.2125 48.0777L37.4202 44.4021C38.3463 44.1727 39.2467 43.8495 40.1074 43.4378L40.223 46.7893C39.3114 47.3476 38.2922 47.7836 37.2125 48.0777ZM43.178 65.9674L43.0125 65.997C42.9804 66.0027 42.9506 65.9953 42.925 65.9746C42.8994 65.954 42.8858 65.9267 42.8846 65.8938L42.6667 59.5788H51.6608C50.0541 62.8474 46.9679 65.2885 43.178 65.9674ZM57.9662 40.8246L53.3179 43.8753C53.1791 43.9663 53.0652 44.0904 52.9864 44.2365C52.9076 44.3825 52.8663 44.5458 52.8663 44.7118V44.7507H42.1549L42.0027 40.3387H58.152L58.1533 40.3441C58.1759 40.4337 58.17 40.5281 58.1365 40.6142C58.103 40.7003 58.0435 40.7738 57.9662 40.8246Z" fill="white"/>
</g>
<defs>
<clipPath id="clip0_228_735">
<rect width="68" height="68" fill="white"/>
</clipPath>
</defs>
</svg>
