<svg width="86" height="48" viewBox="0 0 86 48" fill="none" xmlns="http://www.w3.org/2000/svg">
<g opacity="0.2">
<path d="M84.9505 39.4812L81.1144 32.9399C81.0489 32.6631 80.9029 32.4141 80.6964 32.2271L70.3161 14.5269C70.1972 14.3243 70.0304 14.1569 69.8316 14.0407C69.6329 13.9246 69.4088 13.8636 69.1809 13.8636C68.953 13.8636 68.7289 13.9246 68.5302 14.0407C68.3314 14.1569 68.1646 14.3243 68.0457 14.5269L62.8615 23.3678L49.0894 0.645957C48.9723 0.45293 48.8114 0.293005 48.6208 0.180387C48.4302 0.0677697 48.2159 0.00594612 47.9968 0.00040798C47.7778 -0.00513016 47.5608 0.0457889 47.3652 0.148642C47.1696 0.251495 47.0014 0.403097 46.8756 0.589984L35.1092 18.0621L29.0324 8.91517C28.9132 8.73572 28.755 8.58814 28.5707 8.48442C28.3864 8.38071 28.1812 8.3238 27.9719 8.31833C27.7625 8.31286 27.5548 8.35898 27.3658 8.45293C27.1767 8.54689 27.0117 8.68603 26.884 8.85903L0.275934 44.9041C0.124436 45.1093 0.0311109 45.3546 0.00652841 45.6122C-0.0180541 45.8699 0.0270888 46.1295 0.136844 46.3618C0.246599 46.5941 0.41658 46.7897 0.627534 46.9265C0.838488 47.0632 1.08198 47.1357 1.33044 47.1357H51.8857C52.1285 47.1358 52.3667 47.0665 52.5744 46.9356C52.7822 46.8046 52.9515 46.6169 53.0642 46.3928C53.1769 46.1687 53.2286 45.9167 53.2137 45.6642C53.1988 45.4117 53.1178 45.1682 52.9796 44.9602L52.5828 44.363H73.1721C73.4101 44.363 73.6438 44.2965 73.8487 44.1704C74.0537 44.0442 74.2224 43.8631 74.3373 43.6459C74.4522 43.4287 74.509 43.1833 74.5019 42.9354C74.4949 42.6875 74.4241 42.4461 74.297 42.2364L73.9053 41.5903H83.8153C84.0517 41.5903 84.2837 41.5247 84.4876 41.4002C84.6916 41.2758 84.86 41.0969 84.9756 40.8821C85.0912 40.6674 85.1498 40.4243 85.1454 40.1781C85.141 39.9319 85.0737 39.6913 84.9505 39.4812ZM44.2026 9.38601L39.7107 24.9888L36.7234 20.4919L44.2026 9.38601ZM23.4093 18.1138L13.7208 44.363H4.03232L23.4093 18.1138ZM16.5715 44.363L17.5949 41.5903H19.9561C20.3089 41.5903 20.6473 41.4443 20.8968 41.1843C21.1463 40.9243 21.2865 40.5717 21.2865 40.204C21.2865 39.8363 21.1463 39.4837 20.8968 39.2237C20.6473 38.9637 20.3089 38.8176 19.9561 38.8176H18.6183L28.2769 12.6493L43.8201 36.045H42.5729C42.22 36.045 41.8816 36.191 41.6321 36.451C41.3826 36.711 41.2425 37.0636 41.2425 37.4313C41.2425 37.799 41.3826 38.1516 41.6321 38.4116C41.8816 38.6716 42.22 38.8176 42.5729 38.8176H45.2337C45.3653 38.8177 45.4963 38.7973 45.6222 38.7572L49.3465 44.363H16.5715ZM50.7407 41.5903L41.6488 27.9054L48.352 4.62183L53.9533 13.8634H53.2161C52.8632 13.8634 52.5249 14.0095 52.2754 14.2694C52.0259 14.5294 51.8857 14.8821 51.8857 15.2497C51.8857 15.6174 52.0259 15.97 52.2754 16.23C52.5249 16.49 52.8632 16.6361 53.2161 16.6361H55.6338L64.0362 30.4996H62.5289C62.1761 30.4996 61.8377 30.6456 61.5882 30.9056C61.3387 31.1656 61.1985 31.5182 61.1985 31.8859C61.1985 32.2536 61.3387 32.6062 61.5882 32.8662C61.8377 33.1262 62.1761 33.2723 62.5289 33.2723H65.1897C65.351 33.272 65.5109 33.241 65.6615 33.1809L70.7583 41.5903H50.7407ZM72.2242 38.8176L64.445 25.9827L69.1809 17.9084L72.4999 23.5678H71.8417C71.4889 23.5678 71.1505 23.7139 70.901 23.9739C70.6515 24.2339 70.5113 24.5865 70.5113 24.9542C70.5113 25.3219 70.6515 25.6745 70.901 25.9345C71.1505 26.1945 71.4889 26.3405 71.8417 26.3405H74.1258L77.378 31.8859H75.8329C75.4801 31.8859 75.1417 32.032 74.8922 32.292C74.6427 32.552 74.5025 32.9046 74.5025 33.2723C74.5025 33.6399 74.6427 33.9926 74.8922 34.2526C75.1417 34.5125 75.4801 34.6586 75.8329 34.6586H79.0041L81.443 38.8176H72.2242Z" fill="white"/>
<path d="M33.2601 41.5903C33.9948 41.5903 34.5905 40.9696 34.5905 40.204C34.5905 39.4383 33.9948 38.8176 33.2601 38.8176C32.5253 38.8176 31.9297 39.4383 31.9297 40.204C31.9297 40.9696 32.5253 41.5903 33.2601 41.5903Z" fill="white"/>
<path d="M29.2689 24.9541C30.0036 24.9541 30.5993 24.3334 30.5993 23.5677C30.5993 22.8021 30.0036 22.1814 29.2689 22.1814C28.5341 22.1814 27.9385 22.8021 27.9385 23.5677C27.9385 24.3334 28.5341 24.9541 29.2689 24.9541Z" fill="white"/>
<path d="M55.8768 38.8174C56.6115 38.8174 57.2072 38.1967 57.2072 37.431C57.2072 36.6654 56.6115 36.0447 55.8768 36.0447C55.142 36.0447 54.5464 36.6654 54.5464 37.431C54.5464 38.1967 55.142 38.8174 55.8768 38.8174Z" fill="white"/>
<path d="M49.2249 22.1814C49.9597 22.1814 50.5553 21.5607 50.5553 20.795C50.5553 20.0294 49.9597 19.4087 49.2249 19.4087C48.4902 19.4087 47.8945 20.0294 47.8945 20.795C47.8945 21.5607 48.4902 22.1814 49.2249 22.1814Z" fill="white"/>
<path d="M50.5551 27.7268H47.8943C47.5415 27.7268 47.2031 27.8729 46.9536 28.1329C46.7041 28.3928 46.5639 28.7455 46.5639 29.1132C46.5639 29.4808 46.7041 29.8335 46.9536 30.0935C47.2031 30.3534 47.5415 30.4995 47.8943 30.4995H50.5551C50.908 30.4995 51.2464 30.3534 51.4959 30.0935C51.7454 29.8335 51.8855 29.4808 51.8855 29.1132C51.8855 28.7455 51.7454 28.3928 51.4959 28.1329C51.2464 27.8729 50.908 27.7268 50.5551 27.7268ZM30.5991 30.4995H27.9383C27.5855 30.4995 27.2471 30.6456 26.9976 30.9056C26.7481 31.1655 26.6079 31.5182 26.6079 31.8858C26.6079 32.2535 26.7481 32.6062 26.9976 32.8661C27.2471 33.1261 27.5855 33.2722 27.9383 33.2722H30.5991C30.952 33.2722 31.2904 33.1261 31.5399 32.8661C31.7893 32.6062 31.9295 32.2535 31.9295 31.8858C31.9295 31.5182 31.7893 31.1655 31.5399 30.9056C31.2904 30.6456 30.952 30.4995 30.5991 30.4995Z" fill="white"/>
</g>
</svg>
