<svg width="62" height="62" viewBox="0 0 62 62" fill="none" xmlns="http://www.w3.org/2000/svg">
<g opacity="0.2">
<path d="M51.2594 27.0125H38.7979L42.6954 20.2618C43.8811 18.2077 44.5056 15.878 44.5063 13.5063C44.5063 6.0588 38.4475 0 31.0001 0C23.5527 0 17.4939 6.0588 17.4939 13.5062C17.4939 15.8776 18.1213 18.2152 19.308 20.2661C19.3249 20.2952 23.2027 27.0125 23.2027 27.0125H10.7407V34.7303H26.1764L22.3175 62H39.6826L35.8237 34.7303H51.2594V27.0125ZM36.013 16.4005L31.0001 25.083C31.0001 25.083 25.9872 16.4005 25.988 16.4005C25.4784 15.5211 25.2106 14.5226 25.2117 13.5063C25.2117 10.3094 27.8032 7.71791 31.0001 7.71791C34.1969 7.71791 36.7885 10.3094 36.7885 13.5063C36.7895 14.5225 36.5219 15.5209 36.013 16.4005Z" fill="white"/>
</g>
</svg>
