<svg width="174" height="51" viewBox="0 0 174 51" fill="none" xmlns="http://www.w3.org/2000/svg">
<g clip-path="url(#clip0_228_706)">
<path d="M42.1118 13.3924L38.8541 11.4085C38.8541 11.4085 40.9321 5.46574 40.751 4.64221C40.573 3.8197 39.6907 3.5 39.6907 3.5L36.1892 9.96276L32.5906 8.39867L32.5694 6.03836L31.4696 5.06106C31.4696 5.06106 31.1489 7.75522 30.6906 8.40777C30.2364 9.05931 28.4355 10.2804 28.4355 10.2804L29.3845 11.2416L31.8389 9.91926L34.8649 12.0145L31.1054 18.3032C31.1054 18.3032 31.8632 19.237 32.6088 18.8303C33.3534 18.4236 37.0016 13.7344 37.0016 13.7344C37.0016 13.7344 40.5436 15.7153 40.92 15.8013C41.2963 15.8893 42.2261 16.382 42.6975 15.255C43.169 14.129 42.4942 13.6251 42.1118 13.3924Z" fill="#3B3B3B"/>
<path d="M36.5006 19.8662C35.9636 19.2328 35.3777 18.6425 34.7483 18.1008L33.8388 19.0417C34.416 19.5348 34.9545 20.0716 35.4494 20.6473C34.4894 21.2646 33.4632 21.7723 32.39 22.1608C31.5483 19.6599 30.319 17.5798 28.8379 16.1675C29.3936 16.3513 29.9372 16.5695 30.4657 16.821L31.1618 15.7011C29.0254 14.6741 26.685 14.1419 24.3146 14.144H24.2772L24.2215 14.1461C19.3674 14.1744 15.0231 16.3961 12.1306 19.8662C11.8635 20.187 11.6106 20.5188 11.3698 20.8597C9.47038 23.5309 8.45116 26.7279 8.45411 30.0055C8.4515 33.2831 9.47068 36.48 11.3698 39.1513C11.6106 39.4923 11.8635 39.8251 12.1306 40.1438C15.0241 43.615 19.3674 45.8347 24.2215 45.863L24.2772 45.865H24.3146C29.2072 45.865 33.5889 43.6372 36.5006 40.1438C36.7676 39.8241 37.0206 39.4903 37.2614 39.1503C39.1598 36.4787 40.1786 33.282 40.1761 30.0045C40.1761 26.6001 39.0956 23.4457 37.2614 20.8587C37.0217 20.5175 36.7678 20.1863 36.5006 19.8662ZM19.679 16.2069C18.2211 17.6132 17.0101 19.669 16.1754 22.1365C15.1253 21.7525 14.1212 21.2527 13.1818 20.6463C14.9011 18.6006 17.1482 17.0652 19.679 16.2069ZM12.418 21.6418C13.4034 22.3004 14.5436 22.8761 15.8041 23.3506C15.2322 25.4773 14.9411 27.6697 14.9381 29.872H9.75921C9.78614 26.9218 10.7138 24.0502 12.418 21.6418ZM9.80676 31.1741H14.9624C15.0379 33.0288 15.3202 34.8694 15.8041 36.6615C14.6142 37.1008 13.4782 37.6741 12.418 38.3703C10.9176 36.2493 10.0157 33.7637 9.80676 31.1741ZM13.1858 39.3618C14.1238 38.7577 15.1258 38.2593 16.1734 37.8756C17.0091 40.3421 18.2201 42.3979 19.679 43.8032C17.1489 42.9448 14.903 41.4086 13.1858 39.3618ZM23.6651 44.5174C20.9952 44.1522 18.6905 41.4135 17.3834 37.4689C19.2672 36.9033 21.4009 36.5624 23.6651 36.5057V44.5174ZM23.6651 35.2057C21.2775 35.2644 19.0244 35.6336 17.0202 36.2477C16.5899 34.5877 16.3372 32.8865 16.2665 31.173H23.6651V35.2057ZM23.6651 29.871H16.2402C16.2444 27.8105 16.5082 25.7588 17.0253 23.7643C19.0274 24.3774 21.2785 24.7477 23.6651 24.8044V29.871ZM23.6651 23.5043C21.4019 23.4487 19.2682 23.1077 17.3854 22.5432C18.6936 18.6016 20.9952 15.8589 23.6651 15.4927V23.5043ZM24.9671 15.5028C27.6077 15.9105 29.882 18.6471 31.176 22.5634C29.3104 23.1158 27.204 23.4507 24.9671 23.5053V15.5028ZM24.9671 24.8054C27.3264 24.7487 29.5501 24.3875 31.5371 23.7866C32.0217 25.637 32.306 27.6948 32.3161 29.872H24.9671V24.8054ZM24.9671 31.1741H32.2898C32.219 32.8797 31.9688 34.5732 31.5432 36.2265C29.5552 35.6245 27.3264 35.2623 24.9671 35.2057V31.1741ZM24.9671 44.5083V36.5067C27.204 36.5624 29.3124 36.8962 31.18 37.4496C29.885 41.366 27.6077 44.0996 24.9671 44.5083ZM28.8359 43.8426C30.316 42.4303 31.5493 40.3522 32.391 37.8513C33.463 38.239 34.4882 38.7457 35.4474 39.3618C33.7024 41.4404 31.4131 42.992 28.8359 43.8426ZM36.2132 38.3703C35.2106 37.6985 34.0441 37.1138 32.7572 36.6342C33.2145 34.9507 33.5079 33.1125 33.5909 31.1741H38.8244C38.6155 33.7637 37.7136 36.2493 36.2132 38.3703ZM33.6182 29.871C33.6061 27.5532 33.2975 25.3568 32.7562 23.3758C34.0441 22.8963 35.2086 22.3115 36.2112 21.6418C37.9156 24.0497 38.8433 26.921 38.87 29.871H33.6182Z" fill="#3B3B3B"/>
<path d="M3.73307 29.6243C3.73307 18.0251 13.1692 8.58689 24.7704 8.58689C25.9713 8.58689 27.1419 8.70526 28.2861 8.90052L29.6175 8.08003L30.0566 6.62318C28.5532 6.31967 26.3639 5.9939 24.7704 5.9939C11.7397 5.9939 1.14007 16.5955 1.14007 29.6243C1.13328 30.9193 1.2083 32.2135 1.36467 33.4991C2.01317 38.6193 8.52652 47.499 13.6973 47.5C8.09857 43.4957 3.73307 37.1625 3.73307 29.6243Z" fill="#3B3B3B"/>
</g>
<path d="M64.0938 37.25C63.2188 37.25 62.5729 37.0677 62.1562 36.7031C61.7396 36.3385 61.5312 35.7552 61.5312 34.9531V15.1094C61.1979 15.1406 60.7812 15.2031 60.2812 15.2969C59.7917 15.3802 59.276 15.5052 58.7344 15.6719C58.1927 15.8385 57.651 16.0417 57.1094 16.2812C56.5677 16.5104 56.0833 16.7812 55.6562 17.0938C55.2292 17.3958 54.8802 17.7396 54.6094 18.125C54.3385 18.5104 54.2031 18.9375 54.2031 19.4062C54.2031 19.7396 54.2448 20.0052 54.3281 20.2031C54.4219 20.401 54.526 20.5521 54.6406 20.6562C54.7552 20.75 54.8698 20.8125 54.9844 20.8438C55.1094 20.8646 55.1979 20.875 55.25 20.875C55.5104 20.875 55.724 20.8333 55.8906 20.75C56.0573 20.6562 56.2083 20.5625 56.3438 20.4688C56.4792 20.3646 56.6042 20.2708 56.7188 20.1875C56.8438 20.0938 56.9844 20.0469 57.1406 20.0469C57.2656 20.0469 57.3958 20.0781 57.5312 20.1406C57.6771 20.1927 57.8073 20.2812 57.9219 20.4062C58.0469 20.5312 58.151 20.6979 58.2344 20.9062C58.3177 21.1042 58.3594 21.349 58.3594 21.6406C58.3594 22.0573 58.276 22.4167 58.1094 22.7188C57.9531 23.0208 57.7448 23.276 57.4844 23.4844C57.2344 23.6823 56.9427 23.8333 56.6094 23.9375C56.2865 24.0312 55.9635 24.0781 55.6406 24.0781C55.1406 24.0781 54.6875 23.9948 54.2812 23.8281C53.8854 23.651 53.5469 23.4115 53.2656 23.1094C52.9844 22.8073 52.7708 22.4531 52.625 22.0469C52.4792 21.6406 52.4062 21.2083 52.4062 20.75C52.4062 19.5312 52.7396 18.4792 53.4062 17.5938C54.0833 16.6979 55.0052 15.9583 56.1719 15.375C57.3385 14.7812 58.6979 14.3438 60.25 14.0625C61.8021 13.7812 63.4635 13.6406 65.2344 13.6406C66.0781 13.6406 66.901 13.651 67.7031 13.6719C68.5052 13.6823 69.2344 13.7031 69.8906 13.7344C70.5573 13.7656 71.1302 13.8021 71.6094 13.8438C72.0885 13.8854 72.4375 13.9323 72.6562 13.9844C72.8646 14.0365 73.0312 14.1146 73.1562 14.2188C73.2812 14.3125 73.375 14.4219 73.4375 14.5469C73.5 14.6719 73.5417 14.8073 73.5625 14.9531C73.5833 15.0885 73.5938 15.2292 73.5938 15.375C73.5938 15.4896 73.5781 15.625 73.5469 15.7812C73.5156 15.9271 73.4688 16.0677 73.4062 16.2031C73.3438 16.3385 73.2656 16.4531 73.1719 16.5469C73.0781 16.6406 72.9635 16.6875 72.8281 16.6875C72.7448 16.6875 72.6562 16.651 72.5625 16.5781C72.4792 16.5052 72.3594 16.4167 72.2031 16.3125C72.0469 16.2083 71.8333 16.0885 71.5625 15.9531C71.3021 15.8177 70.9531 15.6927 70.5156 15.5781C70.0885 15.4635 69.5573 15.3594 68.9219 15.2656C68.2969 15.1719 67.5365 15.1094 66.6406 15.0781V34.9531C66.6406 35.7552 66.4323 36.3385 66.0156 36.7031C65.599 37.0677 64.9583 37.25 64.0938 37.25ZM71.0156 29C71.0156 27.6354 71.2135 26.4427 71.6094 25.4219C72.0052 24.3906 72.5312 23.5312 73.1875 22.8438C73.8542 22.1562 74.625 21.6406 75.5 21.2969C76.375 20.9531 77.2917 20.7812 78.25 20.7812C79.2083 20.7812 80.125 20.9427 81 21.2656C81.875 21.5781 82.6406 22.0625 83.2969 22.7188C83.9635 23.375 84.4948 24.2083 84.8906 25.2188C85.2865 26.2188 85.4844 27.4062 85.4844 28.7812C85.4844 30.1458 85.2865 31.3542 84.8906 32.4062C84.4948 33.4583 83.9635 34.3438 83.2969 35.0625C82.6406 35.7812 81.875 36.3281 81 36.7031C80.125 37.0677 79.2083 37.25 78.25 37.25C77.2917 37.25 76.375 37.0781 75.5 36.7344C74.625 36.3802 73.8542 35.8594 73.1875 35.1719C72.5312 34.4844 72.0052 33.625 71.6094 32.5938C71.2135 31.5625 71.0156 30.3646 71.0156 29ZM80.625 28.8438C80.625 28.0104 80.5938 27.2083 80.5312 26.4375C80.4792 25.6562 80.3698 24.9635 80.2031 24.3594C80.0365 23.7552 79.7969 23.276 79.4844 22.9219C79.1719 22.5573 78.7604 22.375 78.25 22.375C77.7396 22.375 77.3281 22.5677 77.0156 22.9531C76.7031 23.3281 76.4635 23.8281 76.2969 24.4531C76.1302 25.0677 76.0208 25.7708 75.9688 26.5625C75.9167 27.3542 75.8906 28.1667 75.8906 29C75.8906 29.8333 75.9167 30.651 75.9688 31.4531C76.0208 32.2448 76.1302 32.9531 76.2969 33.5781C76.4635 34.2031 76.7031 34.7083 77.0156 35.0938C77.3281 35.4688 77.7396 35.6562 78.25 35.6562C78.7604 35.6562 79.1719 35.4583 79.4844 35.0625C79.7969 34.6667 80.0365 34.1458 80.2031 33.5C80.3698 32.8542 80.4792 32.125 80.5312 31.3125C80.5938 30.5 80.625 29.6771 80.625 28.8438ZM102.078 34.2812C102.078 34.375 102.083 34.4792 102.094 34.5938C102.104 34.6979 102.13 34.8021 102.172 34.9062C102.214 35 102.276 35.0781 102.359 35.1406C102.443 35.2031 102.562 35.2344 102.719 35.2344C102.917 35.2344 103.094 35.1667 103.25 35.0312C103.406 34.8854 103.552 34.7396 103.688 34.5938L104.062 34.9219C103.906 35.1406 103.708 35.3854 103.469 35.6562C103.24 35.9167 102.958 36.1667 102.625 36.4062C102.292 36.6458 101.911 36.8438 101.484 37C101.057 37.1667 100.573 37.25 100.031 37.25C99.5729 37.25 99.1719 37.1875 98.8281 37.0625C98.4948 36.9479 98.2083 36.7917 97.9688 36.5938C97.7396 36.3854 97.5677 36.1458 97.4531 35.875C97.3385 35.5938 97.2812 35.2969 97.2812 34.9844V34.2812C96.7604 34.8438 96.2135 35.3385 95.6406 35.7656C95.3906 35.9531 95.125 36.1354 94.8438 36.3125C94.5625 36.4896 94.2708 36.651 93.9688 36.7969C93.6667 36.9323 93.3542 37.0417 93.0312 37.125C92.7083 37.2083 92.3854 37.25 92.0625 37.25C91.4375 37.25 90.901 37.1406 90.4531 36.9219C90.0156 36.6927 89.6615 36.3958 89.3906 36.0312C89.1198 35.6667 88.9219 35.2552 88.7969 34.7969C88.6719 34.3385 88.6094 33.8802 88.6094 33.4219V23.75C88.6094 23.6562 88.6042 23.5573 88.5938 23.4531C88.5833 23.3385 88.5573 23.2344 88.5156 23.1406C88.474 23.0365 88.4115 22.9531 88.3281 22.8906C88.2448 22.8281 88.125 22.7969 87.9688 22.7969C87.7812 22.7969 87.6042 22.8698 87.4375 23.0156C87.2812 23.151 87.1406 23.2917 87.0156 23.4375L86.625 23.1094C86.7812 22.8906 86.974 22.651 87.2031 22.3906C87.4427 22.1198 87.7292 21.8646 88.0625 21.625C88.3958 21.3854 88.776 21.1875 89.2031 21.0312C89.6406 20.8646 90.125 20.7812 90.6562 20.7812C91.1146 20.7812 91.5156 20.8438 91.8594 20.9688C92.2031 21.0833 92.4896 21.2448 92.7188 21.4531C92.9479 21.651 93.1198 21.8906 93.2344 22.1719C93.349 22.4427 93.4062 22.7344 93.4062 23.0469V33.4844C93.4062 33.6302 93.4271 33.7812 93.4688 33.9375C93.5208 34.0833 93.5885 34.2188 93.6719 34.3438C93.7656 34.4688 93.8802 34.5729 94.0156 34.6562C94.151 34.7292 94.3125 34.7656 94.5 34.7656C94.8021 34.7656 95.1042 34.6875 95.4062 34.5312C95.7083 34.375 95.9844 34.1927 96.2344 33.9844C96.4844 33.7656 96.6979 33.5521 96.875 33.3438C97.0625 33.1354 97.1979 32.9792 97.2812 32.875V23.75C97.2812 23.6562 97.276 23.5573 97.2656 23.4531C97.2552 23.3385 97.2292 23.2344 97.1875 23.1406C97.1458 23.0365 97.0833 22.9531 97 22.8906C96.9167 22.8281 96.7969 22.7969 96.6406 22.7969C96.4531 22.7969 96.276 22.8698 96.1094 23.0156C95.9531 23.151 95.8125 23.2917 95.6875 23.4375L95.2969 23.1094C95.4531 22.8906 95.6458 22.651 95.875 22.3906C96.1146 22.1198 96.401 21.8646 96.7344 21.625C97.0677 21.3854 97.4479 21.1875 97.875 21.0312C98.3125 20.8646 98.7969 20.7812 99.3281 20.7812C99.7865 20.7812 100.188 20.8438 100.531 20.9688C100.875 21.0833 101.161 21.2448 101.391 21.4531C101.62 21.651 101.792 21.8906 101.906 22.1719C102.021 22.4427 102.078 22.7344 102.078 23.0469V34.2812ZM111.188 24.0781C111.583 23.474 112.005 22.9271 112.453 22.4375C112.641 22.2292 112.844 22.026 113.062 21.8281C113.281 21.6302 113.505 21.4531 113.734 21.2969C113.974 21.1406 114.219 21.0156 114.469 20.9219C114.719 20.8281 114.969 20.7812 115.219 20.7812C115.75 20.7812 116.167 20.9427 116.469 21.2656C116.771 21.5781 116.922 22.0208 116.922 22.5938C116.922 22.9479 116.891 23.2917 116.828 23.625C116.776 23.9479 116.667 24.3438 116.5 24.8125H116.062C116 24.4896 115.854 24.224 115.625 24.0156C115.396 23.7969 115.062 23.6875 114.625 23.6875C114.302 23.6875 113.984 23.75 113.672 23.875C113.359 23.9896 113.052 24.1354 112.75 24.3125C112.458 24.4896 112.177 24.6823 111.906 24.8906C111.646 25.099 111.406 25.2969 111.188 25.4844V35.625C111.188 35.7604 111.167 35.9219 111.125 36.1094C111.083 36.2969 110.979 36.474 110.812 36.6406C110.656 36.8073 110.417 36.9479 110.094 37.0625C109.781 37.1875 109.349 37.25 108.797 37.25C108.245 37.25 107.807 37.1823 107.484 37.0469C107.172 36.9219 106.932 36.7708 106.766 36.5938C106.599 36.4167 106.495 36.2344 106.453 36.0469C106.411 35.8594 106.391 35.7083 106.391 35.5938V23.5312C106.391 23.2292 106.318 22.9688 106.172 22.75C106.036 22.5208 105.802 22.4062 105.469 22.4062C105.292 22.4062 105.141 22.4375 105.016 22.5C104.891 22.5625 104.755 22.651 104.609 22.7656L104.281 22.375C104.521 22.1771 104.786 21.9844 105.078 21.7969C105.38 21.599 105.703 21.4271 106.047 21.2812C106.391 21.1354 106.76 21.0156 107.156 20.9219C107.552 20.8281 107.969 20.7812 108.406 20.7812C108.854 20.7812 109.234 20.8438 109.547 20.9688C109.87 21.0833 110.13 21.2396 110.328 21.4375C110.536 21.625 110.698 21.8385 110.812 22.0781C110.927 22.3177 111.01 22.5625 111.062 22.8125C111.125 23.0521 111.161 23.2865 111.172 23.5156C111.182 23.7344 111.188 23.9219 111.188 24.0781ZM122.297 29.8281C122.297 30.1615 122.344 30.526 122.438 30.9219C122.542 31.3073 122.688 31.6979 122.875 32.0938C123.062 32.4896 123.292 32.8698 123.562 33.2344C123.844 33.5885 124.161 33.9062 124.516 34.1875C124.88 34.4688 125.281 34.6927 125.719 34.8594C126.156 35.026 126.635 35.1094 127.156 35.1094C127.521 35.1094 127.859 35.0677 128.172 34.9844C128.484 34.901 128.776 34.7865 129.047 34.6406C129.318 34.4948 129.578 34.3281 129.828 34.1406C130.078 33.9427 130.328 33.7344 130.578 33.5156L130.969 33.8906C130.729 34.2135 130.422 34.5677 130.047 34.9531C129.672 35.3385 129.219 35.7031 128.688 36.0469C128.156 36.3802 127.536 36.6615 126.828 36.8906C126.12 37.1094 125.312 37.2188 124.406 37.2188C123.5 37.2188 122.615 37.0573 121.75 36.7344C120.896 36.401 120.135 35.9062 119.469 35.25C118.802 34.5938 118.266 33.776 117.859 32.7969C117.464 31.8177 117.266 30.6719 117.266 29.3594C117.266 28.4115 117.385 27.5417 117.625 26.75C117.865 25.9583 118.188 25.2448 118.594 24.6094C119.01 23.974 119.49 23.4167 120.031 22.9375C120.583 22.4583 121.161 22.0625 121.766 21.75C122.37 21.4271 122.984 21.1875 123.609 21.0312C124.245 20.8646 124.854 20.7812 125.438 20.7812C126.208 20.7812 126.88 20.8646 127.453 21.0312C128.026 21.1979 128.5 21.4219 128.875 21.7031C129.26 21.9844 129.547 22.3125 129.734 22.6875C129.922 23.0521 130.016 23.4375 130.016 23.8438C130.016 24.3333 129.875 24.776 129.594 25.1719C129.312 25.5573 128.938 25.8958 128.469 26.1875L122.297 29.8281ZM125.438 26.6562C125.573 26.5729 125.682 26.4948 125.766 26.4219C125.859 26.3385 125.932 26.2448 125.984 26.1406C126.036 26.026 126.073 25.8906 126.094 25.7344C126.125 25.5677 126.141 25.3646 126.141 25.125C126.141 24.8646 126.109 24.5781 126.047 24.2656C125.995 23.9427 125.901 23.6406 125.766 23.3594C125.63 23.0781 125.458 22.8438 125.25 22.6562C125.042 22.4688 124.792 22.375 124.5 22.375C124.125 22.375 123.802 22.4896 123.531 22.7188C123.271 22.9375 123.052 23.224 122.875 23.5781C122.708 23.9323 122.573 24.3385 122.469 24.7969C122.375 25.2448 122.302 25.6979 122.25 26.1562C122.198 26.6146 122.167 27.0573 122.156 27.4844C122.146 27.901 122.141 28.2552 122.141 28.5469L125.438 26.6562ZM138.094 22.0312C137.854 22.0312 137.625 22.0625 137.406 22.125C137.198 22.1875 137.01 22.2917 136.844 22.4375C136.677 22.5729 136.547 22.75 136.453 22.9688C136.359 23.1771 136.312 23.4271 136.312 23.7188C136.312 24.125 136.458 24.5312 136.75 24.9375C137.052 25.3333 137.422 25.75 137.859 26.1875C138.307 26.6146 138.786 27.0625 139.297 27.5312C139.818 27.9896 140.297 28.4792 140.734 29C141.182 29.5104 141.552 30.0573 141.844 30.6406C142.146 31.224 142.297 31.849 142.297 32.5156C142.297 33.2656 142.167 33.9323 141.906 34.5156C141.656 35.099 141.292 35.5938 140.812 36C140.344 36.4062 139.771 36.7188 139.094 36.9375C138.427 37.1458 137.682 37.25 136.859 37.25C136.141 37.25 135.49 37.151 134.906 36.9531C134.323 36.7448 133.802 36.4948 133.344 36.2031C132.896 35.901 132.51 35.5833 132.188 35.25C131.865 34.9167 131.615 34.6146 131.438 34.3438L131.984 33.9531C132.12 34.1094 132.292 34.2812 132.5 34.4688C132.708 34.6458 132.938 34.8125 133.188 34.9688C133.448 35.125 133.724 35.2552 134.016 35.3594C134.307 35.4531 134.604 35.5 134.906 35.5C135.656 35.5 136.271 35.3229 136.75 34.9688C137.229 34.6042 137.469 34.0677 137.469 33.3594C137.469 32.9635 137.339 32.5573 137.078 32.1406C136.818 31.7135 136.49 31.276 136.094 30.8281C135.698 30.3802 135.271 29.9167 134.812 29.4375C134.354 28.9583 133.927 28.4635 133.531 27.9531C133.135 27.4427 132.807 26.9167 132.547 26.375C132.286 25.8333 132.156 25.2708 132.156 24.6875C132.156 24.0312 132.286 23.4583 132.547 22.9688C132.818 22.4792 133.172 22.0729 133.609 21.75C134.057 21.4271 134.562 21.1875 135.125 21.0312C135.698 20.8646 136.286 20.7812 136.891 20.7812C137.589 20.7812 138.224 20.8438 138.797 20.9688C139.37 21.0938 139.859 21.2865 140.266 21.5469C140.682 21.7969 141 22.1146 141.219 22.5C141.448 22.8854 141.562 23.3333 141.562 23.8438C141.562 24.2396 141.432 24.5833 141.172 24.875C140.911 25.1667 140.547 25.3125 140.078 25.3125C139.63 25.3125 139.286 25.2188 139.047 25.0312C138.818 24.8333 138.703 24.5677 138.703 24.2344C138.703 24.0156 138.755 23.8438 138.859 23.7188C138.974 23.5938 139.099 23.4948 139.234 23.4219C139.37 23.3385 139.49 23.2708 139.594 23.2188C139.708 23.1562 139.766 23.0781 139.766 22.9844C139.766 22.6927 139.609 22.4635 139.297 22.2969C138.984 22.1198 138.583 22.0312 138.094 22.0312ZM155.125 26.1875C154.802 26.1875 154.531 26.1406 154.312 26.0469C154.094 25.9427 153.917 25.8073 153.781 25.6406C153.646 25.474 153.547 25.2917 153.484 25.0938C153.422 24.8854 153.391 24.6719 153.391 24.4531C153.391 24.1719 153.406 23.901 153.438 23.6406C153.479 23.3802 153.484 23.1458 153.453 22.9375C153.432 22.7292 153.354 22.5625 153.219 22.4375C153.083 22.3125 152.844 22.25 152.5 22.25C152.135 22.25 151.75 22.3542 151.344 22.5625C150.938 22.7708 150.568 23.099 150.234 23.5469C149.901 23.9948 149.625 24.5729 149.406 25.2812C149.188 25.9792 149.078 26.8229 149.078 27.8125C149.078 28.9062 149.177 29.9062 149.375 30.8125C149.583 31.7083 149.891 32.474 150.297 33.1094C150.703 33.7448 151.208 34.2396 151.812 34.5938C152.417 34.9375 153.125 35.1094 153.938 35.1094C154.302 35.1094 154.646 35.0677 154.969 34.9844C155.302 34.901 155.615 34.7865 155.906 34.6406C156.198 34.4948 156.474 34.3281 156.734 34.1406C157.005 33.9427 157.266 33.7344 157.516 33.5156L157.906 33.8906C157.667 34.2135 157.359 34.5677 156.984 34.9531C156.609 35.3385 156.156 35.7031 155.625 36.0469C155.094 36.3802 154.474 36.6615 153.766 36.8906C153.057 37.1094 152.25 37.2188 151.344 37.2188C150.438 37.2188 149.552 37.0469 148.688 36.7031C147.833 36.349 147.073 35.8385 146.406 35.1719C145.74 34.5052 145.203 33.6979 144.797 32.75C144.401 31.7917 144.203 30.7031 144.203 29.4844C144.203 28.5365 144.323 27.6667 144.562 26.875C144.802 26.0729 145.125 25.349 145.531 24.7031C145.948 24.0573 146.427 23.4896 146.969 23C147.521 22.5104 148.099 22.1042 148.703 21.7812C149.307 21.4479 149.922 21.1979 150.547 21.0312C151.182 20.8646 151.792 20.7812 152.375 20.7812C153.146 20.7812 153.818 20.8698 154.391 21.0469C154.964 21.224 155.438 21.4583 155.812 21.75C156.198 22.0417 156.484 22.3802 156.672 22.7656C156.859 23.1406 156.953 23.5312 156.953 23.9375C156.953 24.2396 156.911 24.5312 156.828 24.8125C156.755 25.0833 156.641 25.3229 156.484 25.5312C156.339 25.7292 156.151 25.8906 155.922 26.0156C155.693 26.1302 155.427 26.1875 155.125 26.1875ZM167.047 28.9062C167.047 28.6458 166.964 28.4479 166.797 28.3125C166.63 28.1771 166.417 28.1094 166.156 28.1094C165.792 28.1094 165.443 28.1927 165.109 28.3594C164.786 28.526 164.5 28.7708 164.25 29.0938C164 29.4167 163.802 29.8177 163.656 30.2969C163.51 30.7656 163.438 31.3125 163.438 31.9375C163.438 32.5417 163.479 33.0417 163.562 33.4375C163.656 33.8333 163.776 34.151 163.922 34.3906C164.078 34.6198 164.255 34.7812 164.453 34.875C164.651 34.9688 164.859 35.0156 165.078 35.0156C165.349 35.0156 165.604 34.9479 165.844 34.8125C166.083 34.6667 166.292 34.4844 166.469 34.2656C166.646 34.0469 166.786 33.8021 166.891 33.5312C166.995 33.2604 167.047 32.9896 167.047 32.7188V28.9062ZM164.562 22.0625C164.208 22.0625 163.88 22.1042 163.578 22.1875C163.276 22.2708 163.016 22.375 162.797 22.5C162.578 22.625 162.406 22.7656 162.281 22.9219C162.156 23.0677 162.094 23.2083 162.094 23.3438C162.094 23.5 162.172 23.6146 162.328 23.6875C162.495 23.75 162.677 23.8281 162.875 23.9219C163.073 24.0052 163.25 24.1302 163.406 24.2969C163.573 24.4531 163.656 24.6979 163.656 25.0312C163.656 25.25 163.609 25.4531 163.516 25.6406C163.432 25.8177 163.312 25.9792 163.156 26.125C163.01 26.2604 162.833 26.3698 162.625 26.4531C162.427 26.526 162.219 26.5625 162 26.5625C161.417 26.5625 160.943 26.3646 160.578 25.9688C160.224 25.5729 160.047 25.0469 160.047 24.3906C160.047 23.7552 160.214 23.2135 160.547 22.7656C160.88 22.3073 161.312 21.9323 161.844 21.6406C162.385 21.349 162.995 21.1354 163.672 21C164.349 20.8542 165.026 20.7812 165.703 20.7812C166.516 20.7812 167.292 20.8698 168.031 21.0469C168.771 21.224 169.422 21.5052 169.984 21.8906C170.557 22.276 171.01 22.7656 171.344 23.3594C171.688 23.9531 171.859 24.6719 171.859 25.5156V34.3438C171.859 34.4375 171.865 34.5417 171.875 34.6562C171.885 34.7708 171.911 34.875 171.953 34.9688C171.995 35.0625 172.057 35.1406 172.141 35.2031C172.224 35.2656 172.344 35.2969 172.5 35.2969C172.688 35.2969 172.859 35.2292 173.016 35.0938C173.182 34.9479 173.328 34.8021 173.453 34.6562L173.844 34.9844C173.688 35.2031 173.5 35.4427 173.281 35.7031C173.062 35.9635 172.797 36.2083 172.484 36.4375C172.172 36.6667 171.807 36.8594 171.391 37.0156C170.974 37.1719 170.5 37.25 169.969 37.25C169.312 37.25 168.729 37.0573 168.219 36.6719C167.708 36.276 167.375 35.6719 167.219 34.8594C166.885 35.3073 166.536 35.6823 166.172 35.9844C165.818 36.2865 165.453 36.5312 165.078 36.7188C164.703 36.9062 164.323 37.0417 163.938 37.125C163.562 37.2083 163.182 37.25 162.797 37.25C162.297 37.25 161.812 37.1719 161.344 37.0156C160.875 36.8594 160.453 36.6146 160.078 36.2812C159.714 35.9375 159.417 35.4948 159.188 34.9531C158.969 34.4115 158.859 33.75 158.859 32.9688C158.859 32.0208 159.047 31.2448 159.422 30.6406C159.797 30.0365 160.286 29.5312 160.891 29.125C161.505 28.7083 162.198 28.3542 162.969 28.0625C163.75 27.7708 164.547 27.4635 165.359 27.1406C165.964 26.901 166.401 26.5469 166.672 26.0781C166.953 25.599 167.094 25.1094 167.094 24.6094C167.094 23.8385 166.865 23.224 166.406 22.7656C165.958 22.2969 165.344 22.0625 164.562 22.0625Z" fill="#3B3B3B"/>
<defs>
<clipPath id="clip0_228_706">
<rect width="44" height="44" fill="white" transform="translate(0 3.5)"/>
</clipPath>
</defs>
</svg>
