<svg width="361" height="102" viewBox="0 0 361 102" fill="none" xmlns="http://www.w3.org/2000/svg">
<g clip-path="url(#clip0_228_1224)">
<path d="M79.4389 28.1607L73.2937 24.4183C73.2937 24.4183 77.2137 13.2081 76.8721 11.6546C76.5362 10.1031 74.872 9.5 74.872 9.5L68.2669 21.6911L61.4786 18.7407L61.4385 14.2883L59.364 12.4447C59.364 12.4447 58.7591 17.5269 57.8945 18.7578C57.0377 19.9869 53.6406 22.2904 53.6406 22.2904L55.4307 24.1034L60.0606 21.6091L65.7688 25.5614L58.677 37.4243C58.677 37.4243 60.1064 39.1858 61.5129 38.4186C62.9176 37.6514 69.7994 28.8058 69.7994 28.8058C69.7994 28.8058 76.4808 32.5425 77.1908 32.7047C77.9007 32.8708 79.6546 33.8002 80.5439 31.6742C81.4332 29.5501 80.1603 28.5997 79.4389 28.1607Z" fill="#C8E677"/>
<path d="M68.8526 40.3728C67.8396 39.1779 66.7344 38.0644 65.5472 37.0425L63.8315 38.8174C64.9204 39.7476 65.9361 40.7601 66.8697 41.8461C65.0588 43.0106 63.123 43.9682 61.0986 44.7011C59.5108 39.9834 57.192 36.0597 54.3981 33.3955C55.4462 33.7423 56.4718 34.154 57.4687 34.6284L58.7817 32.5157C54.7517 30.5784 50.3369 29.5745 45.8654 29.5786H45.7948L45.6898 29.5824C36.5331 29.6359 28.3383 33.8268 22.8821 40.3728C22.3782 40.9777 21.9011 41.6037 21.4469 42.2469C17.8638 47.2856 15.9412 53.3163 15.9468 59.4992C15.9419 65.6819 17.8644 71.7124 21.4469 76.7515C21.9011 77.3946 22.3782 78.0225 22.8821 78.6236C28.3402 85.1715 36.5331 89.3586 45.6898 89.4121L45.7948 89.4159H45.8654C55.0946 89.4159 63.3601 85.2135 68.8526 78.6236C69.3564 78.0206 69.8335 77.3908 70.2877 76.7495C73.8689 71.7099 75.7907 65.6797 75.7859 59.4973C75.7859 53.0753 73.7477 47.1248 70.2877 42.2449C69.8356 41.6012 69.3568 40.9766 68.8526 40.3728ZM37.1209 33.4699C34.3709 36.1227 32.0865 40.0006 30.512 44.6553C28.5311 43.9309 26.637 42.9881 24.8649 41.8442C28.1082 37.9852 32.3471 35.0889 37.1209 33.4699ZM23.4241 43.7221C25.2829 44.9645 27.4337 46.0504 29.8116 46.9454C28.7328 50.9572 28.1836 55.0929 28.178 59.2472H18.4087C18.4595 53.682 20.2094 48.2652 23.4241 43.7221ZM18.4984 61.7034H28.2238C28.3662 65.2022 28.8987 68.6742 29.8116 72.0548C27.567 72.8835 25.4241 73.9649 23.4241 75.2781C20.5938 71.2772 18.8924 66.5883 18.4984 61.7034ZM24.8726 77.1484C26.642 76.0089 28.532 75.0687 30.5082 74.3449C32.0846 78.9977 34.369 82.8757 37.1209 85.5265C32.3484 83.9073 28.1117 81.0094 24.8726 77.1484ZM44.6402 86.8738C39.6038 86.1849 35.2564 81.0187 32.7907 73.5777C36.3442 72.5109 40.3691 71.8678 44.6402 71.7609V86.8738ZM44.6402 69.3085C40.1363 69.4192 35.8862 70.1158 32.1056 71.2742C31.2938 68.1427 30.8172 64.9338 30.6838 61.7015H44.6402V69.3085ZM44.6402 59.2453H30.6341C30.6421 55.3586 31.1397 51.4883 32.1151 47.726C35.8919 48.8825 40.1382 49.581 44.6402 49.6879V59.2453ZM44.6402 47.2355C40.371 47.1306 36.3461 46.4874 32.7945 45.4225C35.2621 37.9872 39.6038 32.8134 44.6402 32.1226V47.2355ZM47.0964 32.1417C52.0774 32.9108 56.3676 38.0731 58.8085 45.4607C55.2893 46.5027 51.3159 47.1344 47.0964 47.2374V32.1417ZM47.0964 49.6898C51.5468 49.5829 55.7416 48.9016 59.4898 47.768C60.4039 51.2585 60.9402 55.1403 60.9593 59.2472H47.0964V49.6898ZM47.0964 61.7034H60.9097C60.7761 64.921 60.304 68.1155 59.5012 71.2342C55.7511 70.0986 51.5468 69.4154 47.0964 69.3085V61.7034ZM47.0964 86.8567V71.7628C51.3159 71.8678 55.2931 72.4975 58.8161 73.5415C56.3733 80.929 52.0774 86.0856 47.0964 86.8567ZM54.3942 85.6009C57.1863 82.9367 59.5127 79.0168 61.1005 74.2991C63.1227 75.0305 65.0566 75.9862 66.8659 77.1484C63.5743 81.0694 59.2557 83.9963 54.3942 85.6009ZM68.3106 75.2781C66.4193 74.0109 64.2189 72.9079 61.7914 72.0033C62.654 68.8276 63.2074 65.36 63.3639 61.7034H73.2363C72.8422 66.5883 71.1408 71.2772 68.3106 75.2781ZM63.4154 59.2453C63.3925 54.8731 62.8105 50.7299 61.7894 46.9931C64.2189 46.0885 66.4155 44.9855 68.3068 43.7221C71.5219 48.2642 73.2719 53.6806 73.3221 59.2453H63.4154Z" fill="#C8E677"/>
<path d="M7.04203 58.7798C7.04203 36.8995 24.8421 19.0957 46.7261 19.0957C48.9915 19.0957 51.1995 19.319 53.358 19.6873L55.8695 18.1396L56.6978 15.3914C53.8618 14.8189 49.7319 14.2043 46.7261 14.2043C22.1454 14.2043 2.1507 34.2029 2.1507 58.7798C2.13789 61.2227 2.2794 63.664 2.57437 66.0891C3.79768 75.7477 16.0842 92.4981 25.8383 92.5C15.277 84.9464 7.04203 72.9996 7.04203 58.7798Z" fill="#C8E677"/>
</g>
<path d="M123.188 74.5C121.438 74.5 120.146 74.1354 119.312 73.4062C118.479 72.6771 118.062 71.5104 118.062 69.9062V30.2188C117.396 30.2812 116.562 30.4062 115.562 30.5938C114.583 30.7604 113.552 31.0104 112.469 31.3438C111.385 31.6771 110.302 32.0833 109.219 32.5625C108.135 33.0208 107.167 33.5625 106.312 34.1875C105.458 34.7917 104.76 35.4792 104.219 36.25C103.677 37.0208 103.406 37.875 103.406 38.8125C103.406 39.4792 103.49 40.0104 103.656 40.4062C103.844 40.8021 104.052 41.1042 104.281 41.3125C104.51 41.5 104.74 41.625 104.969 41.6875C105.219 41.7292 105.396 41.75 105.5 41.75C106.021 41.75 106.448 41.6667 106.781 41.5C107.115 41.3125 107.417 41.125 107.688 40.9375C107.958 40.7292 108.208 40.5417 108.438 40.375C108.688 40.1875 108.969 40.0938 109.281 40.0938C109.531 40.0938 109.792 40.1562 110.062 40.2812C110.354 40.3854 110.615 40.5625 110.844 40.8125C111.094 41.0625 111.302 41.3958 111.469 41.8125C111.635 42.2083 111.719 42.6979 111.719 43.2812C111.719 44.1146 111.552 44.8333 111.219 45.4375C110.906 46.0417 110.49 46.5521 109.969 46.9688C109.469 47.3646 108.885 47.6667 108.219 47.875C107.573 48.0625 106.927 48.1562 106.281 48.1562C105.281 48.1562 104.375 47.9896 103.562 47.6562C102.771 47.3021 102.094 46.8229 101.531 46.2188C100.969 45.6146 100.542 44.9062 100.25 44.0938C99.9583 43.2812 99.8125 42.4167 99.8125 41.5C99.8125 39.0625 100.479 36.9583 101.812 35.1875C103.167 33.3958 105.01 31.9167 107.344 30.75C109.677 29.5625 112.396 28.6875 115.5 28.125C118.604 27.5625 121.927 27.2812 125.469 27.2812C127.156 27.2812 128.802 27.3021 130.406 27.3438C132.01 27.3646 133.469 27.4062 134.781 27.4688C136.115 27.5312 137.26 27.6042 138.219 27.6875C139.177 27.7708 139.875 27.8646 140.312 27.9688C140.729 28.0729 141.062 28.2292 141.312 28.4375C141.562 28.625 141.75 28.8438 141.875 29.0938C142 29.3438 142.083 29.6146 142.125 29.9062C142.167 30.1771 142.188 30.4583 142.188 30.75C142.188 30.9792 142.156 31.25 142.094 31.5625C142.031 31.8542 141.938 32.1354 141.812 32.4062C141.688 32.6771 141.531 32.9062 141.344 33.0938C141.156 33.2812 140.927 33.375 140.656 33.375C140.49 33.375 140.312 33.3021 140.125 33.1562C139.958 33.0104 139.719 32.8333 139.406 32.625C139.094 32.4167 138.667 32.1771 138.125 31.9062C137.604 31.6354 136.906 31.3854 136.031 31.1562C135.177 30.9271 134.115 30.7188 132.844 30.5312C131.594 30.3438 130.073 30.2188 128.281 30.1562V69.9062C128.281 71.5104 127.865 72.6771 127.031 73.4062C126.198 74.1354 124.917 74.5 123.188 74.5ZM137.031 58C137.031 55.2708 137.427 52.8854 138.219 50.8438C139.01 48.7812 140.062 47.0625 141.375 45.6875C142.708 44.3125 144.25 43.2812 146 42.5938C147.75 41.9062 149.583 41.5625 151.5 41.5625C153.417 41.5625 155.25 41.8854 157 42.5312C158.75 43.1562 160.281 44.125 161.594 45.4375C162.927 46.75 163.99 48.4167 164.781 50.4375C165.573 52.4375 165.969 54.8125 165.969 57.5625C165.969 60.2917 165.573 62.7083 164.781 64.8125C163.99 66.9167 162.927 68.6875 161.594 70.125C160.281 71.5625 158.75 72.6562 157 73.4062C155.25 74.1354 153.417 74.5 151.5 74.5C149.583 74.5 147.75 74.1562 146 73.4688C144.25 72.7604 142.708 71.7188 141.375 70.3438C140.062 68.9688 139.01 67.25 138.219 65.1875C137.427 63.125 137.031 60.7292 137.031 58ZM156.25 57.6875C156.25 56.0208 156.188 54.4167 156.062 52.875C155.958 51.3125 155.74 49.9271 155.406 48.7188C155.073 47.5104 154.594 46.5521 153.969 45.8438C153.344 45.1146 152.521 44.75 151.5 44.75C150.479 44.75 149.656 45.1354 149.031 45.9062C148.406 46.6562 147.927 47.6562 147.594 48.9062C147.26 50.1354 147.042 51.5417 146.938 53.125C146.833 54.7083 146.781 56.3333 146.781 58C146.781 59.6667 146.833 61.3021 146.938 62.9062C147.042 64.4896 147.26 65.9062 147.594 67.1562C147.927 68.4062 148.406 69.4167 149.031 70.1875C149.656 70.9375 150.479 71.3125 151.5 71.3125C152.521 71.3125 153.344 70.9167 153.969 70.125C154.594 69.3333 155.073 68.2917 155.406 67C155.74 65.7083 155.958 64.25 156.062 62.625C156.188 61 156.25 59.3542 156.25 57.6875ZM199.156 68.5625C199.156 68.75 199.167 68.9583 199.188 69.1875C199.208 69.3958 199.26 69.6042 199.344 69.8125C199.427 70 199.552 70.1562 199.719 70.2812C199.885 70.4062 200.125 70.4688 200.438 70.4688C200.833 70.4688 201.188 70.3333 201.5 70.0625C201.812 69.7708 202.104 69.4792 202.375 69.1875L203.125 69.8438C202.812 70.2812 202.417 70.7708 201.938 71.3125C201.479 71.8333 200.917 72.3333 200.25 72.8125C199.583 73.2917 198.823 73.6875 197.969 74C197.115 74.3333 196.146 74.5 195.062 74.5C194.146 74.5 193.344 74.375 192.656 74.125C191.99 73.8958 191.417 73.5833 190.938 73.1875C190.479 72.7708 190.135 72.2917 189.906 71.75C189.677 71.1875 189.562 70.5938 189.562 69.9688V68.5625C188.521 69.6875 187.427 70.6771 186.281 71.5312C185.781 71.9062 185.25 72.2708 184.688 72.625C184.125 72.9792 183.542 73.3021 182.938 73.5938C182.333 73.8646 181.708 74.0833 181.062 74.25C180.417 74.4167 179.771 74.5 179.125 74.5C177.875 74.5 176.802 74.2812 175.906 73.8438C175.031 73.3854 174.323 72.7917 173.781 72.0625C173.24 71.3333 172.844 70.5104 172.594 69.5938C172.344 68.6771 172.219 67.7604 172.219 66.8438V47.5C172.219 47.3125 172.208 47.1146 172.188 46.9062C172.167 46.6771 172.115 46.4688 172.031 46.2812C171.948 46.0729 171.823 45.9062 171.656 45.7812C171.49 45.6562 171.25 45.5938 170.938 45.5938C170.562 45.5938 170.208 45.7396 169.875 46.0312C169.562 46.3021 169.281 46.5833 169.031 46.875L168.25 46.2188C168.562 45.7812 168.948 45.3021 169.406 44.7812C169.885 44.2396 170.458 43.7292 171.125 43.25C171.792 42.7708 172.552 42.375 173.406 42.0625C174.281 41.7292 175.25 41.5625 176.312 41.5625C177.229 41.5625 178.031 41.6875 178.719 41.9375C179.406 42.1667 179.979 42.4896 180.438 42.9062C180.896 43.3021 181.24 43.7812 181.469 44.3438C181.698 44.8854 181.812 45.4688 181.812 46.0938V66.9688C181.812 67.2604 181.854 67.5625 181.938 67.875C182.042 68.1667 182.177 68.4375 182.344 68.6875C182.531 68.9375 182.76 69.1458 183.031 69.3125C183.302 69.4583 183.625 69.5312 184 69.5312C184.604 69.5312 185.208 69.375 185.812 69.0625C186.417 68.75 186.969 68.3854 187.469 67.9688C187.969 67.5312 188.396 67.1042 188.75 66.6875C189.125 66.2708 189.396 65.9583 189.562 65.75V47.5C189.562 47.3125 189.552 47.1146 189.531 46.9062C189.51 46.6771 189.458 46.4688 189.375 46.2812C189.292 46.0729 189.167 45.9062 189 45.7812C188.833 45.6562 188.594 45.5938 188.281 45.5938C187.906 45.5938 187.552 45.7396 187.219 46.0312C186.906 46.3021 186.625 46.5833 186.375 46.875L185.594 46.2188C185.906 45.7812 186.292 45.3021 186.75 44.7812C187.229 44.2396 187.802 43.7292 188.469 43.25C189.135 42.7708 189.896 42.375 190.75 42.0625C191.625 41.7292 192.594 41.5625 193.656 41.5625C194.573 41.5625 195.375 41.6875 196.062 41.9375C196.75 42.1667 197.323 42.4896 197.781 42.9062C198.24 43.3021 198.583 43.7812 198.812 44.3438C199.042 44.8854 199.156 45.4688 199.156 46.0938V68.5625ZM217.375 48.1562C218.167 46.9479 219.01 45.8542 219.906 44.875C220.281 44.4583 220.688 44.0521 221.125 43.6562C221.562 43.2604 222.01 42.9062 222.469 42.5938C222.948 42.2812 223.438 42.0312 223.938 41.8438C224.438 41.6562 224.938 41.5625 225.438 41.5625C226.5 41.5625 227.333 41.8854 227.938 42.5312C228.542 43.1562 228.844 44.0417 228.844 45.1875C228.844 45.8958 228.781 46.5833 228.656 47.25C228.552 47.8958 228.333 48.6875 228 49.625H227.125C227 48.9792 226.708 48.4479 226.25 48.0312C225.792 47.5938 225.125 47.375 224.25 47.375C223.604 47.375 222.969 47.5 222.344 47.75C221.719 47.9792 221.104 48.2708 220.5 48.625C219.917 48.9792 219.354 49.3646 218.812 49.7812C218.292 50.1979 217.812 50.5938 217.375 50.9688V71.25C217.375 71.5208 217.333 71.8438 217.25 72.2188C217.167 72.5938 216.958 72.9479 216.625 73.2812C216.312 73.6146 215.833 73.8958 215.188 74.125C214.562 74.375 213.698 74.5 212.594 74.5C211.49 74.5 210.615 74.3646 209.969 74.0938C209.344 73.8438 208.865 73.5417 208.531 73.1875C208.198 72.8333 207.99 72.4688 207.906 72.0938C207.823 71.7188 207.781 71.4167 207.781 71.1875V47.0625C207.781 46.4583 207.635 45.9375 207.344 45.5C207.073 45.0417 206.604 44.8125 205.938 44.8125C205.583 44.8125 205.281 44.875 205.031 45C204.781 45.125 204.51 45.3021 204.219 45.5312L203.562 44.75C204.042 44.3542 204.573 43.9688 205.156 43.5938C205.76 43.1979 206.406 42.8542 207.094 42.5625C207.781 42.2708 208.521 42.0312 209.312 41.8438C210.104 41.6562 210.938 41.5625 211.812 41.5625C212.708 41.5625 213.469 41.6875 214.094 41.9375C214.74 42.1667 215.26 42.4792 215.656 42.875C216.073 43.25 216.396 43.6771 216.625 44.1562C216.854 44.6354 217.021 45.125 217.125 45.625C217.25 46.1042 217.323 46.5729 217.344 47.0312C217.365 47.4688 217.375 47.8438 217.375 48.1562ZM239.594 59.6562C239.594 60.3229 239.688 61.0521 239.875 61.8438C240.083 62.6146 240.375 63.3958 240.75 64.1875C241.125 64.9792 241.583 65.7396 242.125 66.4688C242.688 67.1771 243.323 67.8125 244.031 68.375C244.76 68.9375 245.562 69.3854 246.438 69.7188C247.312 70.0521 248.271 70.2188 249.312 70.2188C250.042 70.2188 250.719 70.1354 251.344 69.9688C251.969 69.8021 252.552 69.5729 253.094 69.2812C253.635 68.9896 254.156 68.6562 254.656 68.2812C255.156 67.8854 255.656 67.4688 256.156 67.0312L256.938 67.7812C256.458 68.4271 255.844 69.1354 255.094 69.9062C254.344 70.6771 253.438 71.4062 252.375 72.0938C251.312 72.7604 250.073 73.3229 248.656 73.7812C247.24 74.2188 245.625 74.4375 243.812 74.4375C242 74.4375 240.229 74.1146 238.5 73.4688C236.792 72.8021 235.271 71.8125 233.938 70.5C232.604 69.1875 231.531 67.5521 230.719 65.5938C229.927 63.6354 229.531 61.3438 229.531 58.7188C229.531 56.8229 229.771 55.0833 230.25 53.5C230.729 51.9167 231.375 50.4896 232.188 49.2188C233.021 47.9479 233.979 46.8333 235.062 45.875C236.167 44.9167 237.323 44.125 238.531 43.5C239.74 42.8542 240.969 42.375 242.219 42.0625C243.49 41.7292 244.708 41.5625 245.875 41.5625C247.417 41.5625 248.76 41.7292 249.906 42.0625C251.052 42.3958 252 42.8438 252.75 43.4062C253.521 43.9688 254.094 44.625 254.469 45.375C254.844 46.1042 255.031 46.875 255.031 47.6875C255.031 48.6667 254.75 49.5521 254.188 50.3438C253.625 51.1146 252.875 51.7917 251.938 52.375L239.594 59.6562ZM245.875 53.3125C246.146 53.1458 246.365 52.9896 246.531 52.8438C246.719 52.6771 246.865 52.4896 246.969 52.2812C247.073 52.0521 247.146 51.7812 247.188 51.4688C247.25 51.1354 247.281 50.7292 247.281 50.25C247.281 49.7292 247.219 49.1562 247.094 48.5312C246.99 47.8854 246.802 47.2812 246.531 46.7188C246.26 46.1562 245.917 45.6875 245.5 45.3125C245.083 44.9375 244.583 44.75 244 44.75C243.25 44.75 242.604 44.9792 242.062 45.4375C241.542 45.875 241.104 46.4479 240.75 47.1562C240.417 47.8646 240.146 48.6771 239.938 49.5938C239.75 50.4896 239.604 51.3958 239.5 52.3125C239.396 53.2292 239.333 54.1146 239.312 54.9688C239.292 55.8021 239.281 56.5104 239.281 57.0938L245.875 53.3125ZM271.188 44.0625C270.708 44.0625 270.25 44.125 269.812 44.25C269.396 44.375 269.021 44.5833 268.688 44.875C268.354 45.1458 268.094 45.5 267.906 45.9375C267.719 46.3542 267.625 46.8542 267.625 47.4375C267.625 48.25 267.917 49.0625 268.5 49.875C269.104 50.6667 269.844 51.5 270.719 52.375C271.615 53.2292 272.573 54.125 273.594 55.0625C274.635 55.9792 275.594 56.9583 276.469 58C277.365 59.0208 278.104 60.1146 278.688 61.2812C279.292 62.4479 279.594 63.6979 279.594 65.0312C279.594 66.5312 279.333 67.8646 278.812 69.0312C278.312 70.1979 277.583 71.1875 276.625 72C275.688 72.8125 274.542 73.4375 273.188 73.875C271.854 74.2917 270.365 74.5 268.719 74.5C267.281 74.5 265.979 74.3021 264.812 73.9062C263.646 73.4896 262.604 72.9896 261.688 72.4062C260.792 71.8021 260.021 71.1667 259.375 70.5C258.729 69.8333 258.229 69.2292 257.875 68.6875L258.969 67.9062C259.24 68.2188 259.583 68.5625 260 68.9375C260.417 69.2917 260.875 69.625 261.375 69.9375C261.896 70.25 262.448 70.5104 263.031 70.7188C263.615 70.9062 264.208 71 264.812 71C266.312 71 267.542 70.6458 268.5 69.9375C269.458 69.2083 269.938 68.1354 269.938 66.7188C269.938 65.9271 269.677 65.1146 269.156 64.2812C268.635 63.4271 267.979 62.5521 267.188 61.6562C266.396 60.7604 265.542 59.8333 264.625 58.875C263.708 57.9167 262.854 56.9271 262.062 55.9062C261.271 54.8854 260.615 53.8333 260.094 52.75C259.573 51.6667 259.312 50.5417 259.312 49.375C259.312 48.0625 259.573 46.9167 260.094 45.9375C260.635 44.9583 261.344 44.1458 262.219 43.5C263.115 42.8542 264.125 42.375 265.25 42.0625C266.396 41.7292 267.573 41.5625 268.781 41.5625C270.177 41.5625 271.448 41.6875 272.594 41.9375C273.74 42.1875 274.719 42.5729 275.531 43.0938C276.365 43.5938 277 44.2292 277.438 45C277.896 45.7708 278.125 46.6667 278.125 47.6875C278.125 48.4792 277.865 49.1667 277.344 49.75C276.823 50.3333 276.094 50.625 275.156 50.625C274.26 50.625 273.573 50.4375 273.094 50.0625C272.635 49.6667 272.406 49.1354 272.406 48.4688C272.406 48.0312 272.51 47.6875 272.719 47.4375C272.948 47.1875 273.198 46.9896 273.469 46.8438C273.74 46.6771 273.979 46.5417 274.188 46.4375C274.417 46.3125 274.531 46.1562 274.531 45.9688C274.531 45.3854 274.219 44.9271 273.594 44.5938C272.969 44.2396 272.167 44.0625 271.188 44.0625ZM305.25 52.375C304.604 52.375 304.062 52.2812 303.625 52.0938C303.188 51.8854 302.833 51.6146 302.562 51.2812C302.292 50.9479 302.094 50.5833 301.969 50.1875C301.844 49.7708 301.781 49.3438 301.781 48.9062C301.781 48.3438 301.812 47.8021 301.875 47.2812C301.958 46.7604 301.969 46.2917 301.906 45.875C301.865 45.4583 301.708 45.125 301.438 44.875C301.167 44.625 300.688 44.5 300 44.5C299.271 44.5 298.5 44.7083 297.688 45.125C296.875 45.5417 296.135 46.1979 295.469 47.0938C294.802 47.9896 294.25 49.1458 293.812 50.5625C293.375 51.9583 293.156 53.6458 293.156 55.625C293.156 57.8125 293.354 59.8125 293.75 61.625C294.167 63.4167 294.781 64.9479 295.594 66.2188C296.406 67.4896 297.417 68.4792 298.625 69.1875C299.833 69.875 301.25 70.2188 302.875 70.2188C303.604 70.2188 304.292 70.1354 304.938 69.9688C305.604 69.8021 306.229 69.5729 306.812 69.2812C307.396 68.9896 307.948 68.6562 308.469 68.2812C309.01 67.8854 309.531 67.4688 310.031 67.0312L310.812 67.7812C310.333 68.4271 309.719 69.1354 308.969 69.9062C308.219 70.6771 307.312 71.4062 306.25 72.0938C305.188 72.7604 303.948 73.3229 302.531 73.7812C301.115 74.2188 299.5 74.4375 297.688 74.4375C295.875 74.4375 294.104 74.0938 292.375 73.4062C290.667 72.6979 289.146 71.6771 287.812 70.3438C286.479 69.0104 285.406 67.3958 284.594 65.5C283.802 63.5833 283.406 61.4062 283.406 58.9688C283.406 57.0729 283.646 55.3333 284.125 53.75C284.604 52.1458 285.25 50.6979 286.062 49.4062C286.896 48.1146 287.854 46.9792 288.938 46C290.042 45.0208 291.198 44.2083 292.406 43.5625C293.615 42.8958 294.844 42.3958 296.094 42.0625C297.365 41.7292 298.583 41.5625 299.75 41.5625C301.292 41.5625 302.635 41.7396 303.781 42.0938C304.927 42.4479 305.875 42.9167 306.625 43.5C307.396 44.0833 307.969 44.7604 308.344 45.5312C308.719 46.2812 308.906 47.0625 308.906 47.875C308.906 48.4792 308.823 49.0625 308.656 49.625C308.51 50.1667 308.281 50.6458 307.969 51.0625C307.677 51.4583 307.302 51.7812 306.844 52.0312C306.385 52.2604 305.854 52.375 305.25 52.375ZM329.094 57.8125C329.094 57.2917 328.927 56.8958 328.594 56.625C328.26 56.3542 327.833 56.2188 327.312 56.2188C326.583 56.2188 325.885 56.3854 325.219 56.7188C324.573 57.0521 324 57.5417 323.5 58.1875C323 58.8333 322.604 59.6354 322.312 60.5938C322.021 61.5312 321.875 62.625 321.875 63.875C321.875 65.0833 321.958 66.0833 322.125 66.875C322.312 67.6667 322.552 68.3021 322.844 68.7812C323.156 69.2396 323.51 69.5625 323.906 69.75C324.302 69.9375 324.719 70.0312 325.156 70.0312C325.698 70.0312 326.208 69.8958 326.688 69.625C327.167 69.3333 327.583 68.9688 327.938 68.5312C328.292 68.0938 328.573 67.6042 328.781 67.0625C328.99 66.5208 329.094 65.9792 329.094 65.4375V57.8125ZM324.125 44.125C323.417 44.125 322.76 44.2083 322.156 44.375C321.552 44.5417 321.031 44.75 320.594 45C320.156 45.25 319.812 45.5312 319.562 45.8438C319.312 46.1354 319.188 46.4167 319.188 46.6875C319.188 47 319.344 47.2292 319.656 47.375C319.99 47.5 320.354 47.6562 320.75 47.8438C321.146 48.0104 321.5 48.2604 321.812 48.5938C322.146 48.9062 322.312 49.3958 322.312 50.0625C322.312 50.5 322.219 50.9062 322.031 51.2812C321.865 51.6354 321.625 51.9583 321.312 52.25C321.021 52.5208 320.667 52.7396 320.25 52.9062C319.854 53.0521 319.438 53.125 319 53.125C317.833 53.125 316.885 52.7292 316.156 51.9375C315.448 51.1458 315.094 50.0938 315.094 48.7812C315.094 47.5104 315.427 46.4271 316.094 45.5312C316.76 44.6146 317.625 43.8646 318.688 43.2812C319.771 42.6979 320.99 42.2708 322.344 42C323.698 41.7083 325.052 41.5625 326.406 41.5625C328.031 41.5625 329.583 41.7396 331.062 42.0938C332.542 42.4479 333.844 43.0104 334.969 43.7812C336.115 44.5521 337.021 45.5312 337.688 46.7188C338.375 47.9062 338.719 49.3438 338.719 51.0312V68.6875C338.719 68.875 338.729 69.0833 338.75 69.3125C338.771 69.5417 338.823 69.75 338.906 69.9375C338.99 70.125 339.115 70.2812 339.281 70.4062C339.448 70.5312 339.688 70.5938 340 70.5938C340.375 70.5938 340.719 70.4583 341.031 70.1875C341.365 69.8958 341.656 69.6042 341.906 69.3125L342.688 69.9688C342.375 70.4062 342 70.8854 341.562 71.4062C341.125 71.9271 340.594 72.4167 339.969 72.875C339.344 73.3333 338.615 73.7188 337.781 74.0312C336.948 74.3438 336 74.5 334.938 74.5C333.625 74.5 332.458 74.1146 331.438 73.3438C330.417 72.5521 329.75 71.3438 329.438 69.7188C328.771 70.6146 328.073 71.3646 327.344 71.9688C326.635 72.5729 325.906 73.0625 325.156 73.4375C324.406 73.8125 323.646 74.0833 322.875 74.25C322.125 74.4167 321.365 74.5 320.594 74.5C319.594 74.5 318.625 74.3438 317.688 74.0312C316.75 73.7188 315.906 73.2292 315.156 72.5625C314.427 71.875 313.833 70.9896 313.375 69.9062C312.938 68.8229 312.719 67.5 312.719 65.9375C312.719 64.0417 313.094 62.4896 313.844 61.2812C314.594 60.0729 315.573 59.0625 316.781 58.25C318.01 57.4167 319.396 56.7083 320.938 56.125C322.5 55.5417 324.094 54.9271 325.719 54.2812C326.927 53.8021 327.802 53.0938 328.344 52.1562C328.906 51.1979 329.188 50.2188 329.188 49.2188C329.188 47.6771 328.729 46.4479 327.812 45.5312C326.917 44.5938 325.688 44.125 324.125 44.125Z" fill="#C8E677"/>
<defs>
<clipPath id="clip0_228_1224">
<rect width="83" height="83" fill="white" transform="translate(0 9.5)"/>
</clipPath>
</defs>
</svg>
