<svg width="157" height="114" viewBox="0 0 157 114" fill="none" xmlns="http://www.w3.org/2000/svg">
<path d="M11.8865 81.6614C11.6581 81.781 11.3615 81.7788 11.1362 81.6877C11.0485 81.6523 10.968 81.608 10.9143 81.551C10.0921 80.736 9.30921 79.9133 8.56561 79.083C8.35775 78.8459 8.45167 78.5425 8.78541 78.3948C9.11914 78.2472 9.54632 78.3139 9.75418 78.551C10.4673 79.3572 11.2377 80.1748 12.042 80.9708C12.2641 81.1901 12.1952 81.5036 11.8865 81.6614ZM63.6157 13.5693C63.9781 13.4686 64.1489 13.1727 63.9999 12.9241C63.8581 12.6666 63.4415 12.5453 63.0916 12.6511C61.7865 13.0183 60.5064 13.3956 59.2513 13.7831C58.9014 13.8889 58.7307 14.1848 58.8796 14.4333C58.9424 14.5411 59.0462 14.6184 59.1714 14.669C59.3592 14.7449 59.5844 14.7535 59.795 14.6974C61.043 14.3189 62.3231 13.9416 63.6085 13.5782L63.6157 13.5693ZM7.69307 76.0344C7.0423 75.171 6.43793 74.291 5.89077 73.4223C5.72932 73.1687 5.31812 73.0613 4.9682 73.1671C4.61116 73.2818 4.46003 73.5739 4.60896 73.8225C5.1669 74.719 5.78918 75.618 6.45787 76.5005C6.52241 76.5854 6.62084 76.6488 6.73352 76.6943C6.93384 76.7753 7.19114 76.7851 7.41068 76.6973C7.74981 76.5636 7.88841 76.2664 7.70019 76.0255L7.69307 76.0344ZM48.8683 17.7447C48.6997 17.5 48.2618 17.4054 47.9298 17.5302C46.6695 17.9862 45.4415 18.4434 44.2384 18.9107C43.8993 19.0444 43.7732 19.3466 43.9614 19.5875C44.026 19.6724 44.1244 19.7358 44.2371 19.7813C44.4374 19.8623 44.6947 19.8721 44.9142 19.7842C46.1102 19.3258 47.3257 18.8635 48.5663 18.4114C48.9108 18.2917 49.0565 17.9856 48.8683 17.7447ZM3.19499 67.9533C3.09247 67.6882 2.71148 67.5224 2.33113 67.6041C1.9579 67.677 1.72453 67.9476 1.83957 68.2178C2.18683 69.1704 2.59842 70.1256 3.06895 71.0692C3.12463 71.1859 3.24637 71.2822 3.38409 71.3378C3.55937 71.4087 3.76487 71.4211 3.96843 71.3739C4.33626 71.2871 4.51955 70.9962 4.39739 70.735C3.93766 69.8192 3.54398 68.8831 3.20751 67.9584L3.19499 67.9533ZM78.7613 8.6484C77.4221 8.95472 76.115 9.26226 74.8079 9.56981C74.4401 9.65659 74.2443 9.94239 74.3665 10.2037C74.4222 10.3204 74.5439 10.4167 74.6816 10.4723C74.8444 10.5381 75.0624 10.5556 75.2463 10.5122C76.5409 10.1996 77.8479 9.89206 79.1675 9.58957C79.5353 9.5028 79.7437 9.22205 79.6215 8.96076C79.4993 8.69948 79.1041 8.5515 78.7363 8.63828L78.7613 8.6484ZM23.0932 89.5815C22.0588 88.928 21.0583 88.2529 20.09 87.5789C19.8215 87.3762 19.3623 87.3908 19.0966 87.5777C18.8237 87.7735 18.8317 88.0945 19.1145 88.2795C20.0882 88.9674 21.1208 89.6437 22.1606 90.3112C22.1982 90.3264 22.2411 90.3555 22.2787 90.3707C22.5541 90.4821 22.931 90.446 23.1503 90.2757C23.4107 90.0748 23.3831 89.7576 23.1003 89.5727L23.0932 89.5815ZM71.7756 10.8517C71.6464 10.5993 71.244 10.4603 70.8762 10.547C69.5602 10.8863 68.2569 11.2307 66.9731 11.5712C66.6107 11.6719 66.4345 11.9539 66.5567 12.2152C66.6195 12.323 66.7287 12.4142 66.8664 12.4699C67.0417 12.5407 67.2597 12.5582 67.4704 12.5021C68.7416 12.1565 70.0379 11.821 71.3538 11.4818C71.7091 11.3899 71.9049 11.1041 71.7828 10.8428L71.7756 10.8517ZM95.588 5.72547C95.4855 5.46035 95.1045 5.29459 94.7312 5.36741C93.3704 5.61792 92.0418 5.86965 90.7131 6.12138C90.3399 6.1942 90.119 6.46989 90.2216 6.735C90.263 6.86948 90.3973 6.97083 90.5475 7.03156C90.6977 7.09228 90.8961 7.1136 91.0729 7.07911C92.389 6.82232 93.7177 6.57059 95.0714 6.32897C95.4446 6.25615 95.678 5.98553 95.5755 5.72041L95.588 5.72547ZM17.242 85.486C16.3039 84.7536 15.4051 84.0136 14.551 83.2799C14.3093 83.0645 13.8661 83.0384 13.5628 83.2101C13.2595 83.3818 13.2228 83.6966 13.4645 83.9121C14.3241 84.6598 15.2408 85.4188 16.2039 86.1612C16.2523 86.2043 16.3149 86.2296 16.3775 86.2549C16.6404 86.3612 16.9709 86.3417 17.1956 86.1853C17.481 85.9946 17.498 85.6836 17.242 85.486ZM83.1425 8.72397C84.4478 8.43928 85.7656 8.15964 87.1085 7.89012C87.4818 7.8173 87.6901 7.53655 87.6001 7.27649C87.4976 7.01138 87.1023 6.8634 86.7362 6.92733C85.3862 7.20574 84.0558 7.48032 82.7505 7.76502C82.3827 7.85179 82.1689 8.11859 82.284 8.38876C82.3325 8.51434 82.4543 8.61064 82.6045 8.67136C82.7673 8.73715 82.9657 8.75847 83.1496 8.71508L83.1425 8.72397ZM7.51032 42.9738C7.84835 43.1104 8.26087 43.0299 8.46574 42.7949C9.1354 41.9589 9.87477 41.1394 10.6392 40.33C10.8566 40.1 10.77 39.7942 10.4463 39.6398C10.1279 39.4993 9.69203 39.5469 9.47465 39.7769C8.68346 40.599 7.93523 41.4503 7.23881 42.299C7.04646 42.5391 7.15264 42.841 7.49067 42.9776L7.51032 42.9738ZM4.9093 48.0207C5.38943 47.1317 5.94101 46.2362 6.54268 45.361C6.70998 45.1108 6.56451 44.8165 6.21223 44.6977C5.85995 44.5788 5.44571 44.6822 5.2784 44.9324C4.66249 45.8254 4.10205 46.7526 3.60054 47.6683C3.47965 47.9019 3.60181 48.1632 3.90228 48.2847C3.92732 48.2948 3.96488 48.31 3.98992 48.3201C4.35645 48.4212 4.7599 48.2899 4.89505 48.0384L4.9093 48.0207ZM12.0752 38.0614C12.0752 38.0614 12.1378 38.0867 12.1629 38.0969C12.4634 38.2183 12.8545 38.1645 13.063 37.9662C13.8812 37.2139 14.7583 36.45 15.6658 35.7102C15.9137 35.5043 15.886 35.187 15.5962 35.011C15.3063 34.835 14.8596 34.8546 14.6118 35.0605C13.69 35.8181 12.7933 36.5858 11.9609 37.356C11.7185 37.5758 11.7854 37.8854 12.0824 38.0525L12.0752 38.0614ZM17.4524 33.5834C17.4524 33.5834 17.5384 33.6416 17.5884 33.6619C17.8639 33.7732 18.2086 33.736 18.4333 33.5796C19.3624 32.8956 20.363 32.2051 21.3744 31.5426C21.6597 31.3519 21.6768 31.0409 21.4083 30.8382C21.1398 30.6355 20.702 30.6234 20.4166 30.8141C19.391 31.4944 18.3833 32.1937 17.4274 32.8905C17.1546 33.0862 17.1625 33.4073 17.4453 33.5923L17.4524 33.5834ZM51.6271 17.0939C51.8149 17.1698 52.0651 17.1885 52.2775 17.1096C53.5021 16.6981 54.7464 16.2827 56.0228 15.8686C56.3798 15.7539 56.5309 15.4618 56.3695 15.2082C56.208 14.9546 55.7968 14.8472 55.4398 14.9619C54.1508 15.371 52.9066 15.7863 51.6677 16.2156C51.3232 16.3354 51.1721 16.6275 51.3335 16.8811C51.3909 16.9749 51.4948 17.0522 51.62 17.1028L51.6271 17.0939ZM1.85289 62.2427C1.82182 61.9711 1.48897 61.766 1.09416 61.783C0.711866 61.805 0.423036 62.0414 0.44698 62.3219C0.553123 63.3066 0.728981 64.3077 0.95838 65.2834C0.99809 65.4407 1.13063 65.5649 1.3059 65.6358C1.44362 65.6914 1.60983 65.7115 1.77238 65.6948C2.1564 65.6499 2.4148 65.3894 2.34444 65.1255C2.11332 64.1727 1.94824 63.1995 1.84577 62.2516L1.85289 62.2427ZM29.9699 25.8814C30.0362 25.9435 30.1042 25.9827 30.1918 26.0181C30.4297 26.1143 30.7209 26.1025 30.9422 25.9918C32.036 25.4332 33.1619 24.8759 34.3201 24.3198C34.6413 24.1671 34.7227 23.8586 34.5077 23.6304C34.2927 23.4023 33.8584 23.3444 33.5372 23.4971C32.3594 24.0571 31.2138 24.6182 30.1129 25.1857C29.8042 25.3435 29.7353 25.657 29.9574 25.8763L29.9699 25.8814ZM3.59776 50.7751C3.70787 50.5135 3.50346 50.2308 3.12808 50.1614C2.75983 50.0832 2.37428 50.2335 2.26418 50.4951C1.86283 51.4512 1.52409 52.4327 1.25139 53.3938C1.19655 53.6071 1.34181 53.8189 1.5922 53.9201C1.6548 53.9454 1.71741 53.9707 1.79425 53.9782C2.16424 54.0335 2.53899 53.8554 2.61693 53.5926C2.8879 52.6543 3.21779 51.7046 3.59776 50.7751ZM27.7717 27.0531C27.53 26.8376 27.0939 26.8027 26.7978 26.9655C25.6862 27.5875 24.6069 28.2108 23.5597 28.8353C23.2689 29.0121 23.2322 29.3269 23.4811 29.5334C23.5294 29.5765 23.5974 29.6158 23.6726 29.6461C23.9229 29.7473 24.2463 29.7368 24.4764 29.5943C25.504 28.9737 26.5637 28.3542 27.6681 27.7411C27.9714 27.5694 28.0206 27.2596 27.7914 27.0492L27.7717 27.0531ZM1.98104 56.4553C2.02142 56.1773 1.74923 55.9378 1.35787 55.9091C0.966521 55.8804 0.62933 56.0737 0.588947 56.3517C0.443177 57.3406 0.354607 58.3408 0.33037 59.3434C0.329065 59.5312 0.465262 59.6922 0.690617 59.7833C0.790775 59.8238 0.905185 59.8465 1.02132 59.8464C1.41441 59.8522 1.72116 59.6348 1.72938 59.3556C1.75728 58.3897 1.83699 57.4213 1.97391 56.4642L1.98104 56.4553ZM41.5858 20.5462C41.3976 20.3053 40.965 20.2246 40.6188 20.3672C39.3998 20.8752 38.2129 21.3844 37.0457 21.8897C36.712 22.0374 36.6181 22.3408 36.8259 22.5779C36.8851 22.6489 36.971 22.7071 37.0711 22.7476C37.284 22.8336 37.5609 22.8396 37.7876 22.7429C38.9423 22.2325 40.122 21.7322 41.3213 21.2281C41.6605 21.0944 41.774 20.7871 41.5662 20.55L41.5858 20.5462ZM123.179 112.589C121.793 112.582 120.421 112.557 119.048 112.532C118.655 112.526 118.336 112.738 118.328 113.018C118.327 113.205 118.468 113.38 118.681 113.466C118.781 113.507 118.896 113.53 119.012 113.529C120.384 113.554 121.776 113.575 123.175 113.588C123.555 113.588 123.882 113.367 123.883 113.097C123.884 112.826 123.573 112.595 123.192 112.594L123.179 112.589ZM106.662 112.022C105.275 111.933 103.908 111.839 102.548 111.737C102.157 111.708 101.82 111.902 101.779 112.18C101.751 112.38 101.898 112.569 102.136 112.665C102.211 112.696 102.306 112.722 102.402 112.726C103.775 112.833 105.162 112.923 106.548 113.013C106.927 113.036 107.271 112.834 107.305 112.565C107.338 112.296 107.053 112.051 106.674 112.027L106.662 112.022ZM114.916 112.415C113.525 112.371 112.15 112.31 110.793 112.244C110.407 112.23 110.076 112.437 110.042 112.706C110.021 112.898 110.175 113.078 110.401 113.169C110.488 113.204 110.59 113.222 110.699 113.231C112.075 113.292 113.451 113.354 114.854 113.403C115.24 113.418 115.559 113.205 115.58 112.931C115.601 112.657 115.309 112.421 114.916 112.415ZM82.158 109.405C80.7996 109.198 79.4554 108.972 78.1309 108.743C77.7555 108.674 77.3754 108.838 77.2903 109.11C77.2158 109.327 77.3665 109.552 77.6294 109.659C77.6795 109.679 77.7421 109.704 77.8064 109.707C79.1434 109.941 80.4947 110.158 81.8657 110.37C82.2482 110.431 82.6158 110.261 82.7008 109.99C82.7859 109.718 82.5476 109.457 82.1651 109.396L82.158 109.405ZM98.4451 111.397C97.0673 111.276 95.7037 111.137 94.3472 110.989C93.963 110.951 93.6008 111.134 93.5479 111.407C93.5001 111.612 93.6525 111.815 93.8904 111.911C93.9655 111.941 94.0477 111.963 94.1371 111.975C95.4936 112.123 96.8768 112.258 98.2547 112.38C98.6389 112.417 98.9957 112.22 99.029 111.951C99.0819 111.678 98.8043 111.425 98.4255 111.401L98.4451 111.397ZM90.2724 110.531C88.898 110.364 87.5504 110.184 86.2028 110.004C85.8257 109.958 85.4581 110.127 85.373 110.399C85.3181 110.612 85.4634 110.824 85.7138 110.925C85.7764 110.95 85.839 110.976 85.9355 110.979C87.2956 111.164 88.6558 111.349 90.0301 111.516C90.4073 111.562 90.7695 111.379 90.8349 111.111C90.9003 110.843 90.6424 110.586 90.2653 110.54L90.2724 110.531ZM131.453 112.543C130.058 112.567 128.69 112.579 127.321 112.591C126.94 112.59 126.627 112.817 126.625 113.087C126.624 113.275 126.767 113.427 126.98 113.513C127.08 113.553 127.207 113.581 127.331 113.572C128.712 113.565 130.1 113.549 131.495 113.525C131.883 113.517 132.184 113.285 132.185 113.015C132.174 112.74 131.848 112.526 131.468 112.525L131.453 112.543ZM147.964 111.835C146.583 111.924 145.21 112.004 143.836 112.085C143.454 112.107 143.165 112.343 143.189 112.624C143.202 112.794 143.352 112.937 143.54 113.013C143.652 113.059 143.799 113.083 143.935 113.079C145.309 112.998 146.695 112.923 148.083 112.824C148.465 112.802 148.749 112.552 148.718 112.28C148.686 112.009 148.334 111.808 147.952 111.83L147.964 111.835ZM156.967 111.624C156.916 111.356 156.564 111.155 156.187 111.191C154.809 111.317 153.446 111.425 152.084 111.534C151.694 111.565 151.418 111.806 151.461 112.083C151.494 112.249 151.619 112.382 151.807 112.458C151.932 112.509 152.079 112.532 152.234 112.525C153.597 112.416 154.98 112.304 156.357 112.178C156.734 112.142 157.017 111.892 156.967 111.624ZM139.711 112.29C138.319 112.351 136.954 112.4 135.577 112.443C135.189 112.451 134.888 112.683 134.912 112.963C134.918 113.142 135.061 113.294 135.261 113.375C135.374 113.421 135.501 113.449 135.637 113.445C137.014 113.401 138.399 113.348 139.79 113.287C140.185 113.27 140.474 113.033 140.443 112.762C140.412 112.49 140.086 112.276 139.704 112.298L139.711 112.29ZM36.2843 96.5968C35.1109 96.0754 33.9643 95.5413 32.8319 94.9895C32.5098 94.8122 32.0777 94.8965 31.8674 95.1176C31.65 95.3476 31.7366 95.6534 32.0478 95.8027C33.1802 96.3546 34.3519 96.8988 35.5378 97.4252L35.5628 97.4354C35.8884 97.5669 36.2937 97.4953 36.504 97.2742C36.7089 97.0392 36.6098 96.7284 36.2914 96.5879L36.2843 96.5968ZM119.35 2.54485C119.734 2.49993 119.98 2.23437 119.917 1.96159C119.846 1.6977 119.479 1.51415 119.095 1.55906C117.72 1.74486 116.365 1.92683 115.021 2.11385C114.643 2.17272 114.392 2.42433 114.467 2.70217C114.514 2.8506 114.634 2.96974 114.809 3.04059C114.947 3.09625 115.126 3.12141 115.296 3.09581C116.639 2.90878 117.994 2.72682 119.37 2.54102L119.35 2.54485ZM110.939 2.70038C109.569 2.90013 108.211 3.10494 106.879 3.31987C106.5 3.37874 106.255 3.6443 106.337 3.91325C106.384 4.06168 106.511 4.17193 106.674 4.23772C106.824 4.29844 106.991 4.31853 107.173 4.29799C108.505 4.08306 109.855 3.88714 111.225 3.68739C111.604 3.62852 111.843 3.37185 111.767 3.09401C111.684 2.82506 111.31 2.6504 110.931 2.70927L110.939 2.70038ZM74.1286 108.008C72.7933 107.751 71.4651 107.485 70.1566 107.215C69.7883 107.137 69.4028 107.287 69.2927 107.549C69.1986 107.77 69.335 108.013 69.6104 108.124C69.6605 108.145 69.698 108.16 69.7552 108.171C71.0763 108.446 72.417 108.717 73.7648 108.98C74.1402 109.049 74.5258 108.899 74.6233 108.632C74.7209 108.365 74.4969 108.086 74.134 108.022L74.1286 108.008ZM43.4171 99.5269C42.4764 99.1702 41.5553 98.8097 40.6539 98.4454L39.8151 98.1063C39.5306 97.9442 39.052 98.0451 38.8597 98.2852C38.6673 98.5253 38.7735 98.8273 39.1115 98.9639L39.9629 99.308C40.8768 99.6774 41.8033 100.052 42.7636 100.405C43.1016 100.541 43.5284 100.443 43.7082 100.198C43.9006 99.9578 43.7676 99.6686 43.4171 99.5269ZM29.49 93.2855C28.3736 92.693 27.2965 92.0928 26.239 91.4888C25.942 91.3217 25.4954 91.3413 25.253 91.5611C24.998 91.776 25.0453 92.0894 25.3548 92.2616C26.4177 92.8795 27.5198 93.4898 28.6488 94.0874C28.6738 94.0975 28.6988 94.1077 28.7239 94.1178C29.0243 94.2392 29.4155 94.1854 29.6312 93.9783C29.8611 93.7533 29.7942 93.4438 29.49 93.2855ZM102.83 3.96727C101.471 4.19493 100.112 4.42259 98.7852 4.65147C98.4119 4.72429 98.1857 4.98602 98.2686 5.25497C98.3225 5.39451 98.4372 5.4997 98.5999 5.56549C98.7501 5.62621 98.9289 5.65136 99.1057 5.61687C100.433 5.38798 101.779 5.15526 103.131 4.9365C103.51 4.87763 103.743 4.607 103.66 4.33805C103.577 4.06911 103.196 3.90334 102.818 3.96221L102.83 3.96727ZM58.4359 104.385C57.1467 104.029 55.8648 103.663 54.6024 103.294C54.243 103.185 53.8342 103.302 53.6919 103.562C53.5514 103.8 53.686 104.066 53.9865 104.187C54.0116 104.198 54.0366 104.208 54.0616 104.218C55.3294 104.601 56.6114 104.966 57.9326 105.323C58.2992 105.424 58.7026 105.293 58.8378 105.042C58.98 104.781 58.8078 104.5 58.4413 104.399L58.4359 104.385ZM66.2165 106.341C64.9043 106.034 63.5921 105.727 62.3012 105.394C61.9401 105.307 61.5367 105.438 61.414 105.695C61.2931 105.928 61.4421 106.177 61.73 106.293C61.7676 106.308 61.8051 106.324 61.8427 106.339C63.1407 106.663 64.4583 106.984 65.7901 107.287C66.1513 107.374 66.5493 107.229 66.6791 106.963C66.8017 106.707 66.5973 106.424 66.2362 106.337L66.2165 106.341ZM128.09 0.944631C128.027 0.671851 127.66 0.488299 127.288 0.538275C125.915 0.701225 124.541 0.864175 123.193 1.03725C122.809 1.08216 122.55 1.34267 122.626 1.62051C122.666 1.77783 122.798 1.90203 122.974 1.97288C123.111 2.02854 123.278 2.04863 123.44 2.03193C124.789 1.85885 126.142 1.69974 127.516 1.53679C127.9 1.49187 128.158 1.23137 128.088 0.967478L128.09 0.944631ZM50.8081 102.114C49.542 101.708 48.3028 101.29 47.0778 100.853C46.7255 100.735 46.3113 100.838 46.1386 101.074C45.9784 101.316 46.0988 101.6 46.4118 101.726L46.4494 101.741C47.6815 102.169 48.9458 102.597 50.2243 103.008C50.5766 103.127 50.9855 103.01 51.1528 102.76C51.3201 102.509 51.1478 102.228 50.8027 102.1L50.8081 102.114Z" fill="#3A556A" fill-opacity="0.2"/>
</svg>
