<svg width="180" height="131" viewBox="0 0 180 131" fill="none" xmlns="http://www.w3.org/2000/svg">
<path d="M67.2399 55.0538C67.2836 55.0192 67.3189 54.9751 67.3431 54.9249C67.3673 54.8746 67.3799 54.8196 67.3799 54.7638L66.9899 47.7638L70.3599 45.7038C70.6129 45.551 70.8331 45.3495 71.0079 45.1112C71.1827 44.8728 71.3085 44.6022 71.3783 44.315C71.448 44.0277 71.4601 43.7296 71.4141 43.4376C71.368 43.1456 71.2646 42.8657 71.1099 42.6138L69.8399 40.5238C69.5274 40.0143 69.0258 39.6493 68.4448 39.5087C67.8638 39.3681 67.2508 39.4635 66.7399 39.7738L66.5599 39.8838L65.7699 25.5038L81.7699 17.2538C82.6074 16.7439 83.3356 16.0731 83.9123 15.2802C84.489 14.4872 84.9029 13.5877 85.1299 12.6338L85.1899 12.3638L87.3499 8.93384C87.7078 8.35738 87.8975 7.69235 87.8975 7.01382C87.8975 6.3353 87.7078 5.67027 87.3499 5.09381C86.996 4.51164 86.4863 4.04014 85.8784 3.73264C85.2704 3.42513 84.5886 3.29391 83.9099 3.35382L79.9099 3.70383C78.9187 3.42115 77.8795 3.34808 76.8585 3.48926C75.8375 3.63044 74.8572 3.98279 73.9799 4.52383L59.2399 14.9338L46.8199 7.65381L46.9999 7.54382C47.5095 7.23133 47.8745 6.72967 48.015 6.14868C48.1556 5.56769 48.0603 4.95468 47.7499 4.44382L46.4799 2.35382C46.1656 1.84631 45.664 1.48302 45.0838 1.34265C44.5036 1.20227 43.8914 1.29611 43.3799 1.60382L40.0099 3.66382L34.0099 0.123838C33.9591 0.0967015 33.9025 0.0825172 33.8449 0.0825172C33.7873 0.0825172 33.7307 0.0967015 33.6799 0.123838L27.9599 3.07382C27.9056 3.10388 27.8598 3.14713 27.8266 3.19955C27.7934 3.25198 27.7739 3.31188 27.7699 3.37381C27.7551 3.43289 27.7551 3.49475 27.7699 3.55383C27.8029 3.60375 27.8475 3.64493 27.8999 3.67383L30.8399 5.31381L32.9499 7.96383L31.4299 8.89383C31.3917 8.91734 31.3585 8.94818 31.3322 8.98459C31.306 9.02099 31.2872 9.06223 31.277 9.10592C31.2668 9.14962 31.2653 9.1949 31.2727 9.23916C31.28 9.28343 31.2961 9.3258 31.3199 9.36383L31.4899 9.64383L30.1699 10.4538C29.9479 10.5923 29.789 10.8122 29.7274 11.0665C29.6657 11.3207 29.7061 11.589 29.8399 11.8138L31.7299 14.9138C31.8684 15.1358 32.0883 15.2947 32.3426 15.3564C32.5968 15.418 32.8651 15.3777 33.0899 15.2438L34.4099 14.4338L34.5799 14.7138C34.6276 14.7907 34.7031 14.8461 34.7907 14.8684C34.8784 14.8908 34.9712 14.8784 35.0499 14.8338L37.2999 13.4538L45.9699 24.3638L33.0699 33.5438L24.6199 30.0238L20.9999 31.8838L26.6699 38.1938L24.3499 40.8838L26.7199 44.7738L30.1099 43.8438L33.1099 51.7538L36.4199 49.3938L37.1599 40.2638L51.5099 32.8438L56.9599 45.6938L54.6999 47.0738C54.6237 47.1196 54.5686 47.1934 54.5461 47.2794C54.5237 47.3653 54.5358 47.4567 54.5799 47.5338L54.7599 47.8238L53.4299 48.6338C53.2123 48.7737 53.0574 48.9926 52.9977 49.2443C52.938 49.496 52.9782 49.7611 53.1099 49.9838L54.9999 53.0838C55.1382 53.3031 55.3564 53.4601 55.6082 53.5217C55.8601 53.5832 56.126 53.5446 56.3499 53.4138L57.6799 52.6138L57.8499 52.8938C57.8734 52.932 57.9043 52.9652 57.9407 52.9915C57.9771 53.0177 58.0183 53.0365 58.062 53.0467C58.1057 53.0569 58.151 53.0584 58.1952 53.0511C58.2395 53.0437 58.2819 53.0276 58.3199 53.0038L59.8399 52.0838L61.2299 55.1638L61.3399 58.5338C61.3459 58.5931 61.3628 58.6508 61.3899 58.7038C61.4265 58.7569 61.4743 58.8013 61.5299 58.8338C61.5834 58.8636 61.6436 58.8792 61.7049 58.8792C61.7661 58.8792 61.8264 58.8636 61.8799 58.8338L67.2399 55.0538ZM40.7499 4.05383L43.7499 2.19382C44.1068 1.97558 44.5356 1.90777 44.9424 2.00525C45.3492 2.10273 45.7007 2.35756 45.9199 2.71383L47.1999 4.80383C47.4146 5.16257 47.4794 5.59142 47.3802 5.99756C47.281 6.4037 47.0258 6.75443 46.6699 6.97381L46.1799 7.27383L43.4399 5.66382L40.7499 4.05383ZM32.8199 14.6638C32.7506 14.705 32.668 14.7176 32.5896 14.6989C32.5112 14.6803 32.4432 14.6318 32.3999 14.5638L30.5099 11.4538C30.4882 11.4199 30.4735 11.3819 30.4668 11.3422C30.46 11.3025 30.4614 11.2618 30.4707 11.2226C30.48 11.1834 30.4972 11.1465 30.5211 11.114C30.545 11.0816 30.5752 11.0543 30.6099 11.0338L31.9299 10.2238L34.1499 13.8538L32.8199 14.6638ZM35.0799 14.0738L32.1599 9.29382L33.4599 8.50381L36.9699 12.9238L35.0799 14.0738ZM37.7399 12.8038L33.8099 7.80383L31.4299 4.80383C31.4015 4.76877 31.3677 4.7384 31.3299 4.71383L28.8799 3.35382L33.8799 0.773801L42.8799 6.03381L46.0899 7.92383L58.7299 15.3338L46.5899 23.8938L37.7399 12.8038ZM67.0899 40.3738C67.4468 40.1556 67.8756 40.0878 68.2824 40.1853C68.6892 40.2827 69.0407 40.5376 69.2599 40.8938L70.5299 42.9838C70.7481 43.3407 70.816 43.7695 70.7185 44.1763C70.621 44.5831 70.3662 44.9346 70.0099 45.1538L66.9499 47.0138L66.7799 43.8438L66.5999 40.6638L67.0899 40.3738ZM83.9799 4.03381C84.5334 3.97927 85.0909 4.08395 85.587 4.33551C86.083 4.58707 86.4969 4.97505 86.7799 5.45383C87.0758 5.92218 87.2329 6.46483 87.2329 7.01883C87.2329 7.57283 87.0758 8.11548 86.7799 8.58383L85.3499 10.8638L85.3499 10.7638C85.3498 10.5027 85.3297 10.2419 85.2899 9.98383C85.2996 9.90747 85.2996 9.83017 85.2899 9.75381C85.2501 9.45999 85.19 9.16929 85.1099 8.88382L85.1099 8.80383C85.0299 8.53923 84.9365 8.27889 84.8299 8.02383L84.7299 7.81381C84.6099 7.53388 84.4696 7.26315 84.3099 7.00381C84.1499 6.74381 83.9699 6.49381 83.7899 6.25381L83.6399 6.07382C83.4603 5.86097 83.2701 5.65738 83.0699 5.46384L83.0199 5.41382C82.798 5.21329 82.5642 5.02629 82.3199 4.85382L82.1399 4.72382C81.9214 4.57406 81.6943 4.43716 81.4599 4.31381C81.4356 4.29361 81.4087 4.2768 81.3799 4.26382L83.9799 4.03381ZM79.7599 4.37381C81.3901 4.84928 82.7822 5.92007 83.6599 7.37381C84.5426 8.82619 84.8494 10.5565 84.5199 12.2238L84.4599 12.5038C84.0396 14.2525 82.9427 15.763 81.4099 16.7038L65.2699 25.0438L51.6399 32.0438L30.5299 42.9638L29.6099 41.4538C32.1099 39.9205 34.6099 38.3938 37.1099 36.8738C37.3276 36.7354 37.4833 36.5183 37.5447 36.2678C37.6061 36.0173 37.5683 35.7527 37.4392 35.5294C37.3101 35.3061 37.0998 35.1414 36.852 35.0695C36.6043 34.9977 36.3384 35.0243 36.1099 35.1438L28.5999 39.7138L27.7099 38.2538L59.4699 15.6638L59.5799 15.5938L74.2399 5.08383C75.0531 4.58486 75.9622 4.26285 76.9082 4.13879C77.8541 4.01474 78.8156 4.09142 79.7299 4.36383L79.7599 4.37381ZM22.1799 32.0838L24.7399 30.7638L32.3999 33.9538L27.2999 37.7038L27.2999 37.6238L27.2499 37.6838L22.1799 32.0838ZM27.1199 43.9838L25.2699 40.9838L27.1599 38.7938L27.9699 40.1338C27.7405 40.2744 27.5763 40.5003 27.5135 40.7619C27.4507 41.0235 27.4943 41.2994 27.6349 41.5288C27.7754 41.7582 28.0014 41.9224 28.263 41.9852C28.5246 42.0481 28.8005 42.0044 29.0299 41.8638L29.8799 43.2538L27.1199 43.9838ZM35.8799 48.9838L33.5399 50.6538L30.8499 43.6538L30.9299 43.6538L30.9299 43.5838L36.5899 40.7638L35.8799 48.9838ZM56.1099 52.8038C56.0394 52.8441 55.956 52.8552 55.8774 52.8346C55.7989 52.8141 55.7316 52.7635 55.6899 52.6938L53.7899 49.5938C53.7684 49.5585 53.7541 49.5192 53.748 49.4783C53.7419 49.4374 53.744 49.3957 53.7543 49.3557C53.7645 49.3156 53.7827 49.2779 53.8077 49.245C53.8327 49.212 53.8641 49.1845 53.8999 49.1638L55.2199 48.3638L57.4399 51.9938L56.1099 52.8038ZM58.3599 52.2138L55.4499 47.4338L57.3399 46.2738L57.5599 46.7538L59.6699 51.4238L58.3599 52.2138ZM62.0199 55.0338L62.0199 54.9138L60.4499 51.4138L57.8399 45.6538L52.2399 32.5438L63.7599 26.5438L65.1199 25.8338L65.9299 40.4738L66.1399 44.1338L66.7099 54.5938L62.1299 57.8538L62.0199 55.0338Z" fill="#999999"/>
<path d="M159.24 96.0538C159.284 96.0192 159.319 95.9751 159.343 95.9249C159.367 95.8746 159.38 95.8196 159.38 95.7638L158.99 88.7638L162.36 86.7038C162.613 86.551 162.833 86.3495 163.008 86.1112C163.183 85.8728 163.309 85.6022 163.378 85.315C163.448 85.0277 163.46 84.7296 163.414 84.4376C163.368 84.1456 163.265 83.8657 163.11 83.6138L161.84 81.5238C161.527 81.0143 161.026 80.6493 160.445 80.5087C159.864 80.3681 159.251 80.4635 158.74 80.7738L158.56 80.8838L157.77 66.5038L173.77 58.2538C174.607 57.7439 175.336 57.0731 175.912 56.2802C176.489 55.4872 176.903 54.5877 177.13 53.6338L177.19 53.3638L179.35 49.9338C179.708 49.3574 179.897 48.6923 179.897 48.0138C179.897 47.3353 179.708 46.6703 179.35 46.0938C178.996 45.5116 178.486 45.0401 177.878 44.7326C177.27 44.4251 176.589 44.2939 175.91 44.3538L171.91 44.7038C170.919 44.4211 169.88 44.3481 168.859 44.4893C167.838 44.6304 166.857 44.9828 165.98 45.5238L151.24 55.9338L138.82 48.6538L139 48.5438C139.509 48.2313 139.874 47.7297 140.015 47.1487C140.156 46.5677 140.06 45.9547 139.75 45.4438L138.48 43.3538C138.166 42.8463 137.664 42.483 137.084 42.3426C136.504 42.2023 135.891 42.2961 135.38 42.6038L132.01 44.6638L126.01 41.1238C125.959 41.0967 125.902 41.0825 125.845 41.0825C125.787 41.0825 125.731 41.0967 125.68 41.1238L119.96 44.0738C119.906 44.1039 119.86 44.1471 119.827 44.1996C119.793 44.252 119.774 44.3119 119.77 44.3738C119.755 44.4329 119.755 44.4947 119.77 44.5538C119.803 44.6038 119.848 44.6449 119.9 44.6738L122.84 46.3138L124.95 48.9638L123.43 49.8938C123.392 49.9173 123.358 49.9482 123.332 49.9846C123.306 50.021 123.287 50.0622 123.277 50.1059C123.267 50.1496 123.265 50.1949 123.273 50.2392C123.28 50.2834 123.296 50.3258 123.32 50.3638L123.49 50.6438L122.17 51.4538C121.948 51.5923 121.789 51.8122 121.727 52.0665C121.666 52.3207 121.706 52.589 121.84 52.8138L123.73 55.9138C123.868 56.1358 124.088 56.2947 124.343 56.3564C124.597 56.418 124.865 56.3777 125.09 56.2438L126.41 55.4338L126.58 55.7138C126.628 55.7907 126.703 55.8461 126.791 55.8684C126.878 55.8908 126.971 55.8784 127.05 55.8338L129.3 54.4538L137.97 65.3638L125.07 74.5438L116.62 71.0238L113 72.8838L118.67 79.1938L116.35 81.8838L118.72 85.7738L122.11 84.8438L125.11 92.7538L128.42 90.3938L129.16 81.2638L143.51 73.8438L148.96 86.6938L146.7 88.0738C146.624 88.1196 146.569 88.1934 146.546 88.2794C146.524 88.3653 146.536 88.4567 146.58 88.5338L146.76 88.8238L145.43 89.6338C145.212 89.7737 145.057 89.9926 144.998 90.2443C144.938 90.496 144.978 90.7611 145.11 90.9838L147 94.0838C147.138 94.3031 147.356 94.4601 147.608 94.5217C147.86 94.5832 148.126 94.5446 148.35 94.4138L149.68 93.6138L149.85 93.8938C149.873 93.932 149.904 93.9652 149.941 93.9915C149.977 94.0177 150.018 94.0365 150.062 94.0467C150.106 94.0569 150.151 94.0584 150.195 94.0511C150.239 94.0437 150.282 94.0276 150.32 94.0038L151.84 93.0838L153.23 96.1638L153.34 99.5338C153.346 99.5931 153.363 99.6508 153.39 99.7038C153.426 99.7569 153.474 99.8013 153.53 99.8338C153.583 99.8636 153.644 99.8792 153.705 99.8792C153.766 99.8792 153.826 99.8636 153.88 99.8338L159.24 96.0538ZM132.75 45.0538L135.75 43.1938C136.107 42.9756 136.536 42.9078 136.942 43.0052C137.349 43.1027 137.701 43.3576 137.92 43.7138L139.2 45.8038C139.415 46.1626 139.479 46.5914 139.38 46.9976C139.281 47.4037 139.026 47.7544 138.67 47.9738L138.18 48.2738L135.44 46.6638L132.75 45.0538ZM124.82 55.6638C124.751 55.705 124.668 55.7176 124.59 55.6989C124.511 55.6803 124.443 55.6318 124.4 55.5638L122.51 52.4538C122.488 52.4199 122.473 52.3819 122.467 52.3422C122.46 52.3025 122.461 52.2618 122.471 52.2226C122.48 52.1834 122.497 52.1465 122.521 52.114C122.545 52.0816 122.575 52.0543 122.61 52.0338L123.93 51.2238L126.15 54.8538L124.82 55.6638ZM127.08 55.0738L124.16 50.2938L125.46 49.5038L128.97 53.9238L127.08 55.0738ZM129.74 53.8038L125.81 48.8038L123.43 45.8038C123.401 45.7688 123.368 45.7384 123.33 45.7138L120.88 44.3538L125.88 41.7738L134.88 47.0338L138.09 48.9238L150.73 56.3338L138.59 64.8938L129.74 53.8038ZM159.09 81.3738C159.447 81.1556 159.876 81.0878 160.282 81.1853C160.689 81.2827 161.041 81.5376 161.26 81.8938L162.53 83.9838C162.748 84.3407 162.816 84.7695 162.718 85.1763C162.621 85.5831 162.366 85.9346 162.01 86.1538L158.95 88.0138L158.78 84.8438L158.6 81.6638L159.09 81.3738ZM175.98 45.0338C176.533 44.9793 177.091 45.084 177.587 45.3355C178.083 45.5871 178.497 45.9751 178.78 46.4538C179.076 46.9222 179.233 47.4648 179.233 48.0188C179.233 48.5728 179.076 49.1155 178.78 49.5838L177.35 51.8638L177.35 51.7638C177.35 51.5027 177.33 51.2419 177.29 50.9838C177.3 50.9075 177.3 50.8302 177.29 50.7538C177.25 50.46 177.19 50.1693 177.11 49.8838L177.11 49.8038C177.03 49.5392 176.936 49.2789 176.83 49.0238L176.73 48.8138C176.61 48.5339 176.47 48.2632 176.31 48.0038C176.15 47.7438 175.97 47.4938 175.79 47.2538L175.64 47.0738C175.46 46.861 175.27 46.6574 175.07 46.4638L175.02 46.4138C174.798 46.2133 174.564 46.0263 174.32 45.8538L174.14 45.7238C173.921 45.5741 173.694 45.4372 173.46 45.3138C173.436 45.2936 173.409 45.2768 173.38 45.2638L175.98 45.0338ZM171.76 45.3738C173.39 45.8493 174.782 46.9201 175.66 48.3738C176.543 49.8262 176.849 51.5565 176.52 53.2238L176.46 53.5038C176.04 55.2525 174.943 56.763 173.41 57.7038L157.27 66.0438L143.64 73.0438L122.53 83.9638L121.61 82.4538C124.11 80.9205 126.61 79.3938 129.11 77.8738C129.328 77.7354 129.483 77.5183 129.545 77.2678C129.606 77.0173 129.568 76.7527 129.439 76.5294C129.31 76.3061 129.1 76.1414 128.852 76.0695C128.604 75.9977 128.338 76.0243 128.11 76.1438L120.6 80.7138L119.71 79.2538L151.47 56.6638L151.58 56.5938L166.24 46.0838C167.053 45.5849 167.962 45.2629 168.908 45.1388C169.854 45.0147 170.816 45.0914 171.73 45.3638L171.76 45.3738ZM114.18 73.0838L116.74 71.7638L124.4 74.9538L119.3 78.7038L119.3 78.6238L119.25 78.6838L114.18 73.0838ZM119.12 84.9838L117.27 81.9838L119.16 79.7938L119.97 81.1338C119.74 81.2744 119.576 81.5003 119.513 81.7619C119.451 82.0235 119.494 82.2994 119.635 82.5288C119.775 82.7582 120.001 82.9224 120.263 82.9852C120.525 83.0481 120.8 83.0044 121.03 82.8638L121.88 84.2538L119.12 84.9838ZM127.88 89.9838L125.54 91.6538L122.85 84.6538L122.93 84.6538L122.93 84.5838L128.59 81.7638L127.88 89.9838ZM148.11 93.8038C148.039 93.8441 147.956 93.8552 147.877 93.8346C147.799 93.8141 147.732 93.7635 147.69 93.6938L145.79 90.5938C145.768 90.5585 145.754 90.5192 145.748 90.4783C145.742 90.4374 145.744 90.3957 145.754 90.3557C145.765 90.3156 145.783 90.2779 145.808 90.245C145.833 90.212 145.864 90.1845 145.9 90.1638L147.22 89.3638L149.44 92.9938L148.11 93.8038ZM150.36 93.2138L147.45 88.4338L149.34 87.2738L149.56 87.7538L151.67 92.4238L150.36 93.2138ZM154.02 96.0338L154.02 95.9138L152.45 92.4138L149.84 86.6538L144.24 73.5438L155.76 67.5438L157.12 66.8338L157.93 81.4738L158.14 85.1338L158.71 95.5938L154.13 98.8538L154.02 96.0338Z" fill="#999999"/>
<path d="M10.0145 91.3726L9.81 90.6096C9.79888 90.5681 9.7962 90.5249 9.80211 90.4824C9.80802 90.44 9.82241 90.3991 9.84442 90.3623C9.86643 90.3255 9.89561 90.2935 9.93023 90.2682C9.96484 90.2429 10.0042 90.2248 10.0459 90.215C10.0873 90.2039 10.1306 90.2013 10.173 90.2072C10.2155 90.2131 10.2563 90.2274 10.2931 90.2495C10.3299 90.2715 10.362 90.3006 10.3873 90.3353C10.4126 90.3699 10.4306 90.4092 10.4404 90.451C10.6087 91.0788 10.7743 91.697 10.9374 92.3055C10.9623 92.3878 10.9541 92.4765 10.9146 92.5528C10.8751 92.6291 10.8074 92.687 10.7259 92.7142C10.6421 92.7368 10.5528 92.7265 10.4764 92.6854C10.3999 92.6443 10.3421 92.5755 10.3147 92.4931L10.0145 91.3726ZM9.41742 88.7581C9.24918 88.1302 9.18721 87.4739 9.09625 86.8253C9.09011 86.7833 9.09238 86.7405 9.10294 86.6994C9.11349 86.6583 9.13212 86.6197 9.15774 86.5859C9.18335 86.552 9.21545 86.5236 9.25215 86.5023C9.28885 86.481 9.32943 86.4672 9.37152 86.4617C9.41351 86.4556 9.45631 86.4578 9.49742 86.4684C9.53853 86.4789 9.57713 86.4976 9.61097 86.5232C9.64481 86.5488 9.67322 86.5809 9.69454 86.6176C9.71586 86.6543 9.72966 86.6949 9.73515 86.737C9.82351 87.3759 9.93121 88.0096 10.0556 88.6285C10.0704 88.7133 10.0515 88.8006 10.0028 88.8717C9.95418 88.9427 9.87967 88.992 9.7952 89.0089C9.75392 89.0173 9.71138 89.0175 9.67003 89.0094C9.62868 89.0014 9.58933 88.9852 9.55423 88.9619C9.51914 88.9386 9.48899 88.9086 9.46551 88.8736C9.44203 88.8387 9.42568 88.7994 9.41742 88.7581ZM10.9212 94.3701C10.8996 94.292 10.9076 94.2087 10.9435 94.1361C10.9794 94.0635 11.0407 94.0066 11.1159 93.9763C11.1975 93.9487 11.2866 93.954 11.3643 93.9913C11.442 94.0285 11.502 94.0946 11.5316 94.1755C11.7119 94.6552 11.8967 95.1129 12.1085 95.5945L12.2552 95.9486C12.2729 95.9874 12.2827 96.0294 12.284 96.0721C12.2853 96.1147 12.2781 96.1572 12.2627 96.197C12.2473 96.2368 12.2241 96.2732 12.1945 96.3039C12.1648 96.3346 12.1294 96.3591 12.0901 96.3759C12.0125 96.4086 11.9251 96.4093 11.8469 96.3779C11.7687 96.3465 11.706 96.2856 11.6725 96.2083L11.5162 95.8568C11.3069 95.3848 11.1222 94.9271 10.9289 94.3991L10.9212 94.3701ZM8.82666 84.9306L8.81371 84.8822C8.75691 84.2452 8.7046 83.5863 8.67419 82.9319C8.67137 82.8473 8.70118 82.7648 8.75745 82.7016C8.81373 82.6383 8.89215 82.5991 8.97652 82.5921C9.01972 82.589 9.06311 82.5948 9.10402 82.609C9.14494 82.6232 9.18254 82.6456 9.21455 82.6748C9.24657 82.7039 9.27233 82.7393 9.29028 82.7787C9.30822 82.8181 9.31797 82.8608 9.31894 82.9041C9.35643 83.5463 9.39391 84.1885 9.46038 84.8229C9.46784 84.9073 9.4415 84.9913 9.38711 85.0563C9.33272 85.1214 9.25472 85.1622 9.17028 85.1698C9.10022 85.1659 9.03335 85.1392 8.97999 85.0936C8.92663 85.048 8.88973 84.9862 8.87496 84.9176L8.82666 84.9306ZM12.4798 97.9072C12.4616 97.8358 12.4688 97.7603 12.4999 97.6934C12.531 97.6266 12.5843 97.5726 12.6507 97.5405C12.6881 97.5199 12.7293 97.5072 12.7719 97.5033C12.8144 97.4994 12.8573 97.5043 12.8978 97.5178C12.9383 97.5312 12.9757 97.5529 13.0074 97.5814C13.0392 97.61 13.0647 97.6448 13.0824 97.6836C13.3659 98.2392 13.6738 98.8089 14.0011 99.3734C14.0218 99.41 14.0351 99.4504 14.0402 99.4921C14.0453 99.5338 14.0421 99.5762 14.0309 99.6167C14.0196 99.6572 14.0005 99.6951 13.9746 99.7282C13.9487 99.7613 13.9165 99.789 13.8799 99.8097C13.8048 99.8521 13.7161 99.8634 13.6327 99.8412C13.5494 99.8191 13.478 99.7652 13.4339 99.691C13.1067 99.1265 12.7961 98.5471 12.5075 97.9723L12.4798 97.9072ZM8.62814 81.06L8.60744 80.9828C8.61118 80.3399 8.61233 79.6874 8.64245 79.0271C8.646 78.9425 8.68293 78.8627 8.74516 78.8053C8.8074 78.7479 8.88984 78.7174 8.97446 78.7207C9.01678 78.7211 9.05859 78.7301 9.09729 78.7473C9.13598 78.7645 9.17074 78.7894 9.19945 78.8205C9.22815 78.8516 9.25018 78.8882 9.26418 78.9282C9.27818 78.9681 9.28385 79.0105 9.28084 79.0527C9.26745 79.6982 9.25404 80.3436 9.25737 80.9743C9.25917 81.0167 9.25226 81.059 9.23703 81.0986C9.2218 81.1383 9.19862 81.1743 9.16888 81.2046C9.13914 81.2349 9.1035 81.2588 9.06416 81.2747C9.02483 81.2907 8.98262 81.2984 8.94019 81.2974C8.87547 81.2887 8.81513 81.2599 8.76777 81.215C8.72041 81.17 8.68843 81.1113 8.67643 81.0471L8.62814 81.06ZM14.4014 101.254C14.3844 101.187 14.3889 101.116 14.4144 101.052C14.4399 100.987 14.485 100.932 14.5433 100.895C14.615 100.85 14.7016 100.835 14.7842 100.854C14.8668 100.872 14.9387 100.923 14.9841 100.994C15.3255 101.534 15.6862 102.069 16.0637 102.589C16.1106 102.661 16.129 102.747 16.1151 102.831C16.1012 102.915 16.0562 102.991 15.9888 103.044C15.9169 103.093 15.8284 103.112 15.7427 103.096C15.657 103.08 15.581 103.031 15.5314 102.96C15.1539 102.44 14.788 101.885 14.4466 101.345L14.4014 101.254ZM8.76649 77.1718L8.73802 77.0655C8.79265 76.4194 8.85692 75.7706 8.93345 75.1289C8.93808 75.0866 8.95109 75.0457 8.97174 75.0085C8.99238 74.9713 9.02023 74.9386 9.05367 74.9122C9.08711 74.8859 9.12546 74.8665 9.16648 74.8552C9.20749 74.8439 9.25036 74.8409 9.29256 74.8464C9.33486 74.851 9.3758 74.864 9.413 74.8846C9.45021 74.9053 9.48292 74.9331 9.50923 74.9666C9.53555 75 9.55492 75.0384 9.56624 75.0794C9.57755 75.1204 9.58058 75.1633 9.57512 75.2055C9.49601 75.8375 9.42914 76.4765 9.38417 77.1201C9.37647 77.2045 9.33562 77.2823 9.2706 77.3366C9.20558 77.3909 9.1217 77.4172 9.03731 77.4098C8.98356 77.3943 8.93498 77.3647 8.89672 77.3239C8.85845 77.2831 8.83191 77.2327 8.81995 77.1781L8.76649 77.1718ZM16.6449 104.411C16.6296 104.35 16.6314 104.286 16.6501 104.226C16.6688 104.167 16.7036 104.113 16.7508 104.072C16.7858 104.031 16.8304 103.999 16.8808 103.979C16.9311 103.959 16.9855 103.951 17.0393 103.957C17.0931 103.963 17.1446 103.983 17.1892 104.013C17.2338 104.044 17.2702 104.085 17.2952 104.133C17.6868 104.629 18.0906 105.131 18.5112 105.619C18.5391 105.651 18.5603 105.688 18.5737 105.728C18.5871 105.768 18.5924 105.811 18.5893 105.853C18.5862 105.895 18.5747 105.937 18.5555 105.974C18.5364 106.012 18.5099 106.046 18.4776 106.073C18.4121 106.127 18.3284 106.153 18.2438 106.147C18.1592 106.141 18.0803 106.102 18.0234 106.04C17.6003 105.542 17.1842 105.032 16.7803 104.53L16.6449 104.411ZM9.23533 73.3191C9.21507 73.2802 9.20359 73.2374 9.20168 73.1935C9.30977 72.5538 9.42753 71.9114 9.55754 71.2761C9.56519 71.2345 9.58104 71.1947 9.60417 71.1592C9.6273 71.1237 9.65724 71.0932 9.69227 71.0694C9.72729 71.0455 9.76671 71.0289 9.80821 71.0204C9.84972 71.0119 9.8925 71.0117 9.93407 71.0199C10.0194 71.0371 10.0945 71.0874 10.143 71.1597C10.1915 71.2321 10.2094 71.3206 10.1928 71.4061C10.0602 72.0317 9.9399 72.6645 9.83887 73.292C9.83309 73.3337 9.81914 73.3738 9.79783 73.4101C9.77651 73.4464 9.74825 73.4782 9.71465 73.5035C9.68105 73.5289 9.64277 73.5473 9.60203 73.5579C9.56129 73.5684 9.51886 73.5708 9.47719 73.5649C9.42886 73.5431 9.38651 73.5099 9.35372 73.4682C9.32093 73.4266 9.29866 73.3776 9.28881 73.3255L9.23533 73.3191ZM19.1806 107.344C19.1655 107.29 19.1651 107.232 19.1795 107.177C19.1939 107.123 19.2226 107.073 19.2627 107.033C19.2933 107.003 19.3296 106.979 19.3694 106.964C19.4092 106.948 19.4517 106.941 19.4945 106.942C19.5373 106.943 19.5794 106.952 19.6183 106.97C19.6573 106.988 19.6923 107.013 19.7213 107.044C20.1657 107.505 20.6198 107.963 21.1169 108.389C21.1768 108.451 21.2112 108.533 21.2131 108.618C21.215 108.704 21.1843 108.788 21.1271 108.852C21.0979 108.882 21.063 108.907 21.0243 108.924C20.9857 108.94 20.9441 108.949 20.902 108.95C20.8598 108.951 20.818 108.943 20.7788 108.928C20.7396 108.912 20.7039 108.889 20.6736 108.86C20.2029 108.416 19.7463 107.949 19.2677 107.476C19.2367 107.443 19.2122 107.404 19.1954 107.361L19.1806 107.344ZM10.0109 69.5293C9.98284 69.4827 9.96849 69.4291 9.96945 69.3747C10.131 68.7413 10.2952 68.1176 10.498 67.4835C10.525 67.4019 10.5819 67.3336 10.6573 67.2922C10.7326 67.2509 10.8209 67.2397 10.9042 67.2608C10.9858 67.2878 11.0541 67.3447 11.0954 67.4201C11.1367 67.4954 11.148 67.5836 11.1269 67.667C10.9408 68.2862 10.7741 68.9003 10.5906 69.5292C10.5812 69.5709 10.5635 69.6103 10.5385 69.6451C10.5136 69.6799 10.482 69.7093 10.4455 69.7316C10.409 69.7539 10.3684 69.7687 10.3261 69.7751C10.2838 69.7814 10.2407 69.7793 10.1992 69.7687C10.1655 69.7383 10.1387 69.7012 10.1204 69.6597C10.1021 69.6182 10.0929 69.5732 10.0933 69.5279L10.0109 69.5293ZM21.9692 110.024C21.9563 109.972 21.9564 109.917 21.9694 109.865C21.9825 109.813 22.0082 109.764 22.0442 109.724C22.103 109.663 22.1827 109.626 22.2674 109.621C22.3522 109.615 22.4359 109.642 22.5021 109.695C22.9774 110.116 23.4816 110.53 23.9807 110.924C24.0454 110.979 24.0866 111.056 24.0957 111.141C24.1048 111.225 24.0811 111.31 24.0295 111.377C24.0039 111.41 23.9719 111.439 23.9353 111.46C23.8988 111.481 23.8584 111.494 23.8166 111.5C23.7747 111.505 23.7322 111.502 23.6915 111.491C23.6508 111.48 23.6127 111.461 23.5793 111.435C23.068 111.034 22.5612 110.611 22.0737 110.182C22.03 110.145 21.9987 110.096 21.984 110.041L21.9692 110.024ZM11.1511 65.7866C11.1356 65.7238 11.1396 65.6578 11.1624 65.5972C11.3704 64.9825 11.6003 64.3722 11.8327 63.7716C11.8474 63.7305 11.8703 63.6929 11.9001 63.6611C11.9298 63.6293 11.9657 63.6038 12.0056 63.5863C12.0455 63.5689 12.0886 63.5597 12.1321 63.5595C12.1757 63.5592 12.2188 63.5679 12.2589 63.5849C12.298 63.6008 12.3335 63.6244 12.3634 63.6541C12.3934 63.6838 12.4171 63.7192 12.4334 63.7582C12.4496 63.7971 12.4579 63.8389 12.4579 63.8811C12.4579 63.9233 12.4496 63.9651 12.4334 64.004C12.2009 64.6047 11.9677 65.1641 11.7798 65.8149C11.7491 65.8944 11.6889 65.9589 11.6118 65.995C11.5346 66.0311 11.4465 66.036 11.3658 66.0086C11.3184 65.993 11.2755 65.9662 11.2407 65.9305C11.2059 65.8947 11.1802 65.8512 11.1659 65.8034L11.1511 65.7866ZM25.0633 112.415C25.0516 112.368 25.0501 112.32 25.0589 112.273C25.0678 112.226 25.0867 112.181 25.1145 112.142C25.1394 112.108 25.1708 112.08 25.2067 112.058C25.2427 112.036 25.2826 112.022 25.3242 112.015C25.3658 112.009 25.4082 112.011 25.449 112.021C25.4899 112.031 25.5283 112.049 25.5621 112.074C26.0727 112.434 26.6227 112.825 27.1545 113.148C27.2283 113.192 27.282 113.263 27.3042 113.346C27.3264 113.429 27.3154 113.518 27.2736 113.593C27.2527 113.63 27.2245 113.663 27.1907 113.69C27.1569 113.716 27.1181 113.735 27.0766 113.746C27.0352 113.758 26.9919 113.76 26.9494 113.754C26.9069 113.748 26.866 113.734 26.8292 113.712C26.28 113.362 25.7301 112.971 25.2124 112.623C25.1734 112.599 25.1397 112.568 25.1136 112.53C25.0875 112.493 25.0695 112.45 25.0607 112.405L25.0633 112.415ZM12.5748 62.1751C12.5551 62.105 12.5607 62.0302 12.5907 61.9638C12.8547 61.365 13.1432 60.7804 13.4221 60.1984C13.4429 60.1609 13.4711 60.128 13.5049 60.1016C13.5388 60.0752 13.5776 60.0558 13.619 60.0447C13.6605 60.0336 13.7038 60.031 13.7463 60.0369C13.7888 60.0429 13.8296 60.0573 13.8664 60.0794C13.9391 60.1219 13.9922 60.1914 14.014 60.2728C14.0358 60.3542 14.0246 60.4409 13.9829 60.5141C13.7014 61.0864 13.4303 61.6974 13.1585 62.2671C13.116 62.3399 13.0465 62.3929 12.9651 62.4147C12.8838 62.4365 12.7971 62.4253 12.7239 62.3836C12.6883 62.3635 12.6571 62.3364 12.6324 62.3039C12.6077 62.2713 12.5898 62.2341 12.58 62.1944L12.5748 62.1751ZM28.3614 114.523C28.3445 114.438 28.3576 114.351 28.3984 114.275C28.4441 114.203 28.5151 114.151 28.5974 114.129C28.6797 114.107 28.7672 114.116 28.8428 114.156C29.3939 114.474 29.9643 114.787 30.5296 115.081C30.6023 115.123 30.6554 115.193 30.6772 115.274C30.699 115.356 30.6878 115.442 30.6461 115.515C30.6018 115.586 30.5324 115.638 30.4517 115.659C30.371 115.681 30.2852 115.671 30.2114 115.632C29.6242 115.334 29.0151 115.031 28.4904 114.695C28.4298 114.653 28.3845 114.593 28.3614 114.523ZM14.3505 58.7177C14.3295 58.6353 14.3392 58.548 14.3779 58.4723C14.7006 57.8992 15.0355 57.3332 15.3756 56.7866C15.4196 56.7128 15.4907 56.6591 15.5736 56.6369C15.6566 56.6146 15.7449 56.6256 15.8199 56.6675C15.8927 56.71 15.9457 56.7795 15.9675 56.8609C15.9893 56.9423 15.9781 57.029 15.9364 57.1022C15.606 57.6463 15.2781 58.2 14.9625 58.7608C14.9185 58.8345 14.8475 58.8882 14.7645 58.9105C14.6815 58.9327 14.5932 58.9217 14.5182 58.8798C14.4747 58.8713 14.4337 58.8533 14.398 58.8271C14.3623 58.8008 14.3329 58.767 14.3119 58.728L14.3505 58.7177ZM31.8451 116.281C31.824 116.208 31.8287 116.13 31.8584 116.06C31.9024 115.986 31.9734 115.933 32.0564 115.911C32.1394 115.888 32.2277 115.899 32.3027 115.941C32.8796 116.201 33.4757 116.455 34.0738 116.678C34.1521 116.71 34.2149 116.772 34.2492 116.849C34.2834 116.927 34.2865 117.015 34.2578 117.094C34.244 117.135 34.2219 117.172 34.193 117.204C34.1641 117.235 34.129 117.26 34.0898 117.278C34.0507 117.295 34.0084 117.304 33.9656 117.304C33.9229 117.304 33.8805 117.296 33.8413 117.279C33.231 117.049 32.6735 116.784 32.0361 116.53C31.9758 116.52 31.9197 116.492 31.874 116.451C31.8284 116.411 31.795 116.358 31.7775 116.299L31.8451 116.281ZM16.4368 55.4152C16.4219 55.3701 16.4179 55.3221 16.4251 55.2752C16.4323 55.2283 16.4506 55.1837 16.4784 55.1452C16.8526 54.6101 17.2295 54.0847 17.6282 53.5637C17.6539 53.5302 17.6859 53.5021 17.7224 53.481C17.759 53.4599 17.7993 53.4463 17.8412 53.4408C17.883 53.4354 17.9255 53.4383 17.9662 53.4493C18.007 53.4604 18.0451 53.4794 18.0784 53.5052C18.1471 53.5584 18.192 53.6365 18.2034 53.7226C18.2149 53.8087 18.1919 53.8958 18.1395 53.9651C17.7549 54.4616 17.3781 54.987 17.0109 55.5098C16.9669 55.5836 16.8959 55.6373 16.8129 55.6595C16.7299 55.6818 16.6416 55.6708 16.5666 55.6289C16.5221 55.6115 16.4816 55.5852 16.4476 55.5515C16.4137 55.5179 16.387 55.4776 16.3692 55.4333L16.4368 55.4152ZM35.4586 117.673C35.4392 117.616 35.4408 117.553 35.4629 117.496C35.4897 117.414 35.5475 117.346 35.6239 117.307C35.7003 117.267 35.7892 117.258 35.8717 117.283C36.4742 117.484 37.0935 117.67 37.705 117.827C37.7461 117.838 37.7847 117.856 37.8186 117.882C37.8525 117.907 37.8809 117.939 37.9023 117.976C37.9237 118.013 37.9376 118.053 37.9432 118.095C37.9487 118.137 37.9459 118.18 37.9347 118.221C37.9113 118.303 37.8572 118.372 37.7839 118.415C37.7105 118.458 37.6234 118.471 37.5408 118.451C36.9145 118.277 36.2855 118.094 35.6689 117.917C35.6096 117.906 35.5547 117.878 35.5107 117.836C35.4666 117.795 35.4352 117.742 35.42 117.684L35.4586 117.673ZM18.7914 52.341C18.7768 52.29 18.7751 52.2361 18.7865 52.1842C18.798 52.1324 18.8221 52.0842 18.8568 52.044C19.2729 51.5494 19.711 51.0593 20.1543 50.5886C20.2119 50.5267 20.2917 50.4902 20.3762 50.4869C20.4606 50.4837 20.543 50.514 20.6052 50.5713C20.6679 50.6303 20.7051 50.7115 20.7088 50.7975C20.7126 50.8836 20.6825 50.9677 20.6251 51.0318C20.1889 51.4904 19.7604 51.9778 19.3417 52.4627C19.3146 52.4956 19.2812 52.5227 19.2435 52.5425C19.2059 52.5623 19.1646 52.5744 19.1222 52.578C19.0798 52.5817 19.0371 52.5768 18.9966 52.5637C18.9561 52.5507 18.9186 52.5297 18.8863 52.502C18.8203 52.4698 18.7642 52.4204 18.7238 52.3591L18.7914 52.341ZM39.1966 118.68C39.1707 118.636 39.1573 118.586 39.1577 118.535C39.1754 118.452 39.2252 118.38 39.2963 118.334C39.3674 118.287 39.4539 118.271 39.5368 118.289C40.1721 118.419 40.8048 118.539 41.4298 118.631C41.4714 118.636 41.5115 118.65 41.5476 118.672C41.5837 118.693 41.615 118.722 41.6396 118.756C41.6642 118.79 41.6816 118.829 41.6908 118.87C41.7 118.911 41.7008 118.954 41.693 118.995C41.6873 119.037 41.6733 119.077 41.652 119.113C41.6307 119.149 41.6024 119.181 41.5688 119.206C41.5352 119.232 41.4969 119.25 41.4562 119.261C41.4155 119.271 41.373 119.274 41.3314 119.268C40.6942 119.169 40.0518 119.052 39.4068 118.924C39.3437 118.917 39.2839 118.892 39.2346 118.852C39.1853 118.812 39.1486 118.759 39.1289 118.698L39.1966 118.68ZM21.4387 49.5094C21.4246 49.4547 21.4247 49.3973 21.4391 49.3427C21.4534 49.2881 21.4816 49.2381 21.5208 49.1975C21.9952 48.7529 22.4778 48.313 22.9686 47.8778C23.0005 47.85 23.0376 47.8287 23.0778 47.8153C23.118 47.8018 23.1604 47.7966 23.2027 47.7997C23.2449 47.8029 23.2861 47.8143 23.3239 47.8335C23.3617 47.8526 23.3953 47.8792 23.4228 47.9114C23.4506 47.9433 23.4719 47.9804 23.4853 48.0206C23.4987 48.0608 23.504 48.1033 23.5009 48.1455C23.4977 48.1878 23.4863 48.229 23.4671 48.2667C23.4479 48.3045 23.4214 48.3381 23.3892 48.3656C22.9111 48.7836 22.4284 49.2234 21.9774 49.6652C21.9468 49.6951 21.9106 49.7186 21.8708 49.7342C21.8309 49.7499 21.7884 49.7574 21.7456 49.7563C21.7029 49.7552 21.6608 49.7455 21.6218 49.7279C21.5828 49.7103 21.5478 49.6849 21.5188 49.6535C21.4565 49.6297 21.4044 49.5852 21.3711 49.5275L21.4387 49.5094ZM43.0371 119.297L43.0086 119.191C43.0182 119.105 43.0608 119.027 43.1274 118.972C43.194 118.918 43.2794 118.891 43.3652 118.899C43.8438 118.947 44.3296 118.982 44.8101 118.998L45.281 119.017C45.3656 119.02 45.4454 119.057 45.5028 119.12C45.5602 119.182 45.5906 119.264 45.5874 119.349C45.5869 119.391 45.5779 119.433 45.561 119.472C45.5441 119.511 45.5196 119.547 45.4889 119.576C45.4583 119.605 45.4221 119.628 45.3824 119.644C45.3427 119.659 45.3004 119.666 45.258 119.665L44.7871 119.646C44.2846 119.626 43.7989 119.59 43.3009 119.548C43.2194 119.55 43.1398 119.523 43.0766 119.471C43.0134 119.42 42.9708 119.347 42.9566 119.267L43.0371 119.297ZM46.9132 119.429L46.8924 119.351C46.8916 119.266 46.924 119.183 46.9826 119.121C47.0413 119.059 47.1217 119.022 47.207 119.018C47.8351 119.006 48.4799 118.978 49.1291 118.928C49.1706 118.924 49.2125 118.929 49.2521 118.942C49.2918 118.955 49.3285 118.975 49.36 119.003C49.3914 119.03 49.4171 119.063 49.4354 119.101C49.4536 119.138 49.4642 119.179 49.4663 119.221C49.4738 119.305 49.4475 119.389 49.3931 119.454C49.3387 119.519 49.2607 119.56 49.1763 119.568C48.5173 119.62 47.8629 119.65 47.2252 119.666C47.1818 119.675 47.137 119.675 47.0935 119.666C47.05 119.658 47.0087 119.64 46.9721 119.616C46.9354 119.591 46.9042 119.558 46.8802 119.521C46.8563 119.484 46.8401 119.442 46.8326 119.398L46.9132 119.429ZM50.7797 119.138L50.7668 119.09C50.7571 119.006 50.7809 118.922 50.8329 118.856C50.885 118.789 50.961 118.746 51.0446 118.736C51.711 118.647 52.3499 118.558 52.9613 118.471C53.0026 118.463 53.0449 118.464 53.0856 118.474C53.1264 118.484 53.1648 118.501 53.1986 118.526C53.2323 118.551 53.2607 118.582 53.282 118.618C53.3032 118.655 53.317 118.695 53.3223 118.736C53.3296 118.778 53.3285 118.82 53.3192 118.862C53.3099 118.903 53.2925 118.942 53.2681 118.976C53.2436 119.011 53.2126 119.04 53.1768 119.062C53.1409 119.085 53.101 119.1 53.0593 119.107C52.4134 119.207 51.7745 119.296 51.1233 119.377C51.0777 119.395 51.0285 119.402 50.9797 119.398C50.9308 119.393 50.8838 119.377 50.8424 119.351C50.801 119.325 50.7664 119.289 50.7415 119.247C50.7166 119.204 50.7021 119.157 50.6991 119.108L50.7797 119.138ZM54.6046 118.537C54.5974 118.496 54.5984 118.453 54.6077 118.412C54.617 118.371 54.6344 118.332 54.6589 118.297C54.6833 118.263 54.7144 118.234 54.7502 118.211C54.786 118.189 54.8259 118.174 54.8676 118.167C55.4858 118.001 56.1247 117.913 56.7507 117.776C56.7925 117.766 56.8358 117.765 56.8781 117.772C56.9204 117.779 56.9609 117.795 56.997 117.818C57.0332 117.841 57.0643 117.871 57.0885 117.907C57.1128 117.942 57.1296 117.982 57.1381 118.024C57.148 118.066 57.1494 118.109 57.1422 118.152C57.135 118.194 57.1193 118.234 57.0962 118.271C57.073 118.307 57.0428 118.338 57.0074 118.362C56.972 118.386 56.932 118.403 56.8899 118.412C56.2621 118.58 55.6161 118.681 54.985 118.798C54.9359 118.822 54.8816 118.833 54.827 118.83C54.7725 118.827 54.7196 118.81 54.6734 118.781C54.6272 118.752 54.5892 118.712 54.5631 118.664C54.5369 118.616 54.5235 118.562 54.5241 118.507L54.6046 118.537ZM58.3919 117.719C58.3808 117.678 58.3783 117.636 58.3845 117.594C58.3906 117.552 58.4053 117.511 58.4277 117.475C58.4501 117.439 58.4796 117.408 58.5145 117.384C58.5494 117.36 58.5888 117.343 58.6304 117.335C59.2583 117.166 59.8765 117.001 60.4947 116.835C60.5767 116.813 60.664 116.825 60.7375 116.867C60.811 116.909 60.8646 116.979 60.8866 117.061C60.8962 117.102 60.8977 117.145 60.8909 117.186C60.8841 117.228 60.8692 117.267 60.8471 117.303C60.8249 117.339 60.796 117.37 60.7618 117.394C60.7277 117.419 60.689 117.437 60.6481 117.446C60.0299 117.612 59.402 117.78 58.7742 117.948C58.7274 117.972 58.6756 117.983 58.6232 117.982C58.5709 117.981 58.5196 117.967 58.474 117.942C58.4283 117.916 58.3896 117.88 58.3612 117.836C58.3329 117.792 58.3157 117.741 58.3114 117.689L58.3919 117.719ZM62.1552 116.773C62.1333 116.692 62.1433 116.605 62.183 116.531C62.2228 116.457 62.2894 116.401 62.3693 116.374C62.9585 116.216 63.5767 116.051 64.198 115.781C64.2796 115.753 64.3687 115.758 64.4464 115.796C64.524 115.833 64.5841 115.899 64.6137 115.98C64.6388 116.061 64.6322 116.15 64.5953 116.227C64.5584 116.304 64.4938 116.364 64.4145 116.396C63.7732 116.629 63.1435 116.829 62.5085 117.01C62.4266 117.032 62.3392 117.02 62.2657 116.978C62.1922 116.935 62.1386 116.865 62.1166 116.783L62.1552 116.773ZM65.8009 115.465C65.78 115.389 65.7876 115.309 65.8222 115.239C65.8568 115.168 65.916 115.113 65.9885 115.083C66.5641 114.836 67.1468 114.576 67.7436 114.292C67.8216 114.256 67.9107 114.252 67.9918 114.28C68.0729 114.309 68.1397 114.368 68.1779 114.445C68.2141 114.523 68.2183 114.612 68.1898 114.693C68.1612 114.774 68.1022 114.841 68.0251 114.879C67.4187 115.166 66.8264 115.428 66.2411 115.678C66.1609 115.712 66.0708 115.712 65.9903 115.679C65.9098 115.647 65.8455 115.583 65.8113 115.504L65.8009 115.465ZM69.3122 113.81C69.292 113.738 69.2982 113.662 69.3295 113.595C69.3609 113.527 69.4154 113.474 69.4831 113.443C70.036 113.15 70.6057 112.842 71.1729 112.524C71.2494 112.482 71.3396 112.472 71.4237 112.496C71.5078 112.52 71.5789 112.576 71.6214 112.653C71.6606 112.729 71.6688 112.817 71.6444 112.899C71.62 112.98 71.5648 113.05 71.4905 113.092C70.9137 113.412 70.344 113.72 69.7717 114.018C69.6951 114.054 69.6076 114.059 69.5272 114.033C69.4468 114.006 69.3798 113.95 69.3399 113.875L69.3122 113.81ZM72.6982 111.919C72.6814 111.85 72.6872 111.778 72.7144 111.713C72.7417 111.648 72.7891 111.594 72.8497 111.557C73.395 111.235 73.9447 110.891 74.4944 110.547C74.5294 110.524 74.569 110.507 74.6105 110.5C74.6521 110.492 74.6949 110.492 74.7362 110.502C74.7775 110.511 74.8164 110.529 74.8506 110.554C74.8849 110.579 74.9136 110.61 74.9351 110.647C74.9588 110.682 74.9751 110.721 74.9829 110.763C74.9908 110.804 74.99 110.847 74.9807 110.889C74.9714 110.93 74.9537 110.969 74.9288 111.003C74.9039 111.037 74.8722 111.066 74.8358 111.087C74.2886 111.441 73.739 111.785 73.1841 112.11C73.1479 112.132 73.1077 112.147 73.0657 112.154C73.0237 112.16 72.9808 112.158 72.9396 112.148C72.8983 112.138 72.8595 112.12 72.8253 112.094C72.7912 112.069 72.7625 112.037 72.7408 112.001L72.6982 111.919ZM75.9693 109.831C75.9503 109.766 75.9529 109.695 75.9767 109.631C76.0006 109.567 76.0443 109.512 76.1015 109.475C76.6364 109.114 77.159 108.746 77.679 108.369C77.7129 108.343 77.7515 108.324 77.7927 108.314C77.8338 108.303 77.8767 108.3 77.9189 108.306C77.961 108.313 78.0015 108.327 78.0379 108.349C78.0744 108.371 78.1062 108.4 78.1313 108.434C78.1807 108.505 78.2005 108.592 78.1865 108.677C78.1725 108.762 78.1259 108.838 78.0565 108.889C77.5365 109.266 77.0068 109.646 76.4623 110.01C76.3929 110.058 76.3071 110.078 76.2236 110.063C76.1402 110.049 76.0659 110.002 76.017 109.932L75.9693 109.831ZM79.1036 107.542C79.0876 107.48 79.0901 107.415 79.1106 107.354C79.1311 107.293 79.1688 107.24 79.2191 107.2C79.734 106.804 80.2366 106.4 80.7173 105.992C80.7492 105.962 80.7869 105.94 80.8278 105.927C80.8688 105.913 80.9122 105.908 80.9552 105.912C80.9982 105.916 81.0399 105.929 81.0776 105.95C81.1153 105.971 81.1481 106 81.174 106.035C81.2015 106.066 81.2224 106.102 81.2355 106.142C81.2486 106.181 81.2536 106.223 81.2503 106.265C81.2469 106.306 81.2352 106.347 81.2159 106.383C81.1966 106.42 81.17 106.453 81.1378 106.479C80.6404 106.902 80.1378 107.306 79.6159 107.715C79.5827 107.741 79.5448 107.76 79.5042 107.772C79.4637 107.783 79.4213 107.786 79.3795 107.781C79.3378 107.776 79.2974 107.762 79.2608 107.742C79.2242 107.721 79.1921 107.693 79.1662 107.66L79.1036 107.542ZM79.3343 98.4733C79.166 97.8454 79.0821 97.1847 78.9938 96.5458C78.9862 96.5036 78.9874 96.4603 78.9973 96.4186C79.0073 96.3769 79.0258 96.3377 79.0517 96.3036C79.0775 96.2694 79.1102 96.241 79.1476 96.2201C79.1851 96.1992 79.2264 96.1862 79.269 96.1821C79.311 96.176 79.3538 96.1782 79.395 96.1888C79.4361 96.1994 79.4746 96.218 79.5085 96.2436C79.5423 96.2692 79.5707 96.3013 79.5921 96.338C79.6134 96.3747 79.6272 96.4153 79.6327 96.4574C79.7159 97.077 79.8358 97.7177 79.9699 98.334C79.9798 98.3758 79.9812 98.4191 79.974 98.4615C79.9668 98.5038 79.9511 98.5442 79.928 98.5804C79.9048 98.6165 79.8746 98.6477 79.8392 98.6719C79.8037 98.6961 79.7638 98.713 79.7217 98.7215C79.673 98.744 79.6196 98.7543 79.5661 98.7516C79.5125 98.7488 79.4604 98.733 79.4143 98.7056C79.3683 98.6782 79.3295 98.64 79.3015 98.5943C79.2736 98.5485 79.2572 98.4966 79.2537 98.4431L79.3343 98.4733ZM79.8364 100.347C79.8122 100.268 79.82 100.182 79.8581 100.108C79.8963 100.034 79.9618 99.9773 80.0408 99.9508C80.123 99.9259 80.2117 99.9341 80.288 99.9736C80.3643 100.013 80.4222 100.081 80.4494 100.162C80.6176 100.79 80.8702 101.385 81.115 101.951C81.1458 102.031 81.1448 102.12 81.1124 102.2C81.08 102.28 81.0185 102.345 80.9403 102.381C80.9011 102.397 80.8591 102.405 80.8167 102.405C80.7742 102.405 80.7322 102.397 80.6931 102.38C80.654 102.364 80.6186 102.339 80.5889 102.309C80.5592 102.279 80.5358 102.243 80.5201 102.203C80.2701 101.618 80.0414 100.996 79.8286 100.318L79.8364 100.347ZM78.8137 94.6373L78.7956 94.5697C78.7626 93.9124 78.7694 93.2537 78.8158 92.5973C78.8212 92.5114 78.86 92.431 78.9238 92.3733C78.9876 92.3156 79.0715 92.2851 79.1575 92.2883C79.1998 92.2909 79.2413 92.302 79.2793 92.3207C79.3174 92.3395 79.3514 92.3657 79.3792 92.3977C79.4071 92.4298 79.4283 92.4671 79.4416 92.5074C79.4549 92.5477 79.4601 92.5903 79.4568 92.6326C79.413 93.2681 79.4075 93.9057 79.4404 94.5419C79.4421 94.5845 79.4352 94.6271 79.4203 94.667C79.4053 94.707 79.3825 94.7435 79.3532 94.7745C79.3238 94.8055 79.2886 94.8304 79.2496 94.8476C79.2105 94.8648 79.1684 94.874 79.1258 94.8746C79.0827 94.8837 79.0383 94.8838 78.9952 94.8749C78.9522 94.866 78.9114 94.8483 78.8755 94.823C78.8395 94.7977 78.8092 94.7652 78.7864 94.7276C78.7636 94.69 78.7487 94.6481 78.7428 94.6046L78.8137 94.6373ZM81.366 103.892C81.3476 103.824 81.3525 103.751 81.3799 103.685C81.4074 103.62 81.4558 103.565 81.5176 103.531C81.592 103.491 81.6787 103.482 81.7598 103.505C81.8409 103.527 81.9103 103.58 81.9538 103.652C82.1113 103.93 82.2881 104.204 82.4598 104.458C82.8323 104.11 83.2023 103.752 83.553 103.399C83.6147 103.338 83.6984 103.303 83.7857 103.303C83.873 103.303 83.9568 103.337 84.0187 103.399C84.0749 103.461 84.1058 103.543 84.1055 103.627C84.1051 103.711 84.0734 103.793 84.0167 103.855C83.6396 104.225 83.2459 104.61 82.8302 104.991L83.0134 105.211C83.0665 105.279 83.0907 105.365 83.0808 105.451C83.0709 105.537 83.0277 105.616 82.9605 105.67C82.9273 105.696 82.8894 105.715 82.8488 105.726C82.8083 105.738 82.7659 105.741 82.7241 105.736C82.6823 105.73 82.642 105.717 82.6054 105.696C82.5688 105.675 82.5366 105.648 82.5108 105.614L82.216 105.248L82.147 105.184C82.119 105.134 82.1039 105.077 82.103 105.02C81.8694 104.689 81.6499 104.334 81.4376 103.966L81.366 103.892ZM79.1054 90.7804C79.0827 90.7353 79.0695 90.686 79.0666 90.6355C79.2075 89.9742 79.4366 89.3348 79.7478 88.7344C79.7918 88.6607 79.8628 88.607 79.9458 88.5847C80.0287 88.5625 80.1171 88.5735 80.1921 88.6154C80.2296 88.6362 80.2625 88.6644 80.289 88.6982C80.3154 88.732 80.3347 88.7708 80.3458 88.8123C80.3569 88.8537 80.3596 88.897 80.3536 88.9395C80.3477 88.982 80.3332 89.0229 80.3111 89.0597C80.033 89.6118 79.8245 90.1962 79.6903 90.7997C79.6818 90.8408 79.6649 90.8798 79.6409 90.9142C79.6168 90.9486 79.586 90.9778 79.5503 91C79.5146 91.0221 79.4747 91.0368 79.4332 91.0431C79.3917 91.0494 79.3493 91.0471 79.3086 91.0365C79.237 91.0264 79.1709 90.9924 79.1211 90.9399C79.0714 90.8874 79.0408 90.8197 79.0345 90.7476L79.1054 90.7804ZM83.8103 106.871C83.7968 106.822 83.7951 106.771 83.8052 106.722C83.8153 106.672 83.837 106.626 83.8685 106.586C83.9233 106.521 84.0008 106.48 84.0852 106.471C84.1695 106.462 84.254 106.486 84.3213 106.537C84.6766 106.825 85.0651 107.068 85.4785 107.263C85.6203 107.328 85.7646 107.403 85.9161 107.466C85.9869 107.511 86.0383 107.58 86.0599 107.661C86.0815 107.741 86.0717 107.827 86.0325 107.901C86.0117 107.938 85.9835 107.971 85.9497 107.998C85.9159 108.024 85.8771 108.044 85.8356 108.055C85.7942 108.066 85.7509 108.068 85.7084 108.062C85.6659 108.056 85.625 108.042 85.5882 108.02C85.4368 107.957 85.2924 107.882 85.1383 107.809C84.6938 107.582 84.2738 107.309 83.8851 106.996C83.8216 106.959 83.7708 106.904 83.7394 106.838L83.8103 106.871ZM84.8129 102.306C84.7983 102.255 84.7966 102.201 84.808 102.149C84.8194 102.097 84.8436 102.049 84.8783 102.009C85.3234 101.507 85.7396 101.012 86.1075 100.53C86.1636 100.465 86.2426 100.423 86.3285 100.413C86.4144 100.404 86.5007 100.427 86.5699 100.479C86.6031 100.505 86.6307 100.538 86.6511 100.575C86.6715 100.612 86.6844 100.653 86.689 100.695C86.6935 100.737 86.6896 100.78 86.6776 100.82C86.6655 100.861 86.6455 100.899 86.6188 100.932C86.2438 101.426 85.8495 101.925 85.3658 102.437C85.3068 102.5 85.2256 102.537 85.1395 102.541C85.0535 102.545 84.9694 102.515 84.9052 102.457C84.8649 102.442 84.8289 102.418 84.8005 102.386C84.772 102.354 84.7519 102.315 84.742 102.273L84.8129 102.306ZM81.045 87.5483C81.0266 87.4797 81.0315 87.407 81.0589 87.3416C81.0863 87.2761 81.1348 87.2217 81.1965 87.1867C81.405 87.0687 81.6276 86.9777 81.8591 86.916C82.3263 86.7976 82.8139 86.7836 83.2871 86.875C83.3288 86.8827 83.3685 86.8985 83.404 86.9216C83.4395 86.9448 83.4701 86.9747 83.4939 87.0098C83.5177 87.0448 83.5344 87.0842 83.5428 87.1257C83.5513 87.1672 83.5515 87.21 83.5433 87.2515C83.5365 87.2926 83.5216 87.3319 83.4993 87.3671C83.477 87.4022 83.4479 87.4326 83.4137 87.4562C83.3794 87.4799 83.3408 87.4964 83.3 87.5048C83.2593 87.5132 83.2172 87.5133 83.1764 87.5051C82.7949 87.4372 82.4034 87.4504 82.0273 87.5439C81.8473 87.5897 81.6746 87.6604 81.5141 87.7538C81.4776 87.7745 81.4372 87.7878 81.3955 87.793C81.3538 87.7981 81.3114 87.7949 81.2709 87.7837C81.2304 87.7724 81.1925 87.7533 81.1594 87.7274C81.1263 87.7014 81.0986 87.6692 81.0779 87.6326L81.045 87.5483ZM87.2573 108.608C87.2396 108.542 87.2427 108.473 87.2661 108.409C87.2802 108.369 87.3021 108.332 87.3307 108.3C87.3592 108.269 87.3938 108.243 87.4324 108.225C87.4709 108.207 87.5127 108.197 87.5552 108.195C87.5977 108.193 87.6402 108.2 87.68 108.215C88.2781 108.438 88.8903 108.636 89.494 108.764C89.5345 108.776 89.5724 108.795 89.6054 108.821C89.6385 108.848 89.666 108.88 89.6864 108.917C89.7069 108.954 89.7199 108.994 89.7246 109.036C89.7294 109.078 89.7258 109.12 89.7141 109.161C89.7026 109.202 89.6832 109.239 89.6571 109.272C89.6309 109.305 89.5984 109.333 89.5616 109.353C89.5247 109.374 89.4842 109.387 89.4424 109.392C89.4005 109.396 89.3581 109.393 89.3176 109.381C88.6939 109.217 88.0694 109.012 87.4495 108.784C87.3902 108.778 87.3338 108.756 87.2871 108.718C87.2405 108.681 87.2055 108.632 87.1864 108.575L87.2573 108.608ZM87.1797 99.2388C87.1682 99.1948 87.1661 99.1488 87.1737 99.1039C87.1813 99.059 87.1984 99.0163 87.2239 98.9785C87.5657 98.4465 87.874 97.8937 88.1469 97.3232C88.1909 97.2495 88.2619 97.1958 88.3449 97.1735C88.4279 97.1513 88.5162 97.1623 88.5912 97.2042C88.6639 97.2467 88.717 97.3162 88.7388 97.3976C88.7606 97.4789 88.7494 97.5656 88.7077 97.6388C88.4206 98.2338 88.0982 98.8111 87.7422 99.3676C87.7214 99.4052 87.6932 99.4381 87.6594 99.4645C87.6256 99.4909 87.5868 99.5102 87.5453 99.5213C87.5039 99.5325 87.4606 99.5351 87.4181 99.5291C87.3756 99.5232 87.3347 99.5088 87.2979 99.4867C87.2433 99.4623 87.1967 99.423 87.1632 99.3734C87.1298 99.3238 87.111 99.2658 87.1088 99.2061L87.1797 99.2388ZM84.7268 87.9593C84.7066 87.8816 84.7138 87.7992 84.7471 87.7261C84.7928 87.6542 84.8638 87.6021 84.9461 87.5801C85.0284 87.558 85.116 87.5676 85.1915 87.6071C85.7871 87.9048 86.3576 88.2506 86.8971 88.6408C86.931 88.6657 86.9597 88.6971 86.9814 88.7331C87.0032 88.769 87.0177 88.809 87.024 88.8505C87.0303 88.8921 87.0284 88.9345 87.0183 88.9753C87.0083 89.0162 86.9903 89.0546 86.9653 89.0885C86.9136 89.1579 86.8367 89.2042 86.7512 89.2174C86.6656 89.2306 86.5783 89.2098 86.508 89.1592C86.0019 88.7911 85.4648 88.4674 84.9029 88.1917C84.8415 88.1742 84.786 88.1403 84.7425 88.0936C84.6989 88.0469 84.669 87.9891 84.6559 87.9266L84.7268 87.9593ZM90.9882 109.627C90.9671 109.585 90.9548 109.539 90.9519 109.492C90.9596 109.45 90.9755 109.41 90.9986 109.375C91.0217 109.339 91.0516 109.309 91.0867 109.285C91.1217 109.261 91.1611 109.245 91.2026 109.236C91.2441 109.228 91.2869 109.228 91.3285 109.236C91.9586 109.346 92.5906 109.425 93.2271 109.483C93.3115 109.49 93.3893 109.531 93.4436 109.596C93.4979 109.661 93.5242 109.745 93.5167 109.83C93.5141 109.872 93.5031 109.913 93.4843 109.951C93.4655 109.99 93.4393 110.023 93.4073 110.051C93.3753 110.079 93.338 110.1 93.2977 110.114C93.2574 110.127 93.2148 110.132 93.1725 110.129C92.5141 110.067 91.8602 109.984 91.2178 109.866C91.1435 109.864 91.0722 109.836 91.0171 109.786C90.9619 109.736 90.9265 109.668 90.9173 109.594L90.9882 109.627ZM88.8039 95.7185C88.7918 95.663 88.7942 95.6053 88.8108 95.551C88.9764 94.9587 89.0631 94.3472 89.0689 93.7322C89.0685 93.6902 89.0764 93.6485 89.0921 93.6095C89.1078 93.5705 89.1311 93.535 89.1605 93.505C89.19 93.4749 89.2251 93.451 89.2638 93.4346C89.3025 93.4182 89.344 93.4095 89.3861 93.4091C89.4285 93.4073 89.4708 93.4143 89.5104 93.4295C89.5501 93.4447 89.5861 93.4679 89.6164 93.4976C89.6467 93.5274 89.6706 93.563 89.6865 93.6023C89.7025 93.6417 89.7102 93.6839 89.7092 93.7263C89.7057 94.4015 89.6143 95.0733 89.4372 95.7248C89.4123 95.8078 89.3557 95.8778 89.2797 95.9194C89.2037 95.9611 89.1144 95.9712 89.031 95.9475C88.9631 95.9422 88.8986 95.9161 88.8462 95.8727C88.7938 95.8293 88.7561 95.7707 88.7382 95.7051L88.8039 95.7185ZM87.7951 90.2534C87.7798 90.1926 87.7816 90.1288 87.8003 90.069C87.819 90.0092 87.8538 89.9557 87.901 89.9144C87.9666 89.8618 88.0503 89.8371 88.1339 89.8456C88.2176 89.8542 88.2945 89.8954 88.3481 89.9603C88.7926 90.4944 89.141 91.1016 89.3777 91.755C89.3925 91.7945 89.3994 91.8366 89.3979 91.8788C89.3964 91.9211 89.3866 91.9626 89.369 92.001C89.3514 92.0394 89.3263 92.074 89.2953 92.1027C89.2642 92.1313 89.2278 92.1535 89.1881 92.1681C89.1487 92.1844 89.1063 92.1924 89.0637 92.1916C89.021 92.1908 88.979 92.1812 88.9402 92.1634C88.9014 92.1457 88.8667 92.12 88.8383 92.0882C88.8099 92.0564 88.7883 92.0191 88.775 91.9786C88.5587 91.4069 88.2516 90.8739 87.8655 90.4002C87.8028 90.3642 87.7547 90.3076 87.7294 90.2399L87.7951 90.2534ZM94.838 109.931L94.8173 109.854C94.8184 109.768 94.8533 109.685 94.9144 109.624C94.9754 109.563 95.0579 109.529 95.1442 109.528C95.7748 109.525 96.417 109.487 97.0417 109.423C97.0841 109.418 97.1271 109.422 97.1681 109.434C97.2091 109.445 97.2474 109.465 97.2806 109.492C97.3138 109.519 97.3413 109.552 97.3616 109.59C97.3818 109.627 97.3943 109.668 97.3983 109.711C97.4058 109.796 97.3801 109.881 97.3265 109.947C97.2729 110.014 97.1955 110.057 97.1108 110.067C96.4667 110.137 95.8026 110.17 95.1527 110.178C95.0678 110.193 94.9806 110.174 94.9095 110.125C94.8384 110.077 94.7892 110.002 94.7723 109.918L94.838 109.931ZM98.6954 109.529C98.6855 109.487 98.6841 109.444 98.6913 109.402C98.6985 109.359 98.7142 109.319 98.7373 109.283C98.7605 109.246 98.7907 109.215 98.8261 109.191C98.8616 109.167 98.9015 109.15 98.9436 109.142C99.3396 109.035 99.726 108.932 100.122 108.826C100.344 108.766 100.566 108.707 100.789 108.647C100.829 108.635 100.871 108.631 100.913 108.635C100.955 108.639 100.995 108.652 101.032 108.672C101.069 108.691 101.102 108.718 101.129 108.751C101.155 108.783 101.175 108.821 101.187 108.861C101.201 108.902 101.207 108.945 101.203 108.988C101.2 109.031 101.188 109.072 101.168 109.11C101.149 109.149 101.122 109.182 101.088 109.21C101.055 109.237 101.017 109.258 100.976 109.27C100.744 109.332 100.522 109.392 100.29 109.454C99.8846 109.562 99.4789 109.671 99.0732 109.78C99.0269 109.799 98.9766 109.808 98.9265 109.804C98.8763 109.801 98.8277 109.786 98.7845 109.76C98.7413 109.734 98.7048 109.699 98.6779 109.656C98.651 109.614 98.6345 109.566 98.6297 109.516L98.6954 109.529ZM102.4 108.402C102.379 108.326 102.387 108.246 102.421 108.175C102.456 108.105 102.515 108.05 102.588 108.02C103.166 107.782 103.746 107.513 104.318 107.215C104.356 107.196 104.397 107.184 104.439 107.181C104.481 107.178 104.524 107.183 104.564 107.196C104.604 107.21 104.641 107.231 104.673 107.259C104.705 107.286 104.731 107.32 104.75 107.358C104.788 107.433 104.796 107.52 104.771 107.6C104.746 107.68 104.691 107.748 104.616 107.787C104.025 108.091 103.428 108.375 102.83 108.618C102.791 108.634 102.749 108.642 102.707 108.642C102.664 108.642 102.622 108.634 102.583 108.617C102.544 108.601 102.509 108.576 102.479 108.546C102.449 108.516 102.426 108.48 102.41 108.44L102.4 108.402ZM105.836 106.622C105.808 106.568 105.796 106.507 105.802 106.447C105.808 106.386 105.831 106.329 105.869 106.282C106.4 105.943 106.932 105.572 107.44 105.188C107.473 105.162 107.511 105.143 107.551 105.132C107.592 105.12 107.634 105.117 107.676 105.122C107.718 105.127 107.758 105.141 107.795 105.162C107.831 105.182 107.864 105.21 107.889 105.243C107.94 105.314 107.961 105.401 107.95 105.487C107.938 105.573 107.894 105.651 107.827 105.705C107.312 106.102 106.76 106.478 106.223 106.829C106.149 106.874 106.059 106.889 105.975 106.869C105.89 106.849 105.816 106.796 105.77 106.722L105.836 106.622ZM108.911 104.266C108.896 104.21 108.896 104.151 108.912 104.095C108.928 104.04 108.96 103.99 109.003 103.951C109.478 103.523 109.927 103.072 110.361 102.604C110.421 102.542 110.503 102.506 110.59 102.504C110.677 102.502 110.761 102.534 110.824 102.594C110.855 102.622 110.881 102.657 110.898 102.696C110.916 102.734 110.925 102.776 110.926 102.819C110.927 102.861 110.919 102.903 110.902 102.943C110.886 102.982 110.862 103.018 110.831 103.047C110.391 103.528 109.923 103.984 109.448 104.453C109.384 104.511 109.299 104.54 109.213 104.536C109.127 104.532 109.046 104.495 108.987 104.432L108.911 104.266ZM111.549 101.437C111.538 101.389 111.538 101.34 111.548 101.292C111.559 101.245 111.58 101.2 111.61 101.161C112.004 100.662 112.371 100.139 112.726 99.6095C112.77 99.5358 112.841 99.4821 112.924 99.4598C113.007 99.4376 113.095 99.4486 113.17 99.4905C113.208 99.5113 113.241 99.5395 113.267 99.5733C113.294 99.6072 113.313 99.646 113.324 99.6874C113.335 99.7289 113.338 99.7721 113.332 99.8146C113.326 99.8571 113.312 99.898 113.29 99.9348C112.928 100.477 112.541 101.005 112.14 101.516C112.086 101.585 112.008 101.63 111.922 101.641C111.836 101.653 111.749 101.63 111.68 101.577C111.598 101.551 111.528 101.496 111.483 101.423L111.549 101.437ZM113.688 98.2132C113.677 98.1738 113.674 98.1327 113.679 98.0923C113.684 98.0518 113.697 98.0128 113.718 97.9774C114.023 97.4192 114.315 96.8442 114.574 96.2674C114.591 96.2289 114.615 96.1941 114.646 96.1649C114.676 96.1358 114.712 96.1129 114.751 96.0976C114.79 96.0823 114.832 96.0749 114.874 96.0757C114.916 96.0766 114.957 96.0857 114.996 96.1026C115.034 96.1195 115.069 96.1438 115.098 96.1741C115.127 96.2044 115.15 96.2402 115.166 96.2793C115.181 96.3185 115.188 96.3603 115.187 96.4023C115.187 96.4444 115.177 96.4859 115.161 96.5244C114.897 97.1231 114.598 97.7103 114.288 98.2904C114.244 98.3641 114.173 98.4178 114.09 98.4401C114.007 98.4623 113.919 98.4513 113.844 98.4094C113.794 98.3923 113.748 98.3647 113.71 98.3285C113.672 98.2923 113.642 98.2485 113.622 98.1997L113.688 98.2132ZM115.268 94.6839C115.254 94.6223 115.255 94.5584 115.27 94.497C115.48 93.8919 115.669 93.2823 115.816 92.6734C115.826 92.6317 115.843 92.5923 115.868 92.5576C115.893 92.5228 115.925 92.4934 115.961 92.4711C115.998 92.4487 116.038 92.434 116.081 92.4276C116.123 92.4212 116.166 92.4234 116.208 92.434C116.29 92.4554 116.362 92.5082 116.406 92.5813C116.451 92.6543 116.466 92.7418 116.447 92.8253C116.286 93.4587 116.102 94.0877 115.913 94.6973C115.9 94.738 115.879 94.7757 115.851 94.8081C115.823 94.8405 115.789 94.8669 115.751 94.8859C115.712 94.9048 115.671 94.9159 115.628 94.9185C115.585 94.921 115.542 94.915 115.502 94.9007C115.43 94.9037 115.359 94.8821 115.3 94.8395C115.242 94.7968 115.199 94.7357 115.18 94.6659L115.268 94.6839ZM116.197 90.9254L116.166 90.8095C116.265 90.1784 116.329 89.5425 116.359 88.9045C116.367 88.8198 116.407 88.7415 116.471 88.6857C116.536 88.63 116.619 88.6011 116.704 88.6052C116.789 88.6106 116.87 88.6494 116.927 88.7132C116.985 88.777 117.016 88.8609 117.013 88.9469C116.968 89.5904 116.906 90.2488 116.81 90.8957C116.797 90.9811 116.75 91.0578 116.681 91.1093C116.611 91.1609 116.524 91.1831 116.439 91.1712C116.364 91.1698 116.291 91.1422 116.235 91.093C116.178 91.0439 116.14 90.9763 116.128 90.9023L116.197 90.9254Z" fill="#999999"/>
</svg>
