<svg width="169" height="189" viewBox="0 0 169 189" fill="none" xmlns="http://www.w3.org/2000/svg">
<path d="M58.454 104.213L55.6341 105.433L44.3641 97.5725L41.3641 99.2325C38.9541 100.673 36.6141 100.773 35.4941 100.133L35.264 100.243C33.524 101.003 32.494 100.323 32.144 99.5025C31.794 98.6825 31.9941 97.5025 33.7341 96.7225L33.9641 96.6225C34.174 95.6225 35.0841 93.9425 38.6341 92.9525L41.9041 91.9025L43.9041 78.3125L46.7241 77.0825L48.9141 89.6725L56.9741 86.9125L58.1941 83.6825L60.4341 82.8525L60.5941 85.8525L61.394 85.7825L62.1241 87.4525L61.524 88.0425L63.644 90.2425L61.5041 91.3125L58.3241 89.9925L50.7941 93.9925L58.454 104.213ZM58.2441 89.2625L61.4441 90.5925L62.4441 90.0725L60.5041 88.0725L61.2341 87.3325L60.894 86.5425L59.894 86.6325L59.7441 83.8325L58.6541 84.2325L57.4341 87.4725L48.3141 90.5825L46.144 78.0725L44.454 78.8025L42.5041 92.4425L38.8141 93.6225C35.3741 94.5725 34.6941 96.1125 34.5941 96.9425V97.1525L34.394 97.2225C34.267 97.2587 34.1432 97.3055 34.024 97.3625C32.954 97.8225 32.4741 98.5525 32.7841 99.2525C33.0941 99.9525 33.944 100.113 35.014 99.6425C35.1344 99.5939 35.2514 99.5371 35.3641 99.4725L35.5541 99.3625L35.7341 99.4925C36.4641 100.033 38.5941 100.133 41.0541 98.6725L44.4141 96.7925L55.7141 104.683L57.4041 103.953L49.7441 93.8125L58.2441 89.2625Z" fill="#999999"/>
<path d="M155.234 188.142C155.288 188.143 155.342 188.129 155.389 188.103C155.437 188.077 155.476 188.038 155.504 187.992C155.864 187.445 156.198 186.895 156.504 186.342C156.55 186.269 156.565 186.181 156.546 186.097C156.527 186.013 156.476 185.939 156.404 185.892C156.33 185.848 156.241 185.834 156.157 185.855C156.073 185.875 156 185.928 155.954 186.002C155.614 186.552 155.274 187.092 154.954 187.642C154.93 187.677 154.913 187.717 154.905 187.759C154.896 187.801 154.896 187.844 154.904 187.886C154.913 187.928 154.929 187.968 154.953 188.003C154.977 188.039 155.008 188.069 155.044 188.092C155.103 188.124 155.168 188.141 155.234 188.142ZM157.234 184.822C157.291 184.822 157.346 184.807 157.395 184.779C157.444 184.751 157.485 184.71 157.514 184.662C157.834 184.092 158.154 183.522 158.514 182.952C158.555 182.877 158.565 182.79 158.543 182.708C158.52 182.626 158.467 182.556 158.394 182.512C158.318 182.472 158.23 182.464 158.148 182.488C158.066 182.512 157.996 182.568 157.954 182.642C157.644 183.212 157.324 183.772 157.004 184.332C156.96 184.406 156.946 184.495 156.967 184.58C156.988 184.664 157.041 184.737 157.114 184.782C157.166 184.81 157.225 184.824 157.284 184.822H157.234ZM159.094 181.402C159.154 181.401 159.213 181.384 159.264 181.352C159.315 181.321 159.357 181.276 159.384 181.222C159.684 180.642 159.974 180.052 160.254 179.472C160.273 179.434 160.284 179.393 160.286 179.35C160.289 179.308 160.283 179.266 160.269 179.226C160.255 179.186 160.233 179.149 160.205 179.117C160.177 179.086 160.143 179.06 160.104 179.042C160.066 179.023 160.025 179.012 159.983 179.01C159.94 179.007 159.898 179.013 159.858 179.027C159.818 179.041 159.781 179.063 159.75 179.091C159.718 179.119 159.692 179.154 159.674 179.192C159.394 179.772 159.104 180.352 158.804 180.932C158.786 180.97 158.775 181.011 158.772 181.054C158.77 181.096 158.775 181.138 158.789 181.178C158.803 181.218 158.825 181.255 158.853 181.287C158.882 181.318 158.916 181.344 158.954 181.362C158.981 181.382 159.012 181.396 159.045 181.403C159.078 181.41 159.112 181.41 159.144 181.402H159.094ZM160.784 177.882C160.847 177.881 160.908 177.863 160.961 177.829C161.014 177.796 161.057 177.748 161.084 177.692L161.864 175.902C161.897 175.821 161.897 175.73 161.863 175.65C161.829 175.569 161.765 175.505 161.684 175.472C161.605 175.442 161.516 175.444 161.438 175.478C161.36 175.511 161.298 175.574 161.264 175.652C161.014 176.242 160.754 176.832 160.494 177.432C160.476 177.47 160.466 177.511 160.464 177.553C160.462 177.595 160.469 177.637 160.484 177.676C160.499 177.716 160.522 177.752 160.551 177.782C160.58 177.812 160.615 177.836 160.654 177.852C160.71 177.88 160.773 177.89 160.834 177.882H160.784ZM162.294 174.292C162.358 174.291 162.421 174.272 162.474 174.237C162.527 174.201 162.569 174.151 162.594 174.092C162.834 173.472 163.064 172.862 163.294 172.252C163.308 172.212 163.314 172.17 163.312 172.127C163.31 172.085 163.299 172.043 163.28 172.005C163.262 171.967 163.236 171.933 163.204 171.905C163.172 171.877 163.135 171.856 163.094 171.842C163.015 171.816 162.928 171.821 162.852 171.856C162.775 171.891 162.716 171.954 162.684 172.032C162.464 172.642 162.234 173.242 161.994 173.852C161.964 173.932 161.966 174.02 162 174.098C162.033 174.177 162.096 174.239 162.174 174.272L162.294 174.292ZM163.634 170.632C163.701 170.631 163.766 170.61 163.82 170.57C163.873 170.531 163.913 170.475 163.934 170.412C164.154 169.792 164.354 169.172 164.544 168.552C164.57 168.47 164.562 168.381 164.523 168.304C164.483 168.228 164.416 168.17 164.334 168.142C164.252 168.117 164.163 168.124 164.087 168.164C164.01 168.203 163.952 168.271 163.924 168.352C163.734 168.972 163.534 169.582 163.324 170.202C163.299 170.284 163.307 170.373 163.346 170.45C163.385 170.526 163.453 170.585 163.534 170.612L163.634 170.632ZM164.794 166.912C164.865 166.91 164.933 166.886 164.989 166.843C165.045 166.8 165.085 166.74 165.104 166.672C165.284 166.042 165.464 165.412 165.624 164.792C165.646 164.709 165.634 164.62 165.591 164.545C165.548 164.47 165.477 164.415 165.394 164.392C165.354 164.382 165.311 164.379 165.27 164.385C165.228 164.391 165.188 164.405 165.152 164.426C165.115 164.448 165.084 164.476 165.058 164.509C165.033 164.543 165.015 164.581 165.004 164.622C164.834 165.242 164.664 165.872 164.484 166.492C164.472 166.533 164.468 166.575 164.473 166.618C164.477 166.66 164.49 166.701 164.51 166.738C164.531 166.775 164.559 166.808 164.592 166.835C164.625 166.861 164.663 166.881 164.704 166.892L164.794 166.912ZM165.794 163.142C165.866 163.14 165.935 163.114 165.991 163.069C166.047 163.024 166.087 162.962 166.104 162.892C166.254 162.252 166.404 161.612 166.534 160.982C166.545 160.941 166.546 160.899 166.54 160.857C166.533 160.816 166.518 160.776 166.496 160.741C166.473 160.705 166.444 160.674 166.409 160.651C166.375 160.627 166.336 160.61 166.294 160.602C166.253 160.592 166.21 160.59 166.168 160.596C166.126 160.603 166.085 160.618 166.049 160.64C166.012 160.662 165.981 160.692 165.956 160.726C165.931 160.761 165.914 160.8 165.904 160.842C165.774 161.472 165.624 162.102 165.474 162.742C165.456 162.825 165.471 162.913 165.516 162.985C165.56 163.058 165.632 163.111 165.714 163.132L165.794 163.142ZM166.614 159.322C166.69 159.323 166.763 159.298 166.822 159.25C166.88 159.203 166.92 159.136 166.934 159.062C167.054 158.422 167.174 157.782 167.284 157.142C167.299 157.059 167.28 156.973 167.231 156.903C167.182 156.834 167.108 156.787 167.024 156.772C166.982 156.763 166.939 156.763 166.897 156.772C166.855 156.78 166.815 156.797 166.779 156.821C166.744 156.846 166.713 156.877 166.69 156.913C166.667 156.949 166.651 156.99 166.644 157.032C166.534 157.662 166.424 158.302 166.294 158.942C166.286 158.984 166.285 159.028 166.294 159.07C166.302 159.112 166.319 159.152 166.344 159.187C166.368 159.223 166.399 159.253 166.435 159.276C166.471 159.299 166.512 159.315 166.554 159.322H166.614ZM167.274 155.482C167.352 155.485 167.427 155.459 167.487 155.409C167.546 155.359 167.584 155.289 167.594 155.212C167.694 154.562 167.784 153.912 167.864 153.272C167.87 153.23 167.867 153.187 167.856 153.146C167.845 153.105 167.826 153.067 167.8 153.033C167.774 153 167.741 152.972 167.704 152.951C167.667 152.93 167.626 152.917 167.584 152.912C167.542 152.905 167.499 152.907 167.457 152.917C167.416 152.928 167.377 152.947 167.343 152.973C167.309 152.999 167.281 153.032 167.261 153.07C167.24 153.108 167.228 153.149 167.224 153.192C167.144 153.819 167.054 154.459 166.954 155.112C166.943 155.197 166.964 155.283 167.015 155.352C167.065 155.421 167.14 155.467 167.224 155.482H167.274ZM167.764 151.612C167.845 151.615 167.923 151.586 167.983 151.532C168.043 151.478 168.079 151.403 168.084 151.322C168.154 150.672 168.224 150.022 168.274 149.382C168.28 149.296 168.252 149.211 168.196 149.146C168.139 149.081 168.06 149.04 167.974 149.032C167.932 149.026 167.89 149.03 167.85 149.042C167.809 149.053 167.772 149.074 167.74 149.101C167.707 149.128 167.681 149.162 167.663 149.2C167.645 149.238 167.635 149.28 167.634 149.322C167.574 149.962 167.514 150.612 167.444 151.262C167.44 151.304 167.444 151.347 167.457 151.387C167.469 151.427 167.489 151.465 167.516 151.497C167.543 151.53 167.576 151.557 167.614 151.577C167.651 151.596 167.692 151.608 167.734 151.612H167.764ZM168.094 147.732C168.176 147.732 168.254 147.701 168.314 147.646C168.373 147.59 168.409 147.513 168.414 147.432C168.414 146.762 168.494 146.112 168.514 145.432C168.517 145.389 168.511 145.346 168.497 145.306C168.483 145.265 168.46 145.228 168.431 145.196C168.402 145.165 168.367 145.139 168.328 145.121C168.289 145.103 168.247 145.093 168.204 145.092C168.12 145.096 168.04 145.129 167.978 145.186C167.916 145.242 167.876 145.319 167.864 145.402C167.864 146.042 167.864 146.692 167.774 147.342C167.769 147.428 167.797 147.513 167.853 147.578C167.909 147.644 167.989 147.684 168.074 147.692L168.094 147.732ZM168.244 143.832C168.329 143.832 168.411 143.798 168.471 143.738C168.531 143.678 168.564 143.597 168.564 143.512C168.564 143.052 168.564 142.602 168.564 142.152V141.562C168.564 141.477 168.531 141.396 168.471 141.336C168.411 141.276 168.329 141.242 168.244 141.242C168.159 141.242 168.078 141.276 168.018 141.336C167.958 141.396 167.924 141.477 167.924 141.562V142.152C167.924 142.602 167.924 143.052 167.924 143.502C167.923 143.545 167.93 143.588 167.946 143.628C167.961 143.668 167.985 143.704 168.014 143.735C168.044 143.766 168.08 143.79 168.119 143.807C168.159 143.823 168.201 143.832 168.244 143.832ZM168.244 139.932C168.287 139.932 168.33 139.923 168.369 139.907C168.409 139.89 168.444 139.866 168.474 139.835C168.504 139.804 168.527 139.768 168.543 139.728C168.558 139.688 168.566 139.645 168.564 139.602C168.564 138.932 168.504 138.282 168.474 137.602C168.467 137.516 168.426 137.437 168.36 137.381C168.295 137.325 168.21 137.296 168.124 137.302C168.082 137.305 168.041 137.315 168.003 137.334C167.965 137.352 167.932 137.378 167.904 137.41C167.876 137.441 167.854 137.478 167.841 137.518C167.827 137.558 167.822 137.6 167.824 137.642C167.824 138.272 167.894 138.922 167.914 139.582C167.91 139.629 167.915 139.677 167.931 139.721C167.947 139.766 167.973 139.806 168.006 139.84C168.04 139.873 168.08 139.899 168.125 139.915C168.17 139.931 168.217 139.937 168.264 139.932H168.244ZM168.014 136.042C168.056 136.038 168.097 136.026 168.135 136.007C168.172 135.987 168.205 135.96 168.232 135.927C168.259 135.895 168.279 135.857 168.292 135.817C168.304 135.777 168.308 135.734 168.304 135.692C168.244 135.025 168.174 134.359 168.094 133.692C168.091 133.649 168.078 133.608 168.058 133.57C168.038 133.532 168.01 133.499 167.976 133.473C167.942 133.447 167.903 133.428 167.861 133.417C167.82 133.407 167.777 133.405 167.734 133.412C167.65 133.424 167.574 133.469 167.522 133.536C167.47 133.603 167.446 133.688 167.454 133.772C167.534 134.382 167.604 135.032 167.664 135.702C167.66 135.751 167.668 135.801 167.686 135.847C167.704 135.892 167.733 135.933 167.77 135.966C167.807 135.999 167.851 136.023 167.898 136.036C167.946 136.05 167.996 136.051 168.044 136.042H168.014ZM167.534 132.172C167.618 132.157 167.692 132.11 167.741 132.041C167.79 131.971 167.809 131.886 167.794 131.802L167.734 131.412C167.644 130.902 167.544 130.412 167.444 129.872C167.436 129.831 167.419 129.791 167.396 129.756C167.372 129.721 167.342 129.691 167.306 129.668C167.271 129.645 167.231 129.629 167.19 129.621C167.148 129.613 167.106 129.613 167.064 129.622C167.022 129.629 166.982 129.645 166.946 129.668C166.91 129.691 166.88 129.722 166.856 129.757C166.833 129.793 166.817 129.833 166.81 129.875C166.802 129.917 166.804 129.961 166.814 130.002C166.914 130.512 167.004 131.002 167.094 131.522L167.164 131.902C167.169 131.947 167.183 131.991 167.205 132.03C167.228 132.069 167.259 132.102 167.296 132.128C167.334 132.154 167.376 132.171 167.42 132.178C167.465 132.186 167.511 132.184 167.554 132.172H167.534ZM166.764 128.352H166.834C166.875 128.344 166.915 128.327 166.949 128.304C166.984 128.28 167.013 128.249 167.036 128.214C167.058 128.178 167.073 128.138 167.08 128.097C167.086 128.055 167.085 128.013 167.074 127.972C166.924 127.332 166.774 126.702 166.604 126.062C166.593 126.021 166.573 125.983 166.547 125.95C166.52 125.916 166.488 125.889 166.45 125.868C166.413 125.848 166.372 125.835 166.33 125.83C166.288 125.826 166.245 125.83 166.204 125.842C166.164 125.853 166.125 125.871 166.092 125.896C166.058 125.922 166.03 125.953 166.008 125.989C165.987 126.026 165.973 126.066 165.967 126.107C165.961 126.149 165.964 126.191 165.974 126.232C166.144 126.862 166.304 127.482 166.444 128.112C166.465 128.185 166.51 128.249 166.572 128.292C166.634 128.336 166.709 128.357 166.784 128.352H166.764ZM165.764 124.592H165.854C165.895 124.581 165.933 124.561 165.967 124.535C166 124.508 166.028 124.475 166.048 124.438C166.069 124.401 166.081 124.36 166.086 124.318C166.09 124.275 166.087 124.233 166.074 124.192C165.884 123.562 165.684 122.942 165.474 122.322C165.461 122.282 165.439 122.245 165.411 122.213C165.383 122.181 165.349 122.155 165.311 122.136C165.273 122.118 165.232 122.107 165.189 122.104C165.147 122.102 165.104 122.108 165.064 122.122C165.024 122.136 164.987 122.157 164.955 122.185C164.923 122.213 164.897 122.247 164.878 122.285C164.86 122.323 164.849 122.365 164.847 122.407C164.844 122.45 164.85 122.492 164.864 122.532C165.074 123.142 165.264 123.762 165.454 124.382C165.478 124.447 165.522 124.502 165.579 124.54C165.637 124.578 165.705 124.596 165.774 124.592H165.764ZM164.514 120.892C164.55 120.901 164.588 120.901 164.624 120.892C164.704 120.863 164.768 120.803 164.804 120.726C164.84 120.649 164.843 120.562 164.814 120.482C164.584 119.872 164.344 119.262 164.084 118.662C164.069 118.622 164.046 118.586 164.016 118.556C163.987 118.525 163.951 118.501 163.912 118.484C163.873 118.467 163.831 118.458 163.788 118.458C163.746 118.458 163.704 118.466 163.664 118.482C163.625 118.498 163.59 118.522 163.561 118.552C163.531 118.582 163.508 118.618 163.492 118.657C163.476 118.696 163.468 118.738 163.469 118.78C163.469 118.822 163.478 118.863 163.494 118.902C163.744 119.502 163.984 120.102 164.204 120.712C164.234 120.77 164.28 120.819 164.337 120.851C164.394 120.883 164.459 120.897 164.524 120.892H164.514ZM163.044 117.352C163.09 117.361 163.138 117.361 163.184 117.352C163.262 117.315 163.321 117.25 163.351 117.169C163.381 117.089 163.379 117 163.344 116.922C163.064 116.332 162.784 115.742 162.484 115.152C162.444 115.078 162.377 115.023 162.297 114.997C162.217 114.971 162.13 114.976 162.054 115.012C161.976 115.051 161.917 115.119 161.889 115.201C161.861 115.284 161.866 115.374 161.904 115.452C162.204 116.022 162.484 116.602 162.754 117.192C162.783 117.243 162.825 117.286 162.876 117.314C162.927 117.342 162.986 117.356 163.044 117.352ZM161.284 113.872C161.333 113.886 161.385 113.886 161.434 113.872C161.472 113.852 161.506 113.825 161.533 113.792C161.56 113.759 161.58 113.721 161.592 113.68C161.604 113.638 161.608 113.595 161.603 113.553C161.599 113.51 161.585 113.469 161.564 113.432C161.244 112.862 160.914 112.292 160.564 111.742C160.544 111.705 160.516 111.672 160.482 111.646C160.448 111.62 160.409 111.602 160.368 111.591C160.327 111.581 160.284 111.579 160.242 111.586C160.2 111.593 160.16 111.609 160.124 111.632C160.088 111.654 160.057 111.682 160.031 111.716C160.006 111.75 159.988 111.788 159.978 111.829C159.968 111.87 159.966 111.913 159.972 111.954C159.978 111.996 159.992 112.036 160.014 112.072C160.354 112.622 160.674 113.182 161.014 113.752C161.047 113.78 161.086 113.8 161.127 113.812C161.168 113.824 161.212 113.828 161.254 113.822L161.284 113.872ZM159.284 110.542C159.343 110.56 159.406 110.56 159.464 110.542C159.5 110.519 159.531 110.489 159.555 110.453C159.579 110.418 159.596 110.378 159.604 110.336C159.613 110.294 159.613 110.251 159.604 110.209C159.595 110.167 159.579 110.127 159.554 110.092C159.184 109.552 158.814 109.012 158.424 108.482C158.373 108.415 158.297 108.37 158.213 108.357C158.129 108.344 158.044 108.364 157.974 108.412C157.907 108.464 157.862 108.539 157.849 108.623C157.836 108.707 157.856 108.792 157.904 108.862C158.284 109.382 158.654 109.912 159.014 110.452C159.078 110.489 159.152 110.503 159.224 110.492L159.284 110.542ZM115.284 108.332H115.694C115.736 108.33 115.777 108.319 115.815 108.3C115.853 108.282 115.887 108.256 115.915 108.224C115.943 108.193 115.964 108.156 115.978 108.116C115.991 108.076 115.997 108.034 115.994 107.992C115.993 107.95 115.983 107.908 115.965 107.869C115.947 107.831 115.921 107.796 115.889 107.768C115.858 107.74 115.82 107.719 115.78 107.706C115.739 107.693 115.697 107.688 115.654 107.692C115.272 107.727 114.887 107.727 114.504 107.692C114.275 107.663 114.048 107.62 113.824 107.562C113.741 107.541 113.652 107.553 113.577 107.596C113.503 107.639 113.448 107.709 113.424 107.792C113.414 107.833 113.412 107.876 113.418 107.919C113.425 107.961 113.44 108.001 113.462 108.038C113.484 108.074 113.514 108.105 113.549 108.13C113.583 108.155 113.623 108.173 113.664 108.182C113.917 108.252 114.174 108.302 114.434 108.332C114.682 108.327 114.929 108.31 115.174 108.282L115.284 108.332ZM117.584 107.942H117.684C118.334 107.714 118.939 107.376 119.474 106.942C119.534 106.88 119.568 106.798 119.568 106.712C119.568 106.626 119.534 106.544 119.474 106.482C119.444 106.451 119.409 106.427 119.369 106.41C119.33 106.393 119.287 106.385 119.244 106.385C119.201 106.385 119.159 106.393 119.119 106.41C119.08 106.427 119.044 106.451 119.014 106.482C118.536 106.864 117.999 107.164 117.424 107.372C117.384 107.386 117.347 107.407 117.315 107.435C117.283 107.463 117.257 107.497 117.238 107.535C117.22 107.573 117.209 107.615 117.207 107.657C117.204 107.7 117.21 107.742 117.224 107.782C117.256 107.817 117.294 107.845 117.337 107.864C117.38 107.883 117.427 107.893 117.474 107.892L117.584 107.942ZM157.034 107.402C157.107 107.403 157.178 107.378 157.234 107.332C157.294 107.27 157.328 107.188 157.328 107.102C157.328 107.016 157.294 106.934 157.234 106.872C156.824 106.362 156.394 105.872 155.974 105.372C155.913 105.312 155.83 105.279 155.744 105.279C155.658 105.279 155.576 105.312 155.514 105.372C155.454 105.434 155.421 105.516 155.421 105.602C155.421 105.688 155.454 105.77 155.514 105.832C155.934 106.312 156.354 106.832 156.754 107.312C156.807 107.34 156.865 107.354 156.924 107.352L157.034 107.402ZM111.974 107.352C112.027 107.351 112.079 107.337 112.125 107.313C112.172 107.289 112.213 107.254 112.244 107.212C112.29 107.139 112.305 107.051 112.286 106.967C112.267 106.883 112.216 106.809 112.144 106.762C111.628 106.419 111.161 106.009 110.754 105.542C110.694 105.483 110.614 105.45 110.529 105.45C110.445 105.45 110.364 105.483 110.304 105.542C110.244 105.604 110.211 105.686 110.211 105.772C110.211 105.858 110.244 105.94 110.304 106.002C110.748 106.519 111.263 106.971 111.834 107.342C111.844 107.346 111.854 107.349 111.864 107.352H111.974ZM120.504 105.502C120.562 105.501 120.618 105.484 120.667 105.454C120.716 105.424 120.756 105.382 120.784 105.332C121.114 104.709 121.328 104.032 121.414 103.332C121.42 103.29 121.417 103.247 121.406 103.206C121.395 103.165 121.376 103.127 121.35 103.093C121.324 103.06 121.291 103.032 121.254 103.011C121.217 102.99 121.176 102.977 121.134 102.972C121.051 102.961 120.966 102.983 120.899 103.033C120.831 103.084 120.787 103.159 120.774 103.242C120.691 103.849 120.505 104.438 120.224 104.982C120.203 105.019 120.19 105.06 120.185 105.103C120.18 105.145 120.184 105.188 120.196 105.23C120.208 105.271 120.229 105.309 120.256 105.342C120.283 105.375 120.316 105.402 120.354 105.422C120.367 105.433 120.38 105.443 120.394 105.452L120.504 105.502ZM154.454 104.502C154.54 104.503 154.622 104.471 154.684 104.412C154.744 104.35 154.778 104.268 154.778 104.182C154.778 104.096 154.744 104.014 154.684 103.952C154.224 103.482 153.754 103.022 153.284 102.572C153.223 102.512 153.14 102.479 153.054 102.479C152.968 102.479 152.886 102.512 152.824 102.572C152.765 102.632 152.732 102.713 152.732 102.797C152.732 102.881 152.765 102.962 152.824 103.022C153.284 103.462 153.744 103.922 154.194 104.382C154.24 104.408 154.292 104.422 154.344 104.422L154.454 104.502ZM109.454 104.502C109.504 104.512 109.555 104.512 109.604 104.502C109.679 104.46 109.734 104.391 109.76 104.309C109.786 104.228 109.781 104.14 109.744 104.062C109.463 103.506 109.258 102.914 109.134 102.302C109.125 102.26 109.107 102.221 109.082 102.186C109.058 102.152 109.026 102.122 108.99 102.1C108.953 102.078 108.913 102.063 108.871 102.056C108.829 102.05 108.786 102.052 108.744 102.062C108.703 102.07 108.663 102.087 108.628 102.111C108.593 102.134 108.563 102.165 108.54 102.2C108.517 102.235 108.501 102.275 108.493 102.316C108.485 102.358 108.486 102.401 108.494 102.442C108.639 103.104 108.864 103.745 109.164 104.352C109.212 104.382 109.268 104.399 109.324 104.402L109.454 104.502ZM151.644 101.852C151.69 101.852 151.735 101.842 151.776 101.823C151.818 101.804 151.854 101.776 151.884 101.742C151.944 101.68 151.978 101.598 151.978 101.512C151.978 101.426 151.944 101.344 151.884 101.282L151.284 100.782L150.354 100.052C150.285 99.9995 150.198 99.9763 150.112 99.9876C150.026 99.9988 149.948 100.044 149.894 100.112C149.845 100.181 149.823 100.265 149.835 100.349C149.846 100.433 149.889 100.509 149.954 100.562L150.874 101.282L151.464 101.782C151.482 101.774 151.499 101.764 151.514 101.752L151.644 101.852ZM121.124 101.762C121.21 101.752 121.289 101.709 121.343 101.641C121.397 101.574 121.423 101.488 121.414 101.402C121.338 100.724 121.197 100.054 120.994 99.402C120.983 99.3611 120.963 99.3229 120.937 99.2896C120.91 99.2564 120.878 99.2287 120.84 99.2082C120.803 99.1877 120.762 99.1748 120.72 99.1703C120.678 99.1659 120.635 99.1698 120.594 99.182C120.553 99.1934 120.515 99.2129 120.483 99.2395C120.45 99.2661 120.422 99.2992 120.403 99.3366C120.383 99.3741 120.371 99.4152 120.368 99.4574C120.365 99.4996 120.37 99.5421 120.384 99.5821C120.566 100.187 120.696 100.806 120.774 101.432C120.788 101.486 120.815 101.536 120.854 101.576C120.892 101.617 120.941 101.646 120.994 101.662L121.124 101.762ZM108.674 100.762C108.756 100.762 108.834 100.731 108.894 100.676C108.953 100.62 108.989 100.543 108.994 100.462C109.04 99.8472 109.182 99.2433 109.414 98.6721C109.431 98.6333 109.439 98.5917 109.44 98.5496C109.44 98.5075 109.432 98.4658 109.416 98.4268C109.401 98.3878 109.377 98.3522 109.348 98.3223C109.318 98.2923 109.283 98.2684 109.244 98.252C109.206 98.2356 109.164 98.2269 109.122 98.2266C109.08 98.2262 109.038 98.2341 108.999 98.2499C108.96 98.2657 108.924 98.289 108.894 98.3186C108.865 98.3481 108.841 98.3833 108.824 98.4221C108.559 99.0585 108.4 99.7342 108.354 100.422C108.35 100.465 108.355 100.508 108.368 100.549C108.381 100.59 108.402 100.628 108.43 100.661C108.458 100.694 108.492 100.72 108.531 100.739C108.569 100.758 108.611 100.77 108.654 100.772L108.674 100.762ZM148.414 99.3521C148.467 99.3529 148.52 99.3406 148.567 99.3162C148.614 99.2918 148.654 99.2559 148.684 99.212C148.732 99.1412 148.75 99.0548 148.735 98.9709C148.72 98.8871 148.673 98.8122 148.604 98.7621C148.064 98.3921 147.504 98.032 146.954 97.692C146.88 97.6476 146.791 97.6342 146.707 97.6548C146.623 97.6754 146.55 97.7283 146.504 97.8021C146.483 97.8382 146.468 97.8782 146.462 97.9198C146.456 97.9615 146.458 98.004 146.468 98.0449C146.478 98.0858 146.496 98.1242 146.521 98.1581C146.547 98.1919 146.578 98.2205 146.614 98.2421C147.161 98.5821 147.701 98.9321 148.234 99.2921C148.287 99.3298 148.35 99.3507 148.414 99.3521ZM119.914 97.902C119.957 97.9122 120.002 97.9122 120.044 97.902C120.123 97.8669 120.185 97.8022 120.217 97.7218C120.249 97.6414 120.248 97.5517 120.214 97.472C119.964 96.902 119.674 96.3021 119.344 95.7021C119.324 95.6642 119.297 95.6307 119.264 95.6036C119.231 95.5765 119.193 95.5562 119.152 95.5441C119.111 95.532 119.068 95.5282 119.025 95.533C118.983 95.5378 118.942 95.5511 118.904 95.5721C118.83 95.6142 118.775 95.6837 118.75 95.7658C118.726 95.8479 118.735 95.9362 118.774 96.0121C119.094 96.5921 119.384 97.1721 119.624 97.7321C119.648 97.7901 119.688 97.84 119.739 97.8755C119.791 97.9111 119.852 97.9307 119.914 97.932V97.902ZM145.044 97.3521C145.104 97.3534 145.162 97.3382 145.213 97.3082C145.265 97.2782 145.306 97.2345 145.334 97.182C145.374 97.1062 145.382 97.0179 145.358 96.9358C145.334 96.8537 145.279 96.7842 145.204 96.7421C144.634 96.4321 144.044 96.132 143.454 95.842C143.416 95.8234 143.375 95.8125 143.333 95.8099C143.29 95.8074 143.248 95.8133 143.208 95.8272C143.168 95.8412 143.131 95.8629 143.1 95.8912C143.068 95.9195 143.042 95.9538 143.024 95.9921C143.006 96.0301 142.995 96.0715 142.992 96.1137C142.99 96.156 142.995 96.1984 143.009 96.2384C143.023 96.2784 143.045 96.3152 143.073 96.3467C143.102 96.3783 143.136 96.4039 143.174 96.4221C143.754 96.7021 144.334 97.002 144.894 97.312C144.939 97.3392 144.992 97.3531 145.044 97.3521ZM109.964 97.1021C110.012 97.1014 110.059 97.0903 110.103 97.0696C110.146 97.0489 110.184 97.019 110.214 96.9821C110.619 96.5091 111.075 96.0831 111.574 95.712C111.61 95.6882 111.64 95.6572 111.663 95.6212C111.686 95.5851 111.701 95.5446 111.708 95.5024C111.714 95.4601 111.712 95.4169 111.701 95.3756C111.69 95.3342 111.671 95.2956 111.644 95.2621C111.62 95.2265 111.589 95.1964 111.553 95.1734C111.517 95.1504 111.477 95.1352 111.435 95.1286C111.392 95.122 111.349 95.1243 111.308 95.1352C111.266 95.1461 111.228 95.1655 111.194 95.192C110.65 95.5942 110.153 96.0572 109.714 96.5721C109.657 96.6331 109.626 96.7135 109.626 96.7971C109.626 96.8806 109.657 96.961 109.714 97.0221C109.758 97.0614 109.812 97.0886 109.87 97.1009C109.928 97.1131 109.988 97.1101 110.044 97.092L109.964 97.1021ZM141.544 95.652C141.608 95.6491 141.669 95.6289 141.722 95.5937C141.775 95.5584 141.817 95.5095 141.844 95.4521C141.861 95.4133 141.869 95.3717 141.87 95.3296C141.87 95.2875 141.862 95.2458 141.846 95.2068C141.831 95.1678 141.807 95.1322 141.778 95.1023C141.748 95.0723 141.713 95.0484 141.674 95.032C141.064 94.772 140.454 94.5321 139.844 94.3021C139.763 94.2727 139.674 94.2761 139.596 94.3116C139.517 94.3471 139.456 94.4118 139.424 94.4921C139.395 94.5743 139.4 94.6646 139.438 94.7433C139.475 94.822 139.542 94.8826 139.624 94.912C140.224 95.132 140.824 95.372 141.414 95.622C141.471 95.6465 141.534 95.6535 141.594 95.6421L141.544 95.652ZM113.054 94.7721C113.1 94.7866 113.149 94.7866 113.194 94.7721C113.767 94.4959 114.354 94.2522 114.954 94.0421C114.995 94.0286 115.032 94.0072 115.064 93.9792C115.096 93.9512 115.122 93.9171 115.14 93.8789C115.159 93.8408 115.17 93.7993 115.172 93.7569C115.174 93.7145 115.168 93.6721 115.154 93.632C115.141 93.5918 115.119 93.5546 115.091 93.5227C115.063 93.4908 115.029 93.4648 114.991 93.4462C114.953 93.4276 114.912 93.4167 114.869 93.4143C114.827 93.4119 114.784 93.4179 114.744 93.432C114.117 93.6504 113.503 93.9042 112.904 94.192C112.828 94.2325 112.771 94.3012 112.745 94.3835C112.718 94.4657 112.725 94.555 112.764 94.632C112.801 94.6857 112.853 94.7269 112.914 94.7501C112.975 94.7733 113.041 94.7775 113.104 94.7621L113.054 94.7721ZM118.054 94.502C118.115 94.5058 118.175 94.4881 118.224 94.4521C118.261 94.4306 118.292 94.4019 118.317 94.3678C118.342 94.3337 118.36 94.2948 118.369 94.2536C118.379 94.2124 118.379 94.1697 118.372 94.1282C118.364 94.0867 118.348 94.0471 118.324 94.0121C118.164 93.7521 117.994 93.5021 117.824 93.2321L118.714 93.0521C118.798 93.0374 118.872 92.9902 118.921 92.9208C118.97 92.8515 118.989 92.7656 118.974 92.682C118.967 92.6397 118.951 92.5992 118.928 92.563C118.905 92.5268 118.875 92.4956 118.839 92.4714C118.804 92.4471 118.764 92.4303 118.722 92.4218C118.68 92.4133 118.636 92.4134 118.594 92.4221C118.204 92.4921 117.814 92.572 117.434 92.662L117.234 92.382C117.21 92.3469 117.179 92.3169 117.144 92.2938C117.108 92.2707 117.068 92.255 117.026 92.2475C116.984 92.2401 116.941 92.2411 116.9 92.2504C116.858 92.2598 116.819 92.2774 116.784 92.3021C116.749 92.3261 116.719 92.3569 116.696 92.3926C116.673 92.4284 116.657 92.4683 116.65 92.5103C116.642 92.5522 116.643 92.5951 116.653 92.6366C116.662 92.6781 116.68 92.7174 116.704 92.752L116.754 92.8221H116.674C116.591 92.8455 116.519 92.9 116.475 92.9744C116.43 93.0487 116.416 93.1373 116.434 93.222C116.46 93.3037 116.515 93.3727 116.589 93.4153C116.663 93.4579 116.751 93.471 116.834 93.4521L117.144 93.382C117.374 93.702 117.584 94.032 117.784 94.382C117.816 94.4197 117.856 94.4492 117.901 94.4684C117.946 94.4875 117.995 94.4956 118.044 94.4921L118.054 94.502ZM137.914 94.2921C137.983 94.295 138.051 94.275 138.107 94.2351C138.163 94.1953 138.204 94.1379 138.224 94.0721C138.25 93.9898 138.242 93.9009 138.203 93.8243C138.163 93.7478 138.096 93.6895 138.014 93.662C137.394 93.472 136.754 93.282 136.124 93.122C136.084 93.1101 136.041 93.1066 135.999 93.1118C135.957 93.117 135.916 93.1309 135.879 93.1524C135.843 93.174 135.811 93.2028 135.786 93.2372C135.761 93.2715 135.744 93.3106 135.734 93.3521C135.724 93.3928 135.721 93.4351 135.727 93.4768C135.733 93.5184 135.747 93.5585 135.768 93.5947C135.79 93.6309 135.818 93.6626 135.852 93.6879C135.885 93.7131 135.924 93.7316 135.964 93.7421C136.584 93.9021 137.204 94.092 137.824 94.282L137.914 94.2921ZM134.154 93.2921C134.229 93.293 134.301 93.2673 134.358 93.2196C134.414 93.1719 134.452 93.1053 134.464 93.032C134.473 92.9907 134.474 92.948 134.466 92.9064C134.458 92.8648 134.442 92.8252 134.419 92.7899C134.395 92.7545 134.365 92.7242 134.33 92.7005C134.295 92.6769 134.256 92.6604 134.214 92.652C133.574 92.512 132.924 92.3921 132.284 92.2921C132.201 92.2775 132.115 92.2967 132.045 92.3455C131.976 92.3942 131.929 92.4685 131.914 92.5521C131.906 92.5943 131.906 92.6378 131.915 92.68C131.924 92.7221 131.942 92.7618 131.968 92.7966C131.993 92.8314 132.025 92.8606 132.063 92.8822C132.1 92.9038 132.141 92.9174 132.184 92.9221C132.814 93.0321 133.454 93.152 134.084 93.282L134.154 93.2921ZM120.584 92.7421C121.214 92.6521 121.864 92.582 122.504 92.532C122.59 92.5244 122.669 92.4835 122.725 92.4181C122.782 92.3527 122.81 92.268 122.804 92.182C122.801 92.1399 122.788 92.099 122.769 92.0616C122.749 92.0242 122.722 91.9911 122.69 91.9641C122.657 91.9371 122.62 91.9169 122.579 91.9045C122.539 91.8922 122.496 91.8879 122.454 91.8921C121.804 91.8921 121.144 92.0121 120.454 92.1021C120.412 92.1069 120.372 92.1202 120.336 92.1412C120.299 92.1621 120.267 92.1903 120.242 92.224C120.217 92.2577 120.198 92.2962 120.189 92.3371C120.179 92.378 120.177 92.4205 120.184 92.462C120.188 92.5106 120.203 92.5577 120.227 92.5997C120.252 92.6417 120.285 92.6776 120.326 92.7046C120.366 92.7316 120.413 92.749 120.461 92.7555C120.509 92.762 120.558 92.7574 120.604 92.7421H120.584ZM130.304 92.662C130.384 92.6624 130.461 92.6328 130.521 92.5792C130.58 92.5255 130.617 92.4516 130.624 92.372C130.633 92.2887 130.608 92.2053 130.556 92.1398C130.503 92.0744 130.427 92.0321 130.344 92.0221C129.694 91.9421 129.034 91.882 128.344 91.842C128.302 91.8393 128.26 91.845 128.22 91.8586C128.18 91.8722 128.144 91.8936 128.112 91.9214C128.08 91.9493 128.055 91.9831 128.036 92.021C128.018 92.0589 128.007 92.1 128.004 92.1421C128 92.1844 128.005 92.2271 128.018 92.2676C128.031 92.308 128.052 92.3454 128.08 92.3773C128.108 92.4091 128.143 92.4349 128.181 92.4529C128.22 92.471 128.262 92.4809 128.304 92.4821C128.944 92.5321 129.594 92.582 130.224 92.662H130.304ZM124.464 92.4221C125.114 92.4221 125.754 92.4221 126.404 92.4221C126.446 92.4234 126.487 92.4164 126.526 92.4014C126.565 92.3864 126.6 92.3638 126.63 92.3349C126.66 92.3059 126.684 92.2713 126.7 92.233C126.716 92.1948 126.724 92.1536 126.724 92.1121C126.726 92.07 126.719 92.0281 126.704 91.9888C126.689 91.9495 126.666 91.9135 126.638 91.8828C126.609 91.8522 126.574 91.8275 126.536 91.8102C126.498 91.7929 126.456 91.7833 126.414 91.782C125.754 91.782 125.104 91.782 124.414 91.782C124.371 91.7833 124.329 91.7932 124.29 91.8111C124.251 91.829 124.216 91.8546 124.187 91.8863C124.158 91.918 124.136 91.9553 124.122 91.9958C124.108 92.0363 124.102 92.0792 124.104 92.122C124.106 92.1679 124.118 92.2128 124.139 92.2537C124.16 92.2946 124.19 92.3305 124.226 92.3589C124.262 92.3874 124.303 92.4078 124.348 92.4187C124.393 92.4296 124.439 92.4307 124.484 92.4221H124.464ZM115.814 91.312C115.887 91.3129 115.958 91.2882 116.014 91.2421C116.073 91.1822 116.107 91.1013 116.107 91.0171C116.107 90.9328 116.073 90.852 116.014 90.7921C115.614 90.2721 115.194 89.7921 114.774 89.2621C114.714 89.2028 114.634 89.1696 114.549 89.1696C114.465 89.1696 114.384 89.2028 114.324 89.2621C114.264 89.3236 114.231 89.4062 114.231 89.4921C114.231 89.578 114.264 89.6605 114.324 89.722C114.734 90.202 115.154 90.722 115.544 91.212C115.576 91.2589 115.619 91.2966 115.67 91.3212C115.721 91.3458 115.778 91.3564 115.834 91.3521L115.814 91.312ZM113.274 88.312C113.315 88.3123 113.356 88.3044 113.393 88.289C113.431 88.2735 113.465 88.2508 113.494 88.222C113.525 88.1931 113.549 88.1582 113.566 88.1195C113.582 88.0808 113.591 88.0391 113.591 87.997C113.591 87.9549 113.582 87.9133 113.566 87.8746C113.549 87.8359 113.525 87.801 113.494 87.7721C113.044 87.2921 112.574 86.8321 112.094 86.3921C112.065 86.3615 112.03 86.3372 111.992 86.3205C111.953 86.3039 111.911 86.2953 111.869 86.2953C111.827 86.2953 111.785 86.3039 111.747 86.3205C111.708 86.3372 111.673 86.3615 111.644 86.3921C111.613 86.4219 111.589 86.4576 111.572 86.4971C111.555 86.5366 111.547 86.5791 111.547 86.622C111.547 86.665 111.555 86.7074 111.572 86.7469C111.589 86.7865 111.613 86.8222 111.644 86.8521C112.114 87.2821 112.574 87.7421 113.024 88.2021C113.051 88.25 113.09 88.2894 113.138 88.316C113.185 88.3425 113.24 88.355 113.294 88.3521L113.274 88.312ZM110.424 85.662C110.519 85.6596 110.609 85.6201 110.674 85.5521C110.734 85.4905 110.768 85.4079 110.768 85.3221C110.768 85.2362 110.734 85.1536 110.674 85.092C110.164 84.672 109.674 84.2721 109.114 83.8921C109.08 83.8673 109.04 83.8498 108.999 83.8404C108.957 83.8311 108.914 83.8301 108.872 83.8375C108.831 83.845 108.791 83.8607 108.755 83.8838C108.719 83.9069 108.688 83.9369 108.664 83.972C108.639 84.0061 108.621 84.0448 108.611 84.0859C108.601 84.1271 108.599 84.1698 108.605 84.2117C108.612 84.2535 108.626 84.2937 108.649 84.3298C108.671 84.3659 108.7 84.3973 108.734 84.4221C109.254 84.7954 109.764 85.1854 110.264 85.592C110.31 85.6486 110.373 85.6876 110.444 85.7021L110.424 85.662ZM107.254 83.402C107.308 83.4019 107.361 83.388 107.409 83.3618C107.456 83.3356 107.496 83.2978 107.524 83.252C107.57 83.1788 107.585 83.0908 107.566 83.0067C107.547 82.9226 107.496 82.8492 107.424 82.8021C106.864 82.4621 106.284 82.1321 105.704 81.8021C105.627 81.7632 105.538 81.7561 105.456 81.7823C105.373 81.8085 105.305 81.8658 105.264 81.942C105.226 82.0176 105.219 82.1054 105.245 82.186C105.272 82.2666 105.329 82.3335 105.404 82.372C105.974 82.672 106.534 82.992 107.084 83.372C107.11 83.3958 107.14 83.4143 107.172 83.4263C107.205 83.4383 107.24 83.4437 107.274 83.442L107.254 83.402ZM103.794 81.6021C103.857 81.6035 103.92 81.5863 103.973 81.5525C104.026 81.5187 104.069 81.4698 104.094 81.412C104.111 81.3733 104.119 81.3317 104.12 81.2896C104.12 81.2476 104.112 81.2058 104.096 81.1668C104.081 81.1278 104.057 81.0922 104.028 81.0623C103.998 81.0323 103.963 81.0084 103.924 80.9921C103.324 80.7321 102.704 80.4921 102.084 80.2721C102.044 80.2579 102.002 80.2519 101.959 80.2543C101.917 80.2567 101.876 80.2675 101.837 80.2862C101.799 80.3048 101.765 80.3308 101.737 80.3627C101.709 80.3946 101.688 80.4318 101.674 80.472C101.66 80.5121 101.654 80.5545 101.657 80.5969C101.659 80.6393 101.67 80.6808 101.688 80.7189C101.707 80.7571 101.733 80.7912 101.765 80.8192C101.797 80.8472 101.834 80.8686 101.874 80.882C102.474 81.092 103.084 81.3321 103.664 81.5821C103.708 81.6146 103.76 81.6352 103.814 81.6421L103.794 81.6021ZM78.8943 80.8021H78.9643L80.8643 80.402C80.9067 80.3949 80.9471 80.3792 80.9833 80.3561C81.0195 80.3329 81.0507 80.3027 81.0749 80.2672C81.0992 80.2318 81.1161 80.1918 81.1245 80.1497C81.133 80.1075 81.133 80.0642 81.1243 80.0221C81.1051 79.9396 81.055 79.8677 80.9842 79.8211C80.9135 79.7746 80.8276 79.757 80.7443 79.7721C80.1043 79.8921 79.4643 80.0321 78.8243 80.1721C78.7419 80.1912 78.6699 80.2414 78.6234 80.3121C78.5769 80.3828 78.5593 80.4687 78.5743 80.5521C78.5864 80.6333 78.6275 80.7074 78.69 80.7607C78.7525 80.8141 78.8321 80.8429 78.9143 80.842L78.8943 80.8021ZM100.114 80.3221C100.187 80.3244 100.258 80.3018 100.316 80.2582C100.375 80.2146 100.416 80.1525 100.434 80.0821C100.445 80.0414 100.447 79.9989 100.441 79.9573C100.435 79.9157 100.421 79.8756 100.4 79.8394C100.379 79.8032 100.35 79.7715 100.317 79.7462C100.283 79.7209 100.245 79.7025 100.204 79.692C99.5743 79.522 98.9343 79.3621 98.2843 79.2321C98.1995 79.2173 98.1124 79.2363 98.0415 79.2848C97.9705 79.3334 97.9212 79.4078 97.9043 79.4921C97.8892 79.5754 97.9068 79.6613 97.9533 79.732C97.9999 79.8027 98.0718 79.8529 98.1543 79.872C98.7943 79.992 99.4243 80.142 100.034 80.312L100.114 80.3221ZM82.7143 80.0421H82.7743C83.4409 79.9287 84.081 79.8287 84.6943 79.7421C84.7785 79.7273 84.8535 79.6805 84.9039 79.6115C84.9543 79.5425 84.9759 79.4567 84.9643 79.372C84.9594 79.3302 84.9462 79.2898 84.9252 79.2533C84.9042 79.2168 84.876 79.1849 84.8423 79.1596C84.8086 79.1344 84.7701 79.1163 84.7292 79.1064C84.6883 79.0965 84.6458 79.095 84.6043 79.1021C83.9543 79.1921 83.3143 79.292 82.6643 79.402C82.5808 79.4167 82.5065 79.4639 82.4577 79.5333C82.409 79.6026 82.3897 79.6885 82.4043 79.7721C82.4042 79.8145 82.4128 79.8565 82.4297 79.8955C82.4465 79.9345 82.4711 79.9696 82.502 79.9986C82.533 80.0277 82.5696 80.0501 82.6095 80.0645C82.6495 80.0788 82.6919 80.0848 82.7343 80.0821L82.7143 80.0421ZM96.3043 79.5521C96.3821 79.5506 96.4569 79.5217 96.5154 79.4705C96.574 79.4192 96.6125 79.349 96.6243 79.2721C96.6299 79.23 96.627 79.1872 96.6159 79.1462C96.6048 79.1053 96.5857 79.0669 96.5597 79.0334C96.5336 78.9999 96.5011 78.9719 96.4641 78.9511C96.4272 78.9302 96.3864 78.917 96.3443 78.912C95.7043 78.822 95.0443 78.7521 94.3443 78.7021C94.3027 78.6979 94.2609 78.7022 94.221 78.7147C94.1812 78.7272 94.1443 78.7476 94.1126 78.7747C94.0808 78.8018 94.0548 78.835 94.0362 78.8723C94.0176 78.9097 94.0068 78.9504 94.0043 78.9921C94.0002 79.0341 94.0044 79.0766 94.0168 79.117C94.0291 79.1574 94.0494 79.1949 94.0763 79.2275C94.1033 79.26 94.1365 79.2869 94.1739 79.3066C94.2113 79.3262 94.2522 79.3383 94.2943 79.342C94.9443 79.392 95.5943 79.4621 96.2143 79.5521H96.3043ZM86.5743 79.502C87.2143 79.432 87.8643 79.3821 88.5043 79.3321C88.5464 79.3295 88.5875 79.3187 88.6253 79.3002C88.6632 79.2817 88.697 79.256 88.7249 79.2244C88.7528 79.1928 88.7741 79.156 88.7878 79.1161C88.8014 79.0763 88.807 79.0341 88.8043 78.9921C88.8018 78.9491 88.7907 78.9071 88.7716 78.8685C88.7525 78.8299 88.7258 78.7956 88.6931 78.7676C88.6604 78.7396 88.6224 78.7185 88.5814 78.7055C88.5404 78.6925 88.4971 78.6879 88.4543 78.692C87.8043 78.692 87.1543 78.7921 86.4543 78.8621C86.4122 78.8658 86.3712 78.8779 86.3338 78.8975C86.2964 78.9172 86.2633 78.9441 86.2364 78.9766C86.2094 79.0092 86.1892 79.0467 86.1768 79.0871C86.1644 79.1275 86.1601 79.17 86.1643 79.212C86.1592 79.266 86.1679 79.3203 86.1895 79.37C86.2112 79.4196 86.2451 79.463 86.2881 79.4959C86.331 79.5289 86.3817 79.5504 86.4352 79.5585C86.4888 79.5666 86.5435 79.5609 86.5943 79.5421L86.5743 79.502ZM92.4143 79.2421C92.4984 79.2422 92.5795 79.2102 92.6408 79.1526C92.7022 79.0949 92.7392 79.016 92.7443 78.932C92.7456 78.8892 92.7383 78.8465 92.7229 78.8065C92.7074 78.7665 92.684 78.7301 92.6541 78.6993C92.6243 78.6685 92.5886 78.644 92.5491 78.6273C92.5096 78.6106 92.4672 78.602 92.4243 78.6021C91.7743 78.6021 91.1143 78.6021 90.4243 78.6021C90.3814 78.602 90.339 78.6106 90.2995 78.6273C90.26 78.644 90.2242 78.6685 90.1944 78.6993C90.1645 78.7301 90.1412 78.7665 90.1257 78.8065C90.1102 78.8465 90.1029 78.8892 90.1043 78.932C90.1069 79.0152 90.1417 79.094 90.2014 79.1519C90.2612 79.2098 90.3411 79.2421 90.4243 79.2421H92.3743H92.4143Z" fill="#999999"/>
<path d="M42.454 27.2125L39.6341 28.4325L28.3641 20.5725L25.3641 22.2325C22.9541 23.6725 20.6141 23.7725 19.4941 23.1325L19.264 23.2425C17.524 24.0025 16.494 23.3225 16.144 22.5025C15.794 21.6825 15.9941 20.5025 17.7341 19.7225L17.9641 19.6225C18.174 18.6225 19.0841 16.9425 22.6341 15.9525L25.9041 14.9025L27.9041 1.3125L30.7241 0.0825195L32.9141 12.6725L40.9741 9.91251L42.1941 6.6825L44.4341 5.85251L44.5941 8.85251L45.394 8.7825L46.1241 10.4525L45.524 11.0425L47.644 13.2425L45.5041 14.3125L42.3241 12.9925L34.7941 16.9925L42.454 27.2125ZM42.2441 12.2625L45.4441 13.5925L46.4441 13.0725L44.5041 11.0725L45.2341 10.3325L44.894 9.54251L43.894 9.63251L43.7441 6.83252L42.6541 7.23251L41.4341 10.4725L32.3141 13.5825L30.144 1.07251L28.454 1.80252L26.5041 15.4425L22.8141 16.6225C19.3741 17.5725 18.6941 19.1125 18.5941 19.9425V20.1525L18.394 20.2225C18.267 20.2587 18.1432 20.3055 18.024 20.3625C16.954 20.8225 16.4741 21.5525 16.7841 22.2525C17.0941 22.9525 17.944 23.1125 19.014 22.6425C19.1344 22.5939 19.2514 22.5371 19.3641 22.4725L19.5541 22.3625L19.7341 22.4925C20.4641 23.0325 22.5941 23.1325 25.0541 21.6725L28.4141 19.7925L39.7141 27.6825L41.4041 26.9525L33.7441 16.8125L42.2441 12.2625Z" fill="#999999"/>
<path d="M139.234 111.142C139.288 111.143 139.342 111.129 139.389 111.103C139.437 111.077 139.476 111.038 139.504 110.992C139.864 110.445 140.198 109.895 140.504 109.342C140.55 109.269 140.565 109.181 140.546 109.097C140.527 109.013 140.476 108.939 140.404 108.892C140.33 108.848 140.241 108.834 140.157 108.855C140.073 108.875 140 108.928 139.954 109.002C139.614 109.552 139.274 110.092 138.954 110.642C138.93 110.677 138.913 110.717 138.905 110.759C138.896 110.801 138.896 110.844 138.904 110.886C138.913 110.928 138.929 110.968 138.953 111.003C138.977 111.039 139.008 111.069 139.044 111.092C139.103 111.124 139.168 111.141 139.234 111.142ZM141.234 107.822C141.291 107.822 141.346 107.807 141.395 107.779C141.444 107.751 141.485 107.71 141.514 107.662C141.834 107.092 142.154 106.522 142.514 105.952C142.555 105.877 142.565 105.79 142.543 105.708C142.52 105.626 142.467 105.556 142.394 105.512C142.318 105.472 142.23 105.464 142.148 105.488C142.066 105.512 141.996 105.568 141.954 105.642C141.644 106.212 141.324 106.772 141.004 107.332C140.96 107.406 140.946 107.495 140.967 107.58C140.988 107.664 141.041 107.737 141.114 107.782C141.166 107.81 141.225 107.824 141.284 107.822H141.234ZM143.094 104.402C143.154 104.401 143.213 104.384 143.264 104.352C143.315 104.321 143.357 104.276 143.384 104.222C143.684 103.642 143.974 103.052 144.254 102.472C144.273 102.434 144.284 102.393 144.286 102.35C144.289 102.308 144.283 102.266 144.269 102.226C144.255 102.186 144.233 102.149 144.205 102.117C144.177 102.086 144.143 102.06 144.104 102.042C144.066 102.023 144.025 102.012 143.983 102.01C143.94 102.007 143.898 102.013 143.858 102.027C143.818 102.041 143.781 102.063 143.75 102.091C143.718 102.119 143.692 102.154 143.674 102.192C143.394 102.772 143.104 103.352 142.804 103.932C142.786 103.97 142.775 104.011 142.772 104.054C142.77 104.096 142.775 104.138 142.789 104.178C142.803 104.218 142.825 104.255 142.853 104.287C142.882 104.318 142.916 104.344 142.954 104.362C142.981 104.382 143.012 104.396 143.045 104.403C143.078 104.41 143.112 104.41 143.144 104.402H143.094ZM144.784 100.882C144.847 100.881 144.908 100.863 144.961 100.829C145.014 100.796 145.057 100.748 145.084 100.692L145.864 98.9021C145.897 98.8212 145.897 98.7304 145.863 98.6498C145.829 98.5692 145.765 98.5053 145.684 98.472C145.605 98.4421 145.516 98.4441 145.438 98.4776C145.36 98.5111 145.298 98.5737 145.264 98.6521C145.014 99.2421 144.754 99.8321 144.494 100.432C144.476 100.47 144.466 100.511 144.464 100.553C144.462 100.595 144.469 100.637 144.484 100.676C144.499 100.716 144.522 100.752 144.551 100.782C144.58 100.812 144.615 100.836 144.654 100.852C144.71 100.88 144.773 100.89 144.834 100.882H144.784ZM146.294 97.2921C146.358 97.2914 146.421 97.2722 146.474 97.2366C146.527 97.2011 146.569 97.1509 146.594 97.0921C146.834 96.4721 147.064 95.862 147.294 95.252C147.308 95.212 147.314 95.1696 147.312 95.1272C147.31 95.0848 147.299 95.0433 147.28 95.0052C147.262 94.967 147.236 94.9329 147.204 94.9049C147.172 94.8769 147.135 94.8556 147.094 94.8421C147.015 94.8156 146.928 94.8206 146.852 94.8559C146.775 94.8912 146.716 94.9542 146.684 95.032C146.464 95.642 146.234 96.2421 145.994 96.8521C145.964 96.9318 145.966 97.02 146 97.0983C146.033 97.1765 146.096 97.2388 146.174 97.272L146.294 97.2921ZM147.634 93.632C147.701 93.6312 147.766 93.6096 147.82 93.5701C147.873 93.5307 147.913 93.4754 147.934 93.412C148.154 92.792 148.354 92.1721 148.544 91.552C148.57 91.4698 148.562 91.3809 148.523 91.3044C148.483 91.2278 148.416 91.1695 148.334 91.142C148.252 91.1167 148.163 91.1245 148.087 91.1637C148.01 91.2029 147.952 91.2705 147.924 91.3521C147.734 91.9721 147.534 92.5821 147.324 93.2021C147.299 93.2843 147.307 93.3732 147.346 93.4498C147.385 93.5263 147.453 93.5846 147.534 93.612L147.634 93.632ZM148.794 89.912C148.865 89.9104 148.933 89.8863 148.989 89.8431C149.045 89.7999 149.085 89.7399 149.104 89.6721C149.284 89.0421 149.464 88.4121 149.624 87.7921C149.646 87.7085 149.634 87.6199 149.591 87.5452C149.548 87.4704 149.477 87.4154 149.394 87.392C149.354 87.3815 149.311 87.3791 149.27 87.385C149.228 87.3909 149.188 87.4049 149.152 87.4262C149.115 87.4476 149.084 87.4759 149.058 87.5095C149.033 87.5431 149.015 87.5813 149.004 87.6221C148.834 88.2421 148.664 88.872 148.484 89.4921C148.472 89.5328 148.468 89.5755 148.473 89.6177C148.477 89.66 148.49 89.7009 148.51 89.7382C148.531 89.7754 148.559 89.8082 148.592 89.8346C148.625 89.861 148.663 89.8806 148.704 89.892L148.794 89.912ZM149.794 86.142C149.866 86.1398 149.935 86.1142 149.991 86.0691C150.047 86.024 150.087 85.9618 150.104 85.892C150.254 85.252 150.404 84.6121 150.534 83.9821C150.545 83.9413 150.546 83.8989 150.54 83.8573C150.533 83.8158 150.518 83.7761 150.496 83.7405C150.473 83.705 150.444 83.6744 150.409 83.6506C150.375 83.6268 150.336 83.6103 150.294 83.6021C150.253 83.5917 150.21 83.5897 150.168 83.5962C150.126 83.6027 150.085 83.6175 150.049 83.6399C150.012 83.6623 149.981 83.6917 149.956 83.7264C149.931 83.7611 149.914 83.8004 149.904 83.8421C149.774 84.4721 149.624 85.1021 149.474 85.7421C149.456 85.8255 149.471 85.9127 149.516 85.9855C149.56 86.0582 149.632 86.1107 149.714 86.132L149.794 86.142ZM150.614 82.3221C150.69 82.3234 150.763 82.298 150.822 82.2505C150.88 82.2029 150.92 82.1362 150.934 82.0621C151.054 81.4221 151.174 80.782 151.284 80.142C151.299 80.0585 151.28 79.9726 151.231 79.9033C151.182 79.8339 151.108 79.7867 151.024 79.772C150.982 79.7634 150.939 79.7633 150.897 79.7718C150.855 79.7803 150.815 79.7971 150.779 79.8214C150.744 79.8456 150.713 79.8768 150.69 79.913C150.667 79.9492 150.651 79.9897 150.644 80.032C150.534 80.662 150.424 81.302 150.294 81.942C150.286 81.9841 150.285 82.0275 150.294 82.0697C150.302 82.1118 150.319 82.1518 150.344 82.1872C150.368 82.2227 150.399 82.2529 150.435 82.2761C150.471 82.2992 150.512 82.3149 150.554 82.3221H150.614ZM151.274 78.4821C151.352 78.4852 151.427 78.4592 151.487 78.4092C151.546 78.3593 151.584 78.2889 151.594 78.2121C151.694 77.562 151.784 76.912 151.864 76.272C151.87 76.23 151.867 76.1872 151.856 76.1462C151.845 76.1053 151.826 76.0669 151.8 76.0334C151.774 75.9999 151.741 75.9719 151.704 75.9511C151.667 75.9303 151.626 75.917 151.584 75.912C151.542 75.905 151.499 75.9068 151.457 75.9173C151.416 75.9278 151.377 75.9468 151.343 75.9731C151.309 75.9994 151.281 76.0325 151.261 76.0701C151.24 76.1078 151.228 76.1493 151.224 76.192C151.144 76.8187 151.054 77.4587 150.954 78.112C150.943 78.1967 150.964 78.2825 151.015 78.3515C151.065 78.4205 151.14 78.4673 151.224 78.4821H151.274ZM151.764 74.612C151.845 74.6148 151.923 74.5861 151.983 74.5319C152.043 74.4778 152.079 74.4025 152.084 74.3221C152.154 73.6721 152.224 73.022 152.274 72.382C152.28 72.2961 152.252 72.2114 152.196 72.146C152.139 72.0806 152.06 72.0397 151.974 72.032C151.932 72.0264 151.89 72.0296 151.85 72.0415C151.809 72.0535 151.772 72.0737 151.74 72.1011C151.707 72.1285 151.681 72.1623 151.663 72.2004C151.645 72.2384 151.635 72.2799 151.634 72.3221C151.574 72.9621 151.514 73.6121 151.444 74.2621C151.44 74.3041 151.444 74.3466 151.457 74.387C151.469 74.4274 151.489 74.4649 151.516 74.4975C151.543 74.53 151.576 74.5569 151.614 74.5766C151.651 74.5962 151.692 74.6083 151.734 74.612H151.764ZM152.094 70.7321C152.176 70.7322 152.254 70.7013 152.314 70.6455C152.373 70.5898 152.409 70.5134 152.414 70.4321C152.414 69.7621 152.494 69.1121 152.514 68.4321C152.517 68.3892 152.511 68.3463 152.497 68.3058C152.483 68.2653 152.46 68.228 152.431 68.1963C152.402 68.1646 152.367 68.139 152.328 68.1211C152.289 68.1032 152.247 68.0933 152.204 68.0921C152.12 68.0959 152.04 68.129 151.978 68.1856C151.916 68.2423 151.876 68.3188 151.864 68.4021C151.864 69.0421 151.864 69.6921 151.774 70.3421C151.769 70.428 151.797 70.5127 151.853 70.5781C151.909 70.6435 151.989 70.6844 152.074 70.692L152.094 70.7321ZM152.244 66.832C152.329 66.832 152.411 66.7983 152.471 66.7383C152.531 66.6783 152.564 66.5969 152.564 66.5121C152.564 66.0521 152.564 65.6021 152.564 65.1521V64.5621C152.564 64.4772 152.531 64.3958 152.471 64.3358C152.411 64.2758 152.329 64.2421 152.244 64.2421C152.159 64.2421 152.078 64.2758 152.018 64.3358C151.958 64.3958 151.924 64.4772 151.924 64.5621V65.1521C151.924 65.6021 151.924 66.052 151.924 66.502C151.923 66.5449 151.93 66.5876 151.946 66.6276C151.961 66.6676 151.985 66.704 152.014 66.7348C152.044 66.7656 152.08 66.7901 152.119 66.8068C152.159 66.8235 152.201 66.8321 152.244 66.832ZM152.244 62.9321C152.287 62.9321 152.33 62.9235 152.369 62.9068C152.409 62.8901 152.444 62.8656 152.474 62.8348C152.504 62.804 152.527 62.7676 152.543 62.7276C152.558 62.6876 152.566 62.6449 152.564 62.6021C152.564 61.9321 152.504 61.2821 152.474 60.6021C152.467 60.5163 152.426 60.4369 152.36 60.3808C152.295 60.3248 152.21 60.2965 152.124 60.302C152.082 60.3046 152.041 60.3154 152.003 60.3339C151.965 60.3524 151.932 60.3782 151.904 60.4097C151.876 60.4413 151.854 60.4781 151.841 60.518C151.827 60.5579 151.822 60.6 151.824 60.642C151.824 61.272 151.894 61.922 151.914 62.582C151.91 62.6292 151.915 62.6767 151.931 62.7213C151.947 62.7659 151.973 62.8064 152.006 62.8399C152.04 62.8734 152.08 62.899 152.125 62.9149C152.17 62.9309 152.217 62.9367 152.264 62.9321H152.244ZM152.014 59.0421C152.056 59.0383 152.097 59.0262 152.135 59.0066C152.172 58.9869 152.205 58.96 152.232 58.9275C152.259 58.895 152.279 58.8574 152.292 58.817C152.304 58.7766 152.308 58.7341 152.304 58.692C152.244 58.0254 152.174 57.3587 152.094 56.692C152.091 56.6493 152.078 56.6078 152.058 56.5701C152.038 56.5325 152.01 56.4994 151.976 56.4731C151.942 56.4468 151.903 56.4278 151.861 56.4173C151.82 56.4068 151.777 56.405 151.734 56.412C151.65 56.4245 151.574 56.4688 151.522 56.5359C151.47 56.603 151.446 56.6875 151.454 56.772C151.534 57.382 151.604 58.0321 151.664 58.7021C151.66 58.7513 151.668 58.8008 151.686 58.8466C151.704 58.8925 151.733 58.9335 151.77 58.9664C151.807 58.9993 151.851 59.0233 151.898 59.0364C151.946 59.0495 151.996 59.0515 152.044 59.0421H152.014ZM151.534 55.1721C151.618 55.1574 151.692 55.1102 151.741 55.0408C151.79 54.9715 151.809 54.8856 151.794 54.802L151.734 54.412C151.644 53.9021 151.544 53.4121 151.444 52.8721C151.436 52.8306 151.419 52.7912 151.396 52.7561C151.372 52.7211 151.342 52.691 151.306 52.6678C151.271 52.6445 151.231 52.6285 151.19 52.6207C151.148 52.6128 151.106 52.6133 151.064 52.6221C151.022 52.6291 150.982 52.6447 150.946 52.668C150.91 52.6913 150.88 52.7218 150.856 52.7574C150.833 52.7931 150.817 52.8333 150.81 52.8754C150.802 52.9175 150.804 52.9606 150.814 53.002C150.914 53.512 151.004 54.002 151.094 54.522L151.164 54.9021C151.169 54.947 151.183 54.9906 151.205 55.0296C151.228 55.0686 151.259 55.1021 151.296 55.1278C151.334 55.1535 151.376 55.1708 151.42 55.1785C151.465 55.1861 151.511 55.1839 151.554 55.1721H151.534ZM150.764 51.3521H150.834C150.875 51.3438 150.915 51.3273 150.949 51.3035C150.984 51.2797 151.013 51.2491 151.036 51.2136C151.058 51.178 151.073 51.1383 151.08 51.0968C151.086 51.0552 151.085 51.0128 151.074 50.972C150.924 50.332 150.774 49.7021 150.604 49.0621C150.593 49.0211 150.573 48.9829 150.547 48.9496C150.52 48.9163 150.488 48.8887 150.45 48.8682C150.413 48.8477 150.372 48.8348 150.33 48.8304C150.288 48.8259 150.245 48.8298 150.204 48.8421C150.164 48.8525 150.125 48.8709 150.092 48.8962C150.058 48.9215 150.03 48.9532 150.008 48.9894C149.987 49.0256 149.973 49.0657 149.967 49.1073C149.961 49.149 149.964 49.1913 149.974 49.2321C150.144 49.8621 150.304 50.482 150.444 51.112C150.465 51.185 150.51 51.2487 150.572 51.2924C150.634 51.3361 150.709 51.3572 150.784 51.3521H150.764ZM149.764 47.5921H149.854C149.895 47.5806 149.933 47.561 149.967 47.5346C150 47.5082 150.028 47.4754 150.048 47.4382C150.069 47.401 150.081 47.36 150.086 47.3177C150.09 47.2755 150.087 47.2328 150.074 47.192C149.884 46.562 149.684 45.9421 149.474 45.3221C149.461 45.2818 149.439 45.2446 149.411 45.2127C149.383 45.1808 149.349 45.1548 149.311 45.1362C149.273 45.1176 149.232 45.1067 149.189 45.1043C149.147 45.1019 149.104 45.1079 149.064 45.1221C149.024 45.1356 148.987 45.1569 148.955 45.1849C148.923 45.2129 148.897 45.247 148.878 45.2852C148.86 45.3233 148.849 45.3648 148.847 45.4072C148.844 45.4496 148.85 45.492 148.864 45.532C149.074 46.142 149.264 46.7621 149.454 47.382C149.478 47.4469 149.522 47.5023 149.579 47.5402C149.637 47.578 149.705 47.5962 149.774 47.5921H149.764ZM148.514 43.892C148.55 43.9014 148.588 43.9014 148.624 43.892C148.704 43.8628 148.768 43.8032 148.804 43.7263C148.84 43.6495 148.843 43.5616 148.814 43.4821C148.584 42.8721 148.344 42.262 148.084 41.662C148.069 41.6224 148.046 41.5862 148.016 41.5556C147.987 41.525 147.951 41.5006 147.912 41.4839C147.873 41.4671 147.831 41.4583 147.788 41.458C147.746 41.4577 147.704 41.4659 147.664 41.4821C147.625 41.4984 147.59 41.5223 147.561 41.5523C147.531 41.5823 147.508 41.6178 147.492 41.6568C147.476 41.6958 147.468 41.7375 147.469 41.7796C147.469 41.8217 147.478 41.8633 147.494 41.9021C147.744 42.5021 147.984 43.1021 148.204 43.7121C148.234 43.7704 148.28 43.8186 148.337 43.8507C148.394 43.8827 148.459 43.8971 148.524 43.892H148.514ZM147.044 40.3521C147.09 40.3615 147.138 40.3615 147.184 40.3521C147.262 40.3151 147.321 40.2496 147.351 40.1694C147.381 40.0892 147.379 40.0005 147.344 39.9221C147.064 39.3321 146.784 38.7421 146.484 38.1521C146.444 38.0784 146.377 38.0228 146.297 37.9968C146.217 37.9708 146.13 37.9763 146.054 38.0121C145.976 38.0508 145.917 38.1187 145.889 38.2012C145.861 38.2836 145.866 38.3738 145.904 38.4521C146.204 39.0221 146.484 39.602 146.754 40.192C146.783 40.2434 146.825 40.2857 146.876 40.314C146.927 40.3423 146.986 40.3555 147.044 40.3521ZM145.284 36.8721C145.333 36.8857 145.385 36.8857 145.434 36.8721C145.472 36.8521 145.506 36.8248 145.533 36.7918C145.56 36.7587 145.58 36.7205 145.592 36.6795C145.604 36.6385 145.608 36.5955 145.603 36.5529C145.599 36.5104 145.585 36.4693 145.564 36.4321C145.244 35.8621 144.914 35.292 144.564 34.7421C144.544 34.7048 144.516 34.6722 144.482 34.6463C144.448 34.6204 144.409 34.6017 144.368 34.5914C144.327 34.581 144.284 34.5793 144.242 34.5863C144.2 34.5933 144.16 34.6089 144.124 34.632C144.088 34.6537 144.057 34.6822 144.031 34.716C144.006 34.7499 143.988 34.7883 143.978 34.8292C143.968 34.8701 143.966 34.9126 143.972 34.9543C143.978 34.9959 143.992 35.036 144.014 35.0721C144.354 35.6221 144.674 36.182 145.014 36.752C145.047 36.7797 145.086 36.8003 145.127 36.8123C145.168 36.8244 145.212 36.8277 145.254 36.8221L145.284 36.8721ZM143.284 33.5421C143.343 33.5599 143.406 33.5599 143.464 33.5421C143.5 33.5188 143.531 33.4886 143.555 33.4532C143.579 33.4179 143.596 33.378 143.604 33.3361C143.613 33.2941 143.613 33.2509 143.604 33.209C143.595 33.1671 143.579 33.1273 143.554 33.0921C143.184 32.5521 142.814 32.0121 142.424 31.4821C142.373 31.4148 142.297 31.37 142.213 31.357C142.129 31.3439 142.044 31.3637 141.974 31.412C141.907 31.4637 141.862 31.5393 141.849 31.623C141.836 31.7068 141.856 31.7924 141.904 31.862C142.284 32.382 142.654 32.9121 143.014 33.4521C143.078 33.4891 143.152 33.5032 143.224 33.4921L143.284 33.5421ZM99.2843 31.332H99.6943C99.7364 31.3295 99.7775 31.3187 99.8153 31.3002C99.8532 31.2817 99.887 31.2559 99.9149 31.2243C99.9428 31.1928 99.9641 31.156 99.9777 31.1161C99.9914 31.0763 99.997 31.0341 99.9943 30.9921C99.9931 30.9495 99.9832 30.9077 99.9652 30.8692C99.9472 30.8307 99.9214 30.7963 99.8895 30.7681C99.8576 30.74 99.8203 30.7187 99.7798 30.7056C99.7393 30.6925 99.6966 30.6879 99.6543 30.692C99.2717 30.7272 98.8868 30.7272 98.5043 30.692C98.2751 30.6632 98.048 30.6198 97.8243 30.5621C97.7408 30.5405 97.6522 30.5525 97.5774 30.5955C97.5027 30.6385 97.4477 30.7091 97.4243 30.7921C97.4139 30.8334 97.4119 30.8765 97.4184 30.9187C97.4249 30.9608 97.4398 31.0013 97.4621 31.0376C97.4845 31.0739 97.5139 31.1054 97.5486 31.1302C97.5833 31.1551 97.6227 31.1727 97.6643 31.1821C97.9166 31.2521 98.1741 31.3023 98.4343 31.332C98.6816 31.3272 98.9286 31.3105 99.1743 31.282L99.2843 31.332ZM101.584 30.942H101.684C102.334 30.7139 102.939 30.3756 103.474 29.942C103.534 29.8805 103.568 29.7979 103.568 29.7121C103.568 29.6262 103.534 29.5437 103.474 29.4821C103.444 29.4512 103.409 29.4267 103.369 29.4099C103.33 29.3932 103.287 29.3845 103.244 29.3845C103.201 29.3845 103.159 29.3932 103.119 29.4099C103.08 29.4267 103.044 29.4512 103.014 29.4821C102.536 29.8637 101.999 30.1643 101.424 30.3721C101.384 30.3856 101.347 30.4069 101.315 30.4349C101.283 30.4629 101.257 30.497 101.238 30.5352C101.22 30.5733 101.209 30.6148 101.207 30.6572C101.204 30.6996 101.21 30.742 101.224 30.782C101.256 30.8172 101.294 30.8452 101.337 30.8641C101.38 30.8831 101.427 30.8926 101.474 30.892L101.584 30.942ZM141.034 30.4021C141.107 30.4029 141.178 30.3781 141.234 30.332C141.294 30.2705 141.328 30.1879 141.328 30.1021C141.328 30.0162 141.294 29.9337 141.234 29.8721C140.824 29.3621 140.394 28.8721 139.974 28.3721C139.913 28.3122 139.83 28.2787 139.744 28.2787C139.658 28.2787 139.576 28.3122 139.514 28.3721C139.454 28.4337 139.421 28.5162 139.421 28.6021C139.421 28.6879 139.454 28.7705 139.514 28.832C139.934 29.312 140.354 29.8321 140.754 30.3121C140.807 30.34 140.865 30.3537 140.924 30.3521L141.034 30.4021ZM95.9743 30.3521C96.0269 30.3505 96.0785 30.3372 96.1253 30.3129C96.172 30.2887 96.2127 30.2542 96.2443 30.2121C96.2896 30.1388 96.3045 30.0508 96.2859 29.9667C96.2672 29.8826 96.2164 29.8092 96.1443 29.7621C95.6284 29.4194 95.161 29.0091 94.7543 28.5421C94.6944 28.4828 94.6135 28.4496 94.5293 28.4496C94.445 28.4496 94.3642 28.4828 94.3043 28.5421C94.2444 28.6036 94.2109 28.6862 94.2109 28.772C94.2109 28.8579 94.2444 28.9404 94.3043 29.002C94.7478 29.5193 95.263 29.9706 95.8343 30.3421C95.8441 30.346 95.8541 30.3493 95.8643 30.3521H95.9743ZM104.504 28.502C104.562 28.5005 104.618 28.4841 104.667 28.4542C104.716 28.4244 104.756 28.3823 104.784 28.332C105.114 27.7094 105.328 27.0316 105.414 26.3321C105.42 26.29 105.417 26.2472 105.406 26.2062C105.395 26.1653 105.376 26.1269 105.35 26.0934C105.324 26.0599 105.291 26.0319 105.254 26.0111C105.217 25.9903 105.176 25.977 105.134 25.972C105.051 25.9606 104.966 25.9825 104.899 26.0331C104.831 26.0836 104.787 26.1587 104.774 26.2421C104.691 26.8492 104.505 27.4376 104.224 27.9821C104.203 28.0193 104.19 28.0604 104.185 28.103C104.18 28.1455 104.184 28.1885 104.196 28.2295C104.208 28.2705 104.229 28.3087 104.256 28.3418C104.283 28.3748 104.316 28.4021 104.354 28.4221C104.367 28.4328 104.38 28.4429 104.394 28.4521L104.504 28.502ZM138.454 27.502C138.54 27.5029 138.622 27.4707 138.684 27.412C138.744 27.3505 138.778 27.2679 138.778 27.1821C138.778 27.0962 138.744 27.0137 138.684 26.9521C138.224 26.4821 137.754 26.0221 137.284 25.5721C137.223 25.5122 137.14 25.4787 137.054 25.4787C136.968 25.4787 136.886 25.5122 136.824 25.5721C136.765 25.632 136.732 25.7128 136.732 25.7971C136.732 25.8813 136.765 25.9622 136.824 26.0221C137.284 26.4621 137.744 26.9221 138.194 27.382C138.24 27.4083 138.292 27.4221 138.344 27.4221L138.454 27.502ZM93.4543 27.502C93.5038 27.5115 93.5547 27.5115 93.6043 27.502C93.6787 27.4598 93.7345 27.391 93.7604 27.3095C93.7864 27.2279 93.7806 27.1396 93.7443 27.0621C93.4627 26.5055 93.2575 25.9135 93.1343 25.3021C93.1249 25.2604 93.1073 25.2211 93.0825 25.1864C93.0577 25.1517 93.0262 25.1223 92.9898 25.0999C92.9535 25.0776 92.913 25.0627 92.8709 25.0562C92.8287 25.0497 92.7857 25.0517 92.7443 25.062C92.7028 25.0704 92.6634 25.0869 92.6283 25.1105C92.5933 25.1342 92.5633 25.1646 92.54 25.1999C92.5168 25.2352 92.5007 25.2748 92.4929 25.3164C92.485 25.358 92.4855 25.4007 92.4943 25.442C92.6393 26.1035 92.8643 26.7449 93.1643 27.3521C93.2124 27.3822 93.2676 27.3994 93.3243 27.4021L93.4543 27.502ZM135.644 24.8521C135.69 24.8518 135.735 24.8419 135.776 24.823C135.818 24.804 135.854 24.7764 135.884 24.7421C135.944 24.6805 135.978 24.5979 135.978 24.5121C135.978 24.4262 135.944 24.3436 135.884 24.282L135.284 23.782L134.354 23.0521C134.285 22.9995 134.198 22.9763 134.112 22.9876C134.026 22.9988 133.948 23.0435 133.894 23.1121C133.845 23.1805 133.823 23.2653 133.835 23.349C133.846 23.4327 133.889 23.509 133.954 23.562L134.874 24.282L135.464 24.782C135.482 24.7736 135.499 24.7636 135.514 24.752L135.644 24.8521ZM105.124 24.7621C105.21 24.752 105.289 24.7086 105.343 24.6413C105.397 24.574 105.423 24.4881 105.414 24.402C105.338 23.7236 105.197 23.0539 104.994 22.402C104.983 22.3611 104.963 22.3229 104.937 22.2896C104.91 22.2564 104.878 22.2287 104.84 22.2082C104.803 22.1877 104.762 22.1748 104.72 22.1703C104.678 22.1659 104.635 22.1698 104.594 22.182C104.553 22.1934 104.515 22.2129 104.483 22.2395C104.45 22.2661 104.422 22.2992 104.403 22.3366C104.383 22.3741 104.371 22.4152 104.368 22.4574C104.365 22.4996 104.37 22.5421 104.384 22.5821C104.566 23.1868 104.696 23.8056 104.774 24.432C104.788 24.4862 104.815 24.536 104.854 24.5764C104.892 24.6167 104.941 24.6462 104.994 24.662L105.124 24.7621ZM92.6743 23.7621C92.7558 23.7622 92.8343 23.7313 92.8938 23.6755C92.9532 23.6198 92.9892 23.5434 92.9943 23.462C93.0404 22.8472 93.1821 22.2433 93.4143 21.6721C93.4307 21.6333 93.4394 21.5917 93.4398 21.5496C93.4402 21.5075 93.4322 21.4658 93.4164 21.4268C93.4006 21.3878 93.3773 21.3522 93.3477 21.3223C93.3182 21.2923 93.2831 21.2684 93.2443 21.252C93.2056 21.2356 93.1639 21.2269 93.1219 21.2266C93.0798 21.2262 93.038 21.2341 92.999 21.2499C92.96 21.2657 92.9245 21.289 92.8945 21.3186C92.8645 21.3481 92.8407 21.3833 92.8243 21.4221C92.5593 22.0585 92.4005 22.7342 92.3543 23.4221C92.3502 23.4649 92.3547 23.5081 92.3677 23.5491C92.3807 23.5902 92.4018 23.6282 92.4298 23.6608C92.4578 23.6935 92.4922 23.7202 92.5307 23.7393C92.5693 23.7584 92.6113 23.7696 92.6543 23.7721L92.6743 23.7621ZM132.414 22.3521C132.467 22.3529 132.52 22.3406 132.567 22.3162C132.614 22.2918 132.654 22.2559 132.684 22.212C132.732 22.1412 132.75 22.0548 132.735 21.9709C132.72 21.8871 132.673 21.8122 132.604 21.7621C132.064 21.3921 131.504 21.032 130.954 20.692C130.88 20.6476 130.791 20.6342 130.707 20.6548C130.623 20.6754 130.55 20.7283 130.504 20.8021C130.483 20.8382 130.468 20.8782 130.462 20.9198C130.456 20.9615 130.458 21.004 130.468 21.0449C130.478 21.0858 130.496 21.1242 130.521 21.1581C130.547 21.1919 130.578 21.2205 130.614 21.2421C131.161 21.5821 131.701 21.9321 132.234 22.2921C132.287 22.3298 132.35 22.3507 132.414 22.3521ZM103.914 20.902C103.957 20.9122 104.002 20.9122 104.044 20.902C104.123 20.8669 104.185 20.8022 104.217 20.7218C104.249 20.6414 104.248 20.5517 104.214 20.472C103.964 19.902 103.674 19.3021 103.344 18.7021C103.324 18.6642 103.297 18.6307 103.264 18.6036C103.231 18.5765 103.193 18.5562 103.152 18.5441C103.111 18.532 103.068 18.5282 103.025 18.533C102.983 18.5378 102.942 18.5511 102.904 18.5721C102.83 18.6142 102.775 18.6837 102.75 18.7658C102.726 18.8479 102.735 18.9362 102.774 19.0121C103.094 19.5921 103.384 20.1721 103.624 20.7321C103.648 20.7901 103.688 20.84 103.739 20.8755C103.791 20.9111 103.852 20.9307 103.914 20.932V20.902ZM129.044 20.3521C129.104 20.3534 129.162 20.3382 129.213 20.3082C129.265 20.2782 129.306 20.2345 129.334 20.182C129.374 20.1062 129.382 20.0179 129.358 19.9358C129.334 19.8537 129.279 19.7842 129.204 19.7421C128.634 19.4321 128.044 19.132 127.454 18.842C127.416 18.8234 127.375 18.8125 127.333 18.8099C127.29 18.8074 127.248 18.8133 127.208 18.8272C127.168 18.8412 127.131 18.8629 127.1 18.8912C127.068 18.9195 127.042 18.9538 127.024 18.9921C127.006 19.0301 126.995 19.0715 126.992 19.1137C126.99 19.156 126.995 19.1984 127.009 19.2384C127.023 19.2784 127.045 19.3152 127.073 19.3467C127.102 19.3783 127.136 19.4039 127.174 19.4221C127.754 19.7021 128.334 20.002 128.894 20.312C128.939 20.3392 128.992 20.3531 129.044 20.3521ZM93.9643 20.1021C94.0121 20.1014 94.0593 20.0903 94.1025 20.0696C94.1457 20.0489 94.1838 20.019 94.2143 19.9821C94.6186 19.5091 95.0748 19.0831 95.5743 18.712C95.6098 18.6882 95.64 18.6572 95.6629 18.6212C95.6859 18.5851 95.7012 18.5446 95.7077 18.5024C95.7143 18.4601 95.7121 18.4169 95.7011 18.3756C95.6902 18.3342 95.6708 18.2956 95.6443 18.2621C95.6204 18.2265 95.5895 18.1964 95.5534 18.1734C95.5173 18.1504 95.4769 18.1352 95.4346 18.1286C95.3923 18.122 95.3492 18.1243 95.3078 18.1352C95.2665 18.1461 95.2278 18.1655 95.1943 18.192C94.6501 18.5942 94.1535 19.0572 93.7143 19.5721C93.6573 19.6331 93.6257 19.7135 93.6257 19.7971C93.6257 19.8806 93.6573 19.961 93.7143 20.0221C93.7584 20.0614 93.8121 20.0886 93.87 20.1009C93.9278 20.1131 93.9879 20.1101 94.0443 20.092L93.9643 20.1021ZM125.544 18.652C125.608 18.6491 125.669 18.6289 125.722 18.5937C125.775 18.5584 125.817 18.5095 125.844 18.4521C125.861 18.4133 125.869 18.3717 125.87 18.3296C125.87 18.2875 125.862 18.2458 125.846 18.2068C125.831 18.1678 125.807 18.1322 125.778 18.1023C125.748 18.0723 125.713 18.0484 125.674 18.032C125.064 17.772 124.454 17.5321 123.844 17.3021C123.763 17.2727 123.674 17.2761 123.596 17.3116C123.517 17.3471 123.456 17.4118 123.424 17.4921C123.395 17.5743 123.4 17.6646 123.438 17.7433C123.475 17.822 123.542 17.8826 123.624 17.912C124.224 18.132 124.824 18.372 125.414 18.622C125.471 18.6465 125.534 18.6535 125.594 18.6421L125.544 18.652ZM97.0543 17.7721C97.0998 17.7866 97.1488 17.7866 97.1943 17.7721C97.7668 17.4959 98.3544 17.2522 98.9543 17.0421C98.9945 17.0286 99.0317 17.0072 99.0636 16.9792C99.0955 16.9512 99.1215 16.9171 99.1402 16.8789C99.1588 16.8408 99.1696 16.7993 99.172 16.7569C99.1744 16.7145 99.1684 16.6721 99.1543 16.632C99.1408 16.5918 99.1194 16.5546 99.0914 16.5227C99.0634 16.4908 99.0293 16.4648 98.9912 16.4462C98.953 16.4276 98.9116 16.4167 98.8692 16.4143C98.8268 16.4119 98.7843 16.4179 98.7443 16.432C98.1171 16.6504 97.5027 16.9042 96.9043 17.192C96.828 17.2325 96.7707 17.3012 96.7445 17.3835C96.7184 17.4657 96.7254 17.555 96.7642 17.632C96.801 17.6857 96.8532 17.7269 96.914 17.7501C96.9747 17.7733 97.0411 17.7775 97.1043 17.7621L97.0543 17.7721ZM102.054 17.502C102.115 17.5058 102.175 17.4881 102.224 17.4521C102.261 17.4306 102.292 17.4019 102.317 17.3678C102.342 17.3337 102.36 17.2948 102.369 17.2536C102.379 17.2124 102.379 17.1697 102.372 17.1282C102.364 17.0867 102.348 17.0471 102.324 17.0121C102.164 16.7521 101.994 16.5021 101.824 16.2321L102.714 16.0521C102.798 16.0374 102.872 15.9902 102.921 15.9208C102.97 15.8515 102.989 15.7656 102.974 15.682C102.967 15.6397 102.951 15.5992 102.928 15.563C102.905 15.5268 102.875 15.4956 102.839 15.4714C102.804 15.4471 102.764 15.4303 102.722 15.4218C102.68 15.4133 102.636 15.4134 102.594 15.4221C102.204 15.4921 101.814 15.572 101.434 15.662L101.234 15.382C101.21 15.3469 101.179 15.3169 101.144 15.2938C101.108 15.2707 101.068 15.255 101.026 15.2475C100.984 15.2401 100.941 15.2411 100.9 15.2504C100.858 15.2598 100.819 15.2774 100.784 15.3021C100.749 15.3261 100.719 15.3569 100.696 15.3926C100.673 15.4284 100.657 15.4683 100.65 15.5103C100.642 15.5522 100.643 15.5951 100.653 15.6366C100.662 15.6781 100.68 15.7174 100.704 15.752L100.754 15.8221H100.674C100.591 15.8455 100.519 15.9 100.475 15.9744C100.43 16.0487 100.416 16.1373 100.434 16.222C100.46 16.3037 100.515 16.3727 100.589 16.4153C100.663 16.4579 100.751 16.471 100.834 16.4521L101.144 16.382C101.374 16.702 101.584 17.032 101.784 17.382C101.816 17.4197 101.856 17.4492 101.901 17.4684C101.946 17.4875 101.995 17.4956 102.044 17.4921L102.054 17.502ZM121.914 17.2921C121.983 17.295 122.051 17.275 122.107 17.2351C122.163 17.1953 122.204 17.1379 122.224 17.0721C122.25 16.9898 122.242 16.9009 122.203 16.8243C122.163 16.7478 122.096 16.6895 122.014 16.662C121.394 16.472 120.754 16.282 120.124 16.122C120.084 16.1101 120.041 16.1066 119.999 16.1118C119.957 16.117 119.916 16.1309 119.879 16.1524C119.843 16.174 119.811 16.2028 119.786 16.2372C119.761 16.2715 119.744 16.3106 119.734 16.3521C119.724 16.3928 119.721 16.4351 119.727 16.4768C119.733 16.5184 119.747 16.5585 119.768 16.5947C119.79 16.6309 119.818 16.6626 119.852 16.6879C119.885 16.7131 119.924 16.7316 119.964 16.7421C120.584 16.9021 121.204 17.092 121.824 17.282L121.914 17.2921ZM118.154 16.2921C118.229 16.293 118.301 16.2673 118.358 16.2196C118.414 16.1719 118.452 16.1053 118.464 16.032C118.473 15.9907 118.474 15.948 118.466 15.9064C118.458 15.8648 118.442 15.8252 118.419 15.7899C118.395 15.7545 118.365 15.7242 118.33 15.7005C118.295 15.6769 118.256 15.6604 118.214 15.652C117.574 15.512 116.924 15.3921 116.284 15.2921C116.201 15.2775 116.115 15.2967 116.045 15.3455C115.976 15.3942 115.929 15.4685 115.914 15.5521C115.906 15.5943 115.906 15.6378 115.915 15.68C115.924 15.7221 115.942 15.7618 115.968 15.7966C115.993 15.8314 116.025 15.8606 116.063 15.8822C116.1 15.9038 116.141 15.9174 116.184 15.9221C116.814 16.0321 117.454 16.152 118.084 16.282L118.154 16.2921ZM104.584 15.7421C105.214 15.6521 105.864 15.582 106.504 15.532C106.59 15.5244 106.669 15.4835 106.725 15.4181C106.782 15.3527 106.81 15.268 106.804 15.182C106.801 15.1399 106.788 15.099 106.769 15.0616C106.749 15.0242 106.722 14.9911 106.69 14.9641C106.657 14.9371 106.62 14.9169 106.579 14.9045C106.539 14.8922 106.496 14.8879 106.454 14.8921C105.804 14.8921 105.144 15.0121 104.454 15.1021C104.412 15.1069 104.372 15.1202 104.336 15.1412C104.299 15.1621 104.267 15.1903 104.242 15.224C104.217 15.2577 104.198 15.2962 104.189 15.3371C104.179 15.378 104.177 15.4205 104.184 15.462C104.188 15.5106 104.203 15.5577 104.227 15.5997C104.252 15.6417 104.285 15.6776 104.326 15.7046C104.366 15.7316 104.413 15.749 104.461 15.7555C104.509 15.762 104.558 15.7574 104.604 15.7421H104.584ZM114.304 15.662C114.384 15.6624 114.461 15.6328 114.521 15.5792C114.58 15.5255 114.617 15.4516 114.624 15.372C114.633 15.2887 114.608 15.2053 114.556 15.1398C114.503 15.0744 114.427 15.0321 114.344 15.0221C113.694 14.9421 113.034 14.882 112.344 14.842C112.302 14.8393 112.26 14.845 112.22 14.8586C112.18 14.8722 112.144 14.8936 112.112 14.9214C112.08 14.9493 112.055 14.9831 112.036 15.021C112.018 15.0589 112.007 15.1 112.004 15.1421C112 15.1844 112.005 15.2271 112.018 15.2676C112.031 15.308 112.052 15.3454 112.08 15.3773C112.108 15.4091 112.143 15.4349 112.181 15.4529C112.22 15.471 112.262 15.4809 112.304 15.4821C112.944 15.5321 113.594 15.582 114.224 15.662H114.304ZM108.464 15.4221C109.114 15.4221 109.754 15.4221 110.404 15.4221C110.446 15.4234 110.487 15.4164 110.526 15.4014C110.565 15.3864 110.6 15.3638 110.63 15.3349C110.66 15.3059 110.684 15.2713 110.7 15.233C110.716 15.1948 110.724 15.1536 110.724 15.1121C110.726 15.07 110.719 15.0281 110.704 14.9888C110.689 14.9495 110.666 14.9135 110.638 14.8828C110.609 14.8522 110.574 14.8275 110.536 14.8102C110.498 14.7929 110.456 14.7833 110.414 14.782C109.754 14.782 109.104 14.782 108.414 14.782C108.371 14.7833 108.329 14.7932 108.29 14.8111C108.251 14.829 108.216 14.8546 108.187 14.8863C108.158 14.918 108.136 14.9553 108.122 14.9958C108.108 15.0363 108.102 15.0792 108.104 15.122C108.106 15.1679 108.118 15.2128 108.139 15.2537C108.16 15.2946 108.19 15.3305 108.226 15.3589C108.262 15.3874 108.303 15.4078 108.348 15.4187C108.393 15.4296 108.439 15.4307 108.484 15.4221H108.464ZM99.8143 14.312C99.8871 14.3129 99.9579 14.2882 100.014 14.2421C100.073 14.1822 100.107 14.1013 100.107 14.0171C100.107 13.9328 100.073 13.852 100.014 13.7921C99.6142 13.2721 99.1943 12.7921 98.7743 12.2621C98.7144 12.2028 98.6335 12.1696 98.5493 12.1696C98.465 12.1696 98.3842 12.2028 98.3243 12.2621C98.2644 12.3236 98.2309 12.4062 98.2309 12.4921C98.2309 12.578 98.2644 12.6605 98.3243 12.722C98.7343 13.202 99.1543 13.722 99.5443 14.212C99.5759 14.2589 99.6194 14.2966 99.6704 14.3212C99.7213 14.3458 99.7779 14.3564 99.8343 14.3521L99.8143 14.312ZM97.2743 11.312C97.315 11.3123 97.3555 11.3044 97.3933 11.289C97.431 11.2735 97.4653 11.2508 97.4943 11.222C97.5249 11.1931 97.5492 11.1582 97.5658 11.1195C97.5825 11.0808 97.591 11.0391 97.591 10.997C97.591 10.9549 97.5825 10.9133 97.5658 10.8746C97.5492 10.8359 97.5249 10.801 97.4943 10.7721C97.0443 10.2921 96.5743 9.83206 96.0943 9.39206C96.0653 9.3615 96.0304 9.33716 95.9917 9.32053C95.953 9.30389 95.9114 9.29529 95.8693 9.29529C95.8272 9.29529 95.7855 9.30389 95.7468 9.32053C95.7081 9.33716 95.6732 9.3615 95.6443 9.39206C95.6134 9.4219 95.5889 9.45762 95.5722 9.49713C95.5554 9.53664 95.5468 9.57912 95.5468 9.62204C95.5468 9.66496 95.5554 9.70744 95.5722 9.74695C95.5889 9.78646 95.6134 9.82221 95.6443 9.85205C96.1143 10.2821 96.5743 10.7421 97.0243 11.2021C97.0506 11.25 97.0899 11.2894 97.1377 11.316C97.1854 11.3425 97.2397 11.355 97.2943 11.3521L97.2743 11.312ZM94.4243 8.66205C94.5188 8.65964 94.6086 8.62015 94.6743 8.55206C94.7341 8.49047 94.7676 8.40795 94.7676 8.32205C94.7676 8.23616 94.7341 8.15364 94.6743 8.09204C94.1643 7.67204 93.6743 7.27206 93.1143 6.89206C93.0796 6.86735 93.0404 6.84979 92.9989 6.84042C92.9573 6.83106 92.9144 6.83007 92.8725 6.83752C92.8306 6.84497 92.7906 6.86072 92.7548 6.88382C92.7191 6.90692 92.6883 6.9369 92.6643 6.97205C92.6391 7.00609 92.6209 7.0448 92.6107 7.08594C92.6006 7.12707 92.5987 7.16981 92.6053 7.21167C92.6118 7.25353 92.6265 7.29369 92.6486 7.3298C92.6708 7.36592 92.6999 7.39728 92.7343 7.42206C93.2543 7.79539 93.7642 8.18537 94.2642 8.59204C94.3095 8.64862 94.3733 8.68756 94.4443 8.70206L94.4243 8.66205ZM91.2543 6.40204C91.3083 6.40185 91.3614 6.38801 91.4086 6.36179C91.4558 6.33556 91.4956 6.2978 91.5243 6.25204C91.5696 6.17882 91.5846 6.09076 91.5659 6.00668C91.5472 5.9226 91.4964 5.84919 91.4243 5.80206C90.8643 5.46206 90.2843 5.13206 89.7043 4.80206C89.6272 4.76322 89.538 4.75612 89.4557 4.78229C89.3735 4.80846 89.3047 4.8658 89.2642 4.94205C89.2259 5.01764 89.2191 5.10538 89.2453 5.186C89.2716 5.26663 89.3287 5.33354 89.4043 5.37204C89.9743 5.67204 90.5343 5.99204 91.0843 6.37204C91.1096 6.39582 91.1396 6.41428 91.1722 6.4263C91.2048 6.43832 91.2395 6.44368 91.2743 6.44205L91.2543 6.40204ZM87.7943 4.60205C87.8575 4.60354 87.9197 4.5863 87.9731 4.55249C88.0264 4.51868 88.0686 4.4698 88.0943 4.41205C88.1107 4.37332 88.1194 4.33173 88.1198 4.28964C88.1201 4.24756 88.1122 4.20579 88.0964 4.16678C88.0806 4.12776 88.0573 4.09224 88.0277 4.06226C87.9982 4.03227 87.9631 4.00844 87.9243 3.99207C87.3243 3.73207 86.7043 3.49206 86.0843 3.27206C86.0442 3.25792 86.0018 3.25188 85.9594 3.2543C85.9171 3.25673 85.8755 3.26755 85.8374 3.28616C85.7992 3.30478 85.7652 3.33079 85.7372 3.3627C85.7092 3.39461 85.6878 3.43179 85.6743 3.47205C85.6601 3.51208 85.6541 3.55454 85.6565 3.59692C85.659 3.63931 85.6698 3.68077 85.6884 3.71893C85.707 3.75709 85.733 3.79118 85.7649 3.81918C85.7968 3.84719 85.834 3.86855 85.8743 3.88205C86.4743 4.09205 87.0843 4.33206 87.6643 4.58206C87.7083 4.61456 87.76 4.63522 87.8143 4.64206L87.7943 4.60205ZM62.8943 3.80206H62.9643L64.8643 3.40204C64.9067 3.39486 64.9471 3.37924 64.9833 3.35608C65.0195 3.33292 65.0507 3.30271 65.0749 3.26724C65.0992 3.23178 65.1161 3.19178 65.1245 3.14966C65.133 3.10753 65.133 3.06415 65.1243 3.02206C65.1051 2.9396 65.055 2.86767 64.9842 2.82114C64.9135 2.7746 64.8276 2.75704 64.7443 2.77206C64.1043 2.89206 63.4643 3.03206 62.8243 3.17206C62.7419 3.19124 62.6699 3.24137 62.6234 3.3121C62.5769 3.38283 62.5593 3.46875 62.5743 3.55206C62.5864 3.63332 62.6275 3.70743 62.69 3.76074C62.7525 3.81405 62.8321 3.84293 62.9143 3.84204L62.8943 3.80206ZM84.1143 3.32205C84.187 3.32435 84.2582 3.30183 84.3164 3.25821C84.3745 3.21459 84.4162 3.15247 84.4343 3.08206C84.4448 3.04135 84.4472 2.99894 84.4413 2.95731C84.4354 2.91567 84.4215 2.87561 84.4001 2.83939C84.3788 2.80317 84.3505 2.7715 84.3169 2.74622C84.2833 2.72094 84.245 2.70253 84.2043 2.69205C83.5743 2.52205 82.9343 2.36206 82.2843 2.23206C82.1995 2.21733 82.1124 2.23626 82.0415 2.28482C81.9705 2.33338 81.9212 2.40776 81.9043 2.49207C81.8892 2.57538 81.9068 2.66127 81.9533 2.73199C81.9999 2.80272 82.0718 2.85286 82.1543 2.87204C82.7943 2.99204 83.4243 3.14204 84.0343 3.31204L84.1143 3.32205ZM66.7143 3.04205H66.7743C67.4409 2.92872 68.081 2.82873 68.6943 2.74207C68.7785 2.72733 68.8535 2.68051 68.9039 2.61151C68.9543 2.54251 68.9759 2.45667 68.9643 2.37204C68.9594 2.33021 68.9462 2.28981 68.9252 2.2533C68.9042 2.21678 68.876 2.1849 68.8423 2.15964C68.8086 2.13437 68.7701 2.11626 68.7292 2.10635C68.6883 2.09645 68.6458 2.09498 68.6043 2.10205C67.9543 2.19205 67.3143 2.29204 66.6643 2.40204C66.5808 2.41668 66.5065 2.46389 66.4577 2.53326C66.409 2.60264 66.3897 2.68853 66.4043 2.77206C66.4042 2.81451 66.4128 2.8565 66.4297 2.89548C66.4465 2.93445 66.4711 2.96956 66.502 2.99863C66.533 3.02769 66.5696 3.05011 66.6095 3.06445C66.6495 3.0788 66.6919 3.0848 66.7343 3.08206L66.7143 3.04205ZM80.3043 2.55206C80.3821 2.5506 80.4569 2.52169 80.5154 2.47046C80.574 2.41923 80.6125 2.34897 80.6243 2.27206C80.6299 2.22999 80.627 2.18721 80.6159 2.14624C80.6048 2.10527 80.5857 2.06692 80.5597 2.03342C80.5336 1.99991 80.5011 1.97192 80.4641 1.95108C80.4272 1.93024 80.3864 1.91698 80.3443 1.91205C79.7043 1.82205 79.0443 1.75206 78.3443 1.70206C78.3027 1.69794 78.2609 1.70224 78.221 1.71472C78.1812 1.7272 78.1443 1.74761 78.1126 1.77469C78.0808 1.80177 78.0548 1.83496 78.0362 1.87231C78.0176 1.90967 78.0068 1.95041 78.0043 1.99207C78.0002 2.03412 78.0044 2.07656 78.0168 2.11697C78.0291 2.15738 78.0494 2.19494 78.0763 2.22748C78.1033 2.26002 78.1365 2.28692 78.1739 2.30658C78.2113 2.32624 78.2522 2.33828 78.2943 2.34204C78.9443 2.39204 79.5943 2.46206 80.2143 2.55206H80.3043ZM70.5743 2.50204C71.2143 2.43204 71.8643 2.38206 72.5043 2.33206C72.5464 2.32952 72.5875 2.31868 72.6253 2.3002C72.6632 2.28172 72.697 2.25595 72.7249 2.22437C72.7528 2.19278 72.7741 2.15598 72.7878 2.11612C72.8014 2.07625 72.807 2.03411 72.8043 1.99207C72.8018 1.9491 72.7907 1.90706 72.7716 1.8685C72.7525 1.82994 72.7258 1.79565 72.6931 1.76764C72.6604 1.73963 72.6224 1.71849 72.5814 1.70551C72.5404 1.69252 72.4971 1.68794 72.4543 1.69205C71.8043 1.69205 71.1543 1.79206 70.4543 1.86206C70.4122 1.86582 70.3712 1.87786 70.3338 1.89752C70.2964 1.91719 70.2633 1.94408 70.2364 1.97662C70.2094 2.00916 70.1892 2.04672 70.1768 2.08713C70.1644 2.12754 70.1601 2.16998 70.1643 2.21204C70.1592 2.26596 70.1679 2.32031 70.1895 2.36996C70.2112 2.41962 70.2451 2.46296 70.2881 2.49594C70.331 2.52892 70.3817 2.55044 70.4352 2.5585C70.4888 2.56657 70.5435 2.56091 70.5943 2.54205L70.5743 2.50204ZM76.4143 2.24207C76.4984 2.24222 76.5795 2.21018 76.6408 2.15256C76.7022 2.09493 76.7392 2.01605 76.7443 1.93204C76.7456 1.88918 76.7383 1.8465 76.7229 1.80652C76.7074 1.76653 76.684 1.73006 76.6541 1.69928C76.6243 1.6685 76.5886 1.64402 76.5491 1.62732C76.5096 1.61062 76.4672 1.60203 76.4243 1.60205C75.7743 1.60205 75.1143 1.60205 74.4243 1.60205C74.3814 1.60203 74.339 1.61062 74.2995 1.62732C74.26 1.64402 74.2242 1.6685 74.1944 1.69928C74.1645 1.73006 74.1412 1.76653 74.1257 1.80652C74.1102 1.8465 74.1029 1.88918 74.1043 1.93204C74.1069 2.01516 74.1417 2.09402 74.2014 2.15189C74.2612 2.20975 74.3411 2.24211 74.4243 2.24207H76.3743H76.4143Z" fill="#999999"/>
<path d="M26.454 76.2125L23.6341 77.4325L12.3641 69.5725L9.36407 71.2325C6.95407 72.6725 4.61408 72.7725 3.49408 72.1325L3.26404 72.2425C1.52404 73.0025 0.494043 72.3225 0.144043 71.5025C-0.205957 70.6825 -0.00592995 69.5025 1.73407 68.7225L1.96405 68.6225C2.17405 67.6225 3.0841 65.9425 6.63409 64.9525L9.90405 63.9025L11.9041 50.3125L14.7241 49.0825L16.9141 61.6725L24.9741 58.9125L26.1941 55.6825L28.4341 54.8525L28.5941 57.8525L29.394 57.7825L30.1241 59.4525L29.524 60.0425L31.644 62.2425L29.5041 63.3125L26.3241 61.9925L18.7941 65.9925L26.454 76.2125ZM26.2441 61.2625L29.4441 62.5925L30.4441 62.0725L28.5041 60.0725L29.2341 59.3325L28.894 58.5425L27.894 58.6325L27.7441 55.8325L26.6541 56.2325L25.4341 59.4725L16.3141 62.5825L14.144 50.0725L12.454 50.8025L10.5041 64.4425L6.81409 65.6225C3.37409 66.5725 2.69406 68.1125 2.59406 68.9425V69.1525L2.39404 69.2225C2.26699 69.2587 2.14323 69.3055 2.02405 69.3625C0.954048 69.8225 0.474058 70.5525 0.784058 71.2525C1.09406 71.9525 1.94404 72.1125 3.01404 71.6425C3.13444 71.5939 3.25142 71.5371 3.36407 71.4725L3.55408 71.3625L3.73407 71.4925C4.46407 72.0325 6.59408 72.1325 9.05408 70.6725L12.4141 68.7925L23.7141 76.6825L25.4041 75.9525L17.7441 65.8125L26.2441 61.2625Z" fill="#999999"/>
</svg>
