<svg width="87" height="86" viewBox="0 0 87 86" fill="none" xmlns="http://www.w3.org/2000/svg">
<path d="M29.2885 27.7628C30.0013 25.7664 31.9599 26.7526 33.2733 27.7468L33.2527 33.9968C33.2526 34.379 33.2737 34.761 33.3156 35.1409C32.9235 35.0472 32.5366 34.9326 32.1567 34.7976C29.7462 33.9751 28.2749 30.6046 29.2885 27.7628ZM57.7689 27.7628C57.0561 25.7664 55.1169 26.7503 53.8036 27.7433L53.7429 33.9293C53.7416 34.3287 53.7191 34.7278 53.6754 35.1248C54.0892 35.041 54.498 34.9337 54.8996 34.8034C57.3113 33.9751 58.7825 30.6046 57.7689 27.7628Z" fill="#FFBBB7"/>
<path d="M55.6669 31.9141C56.3935 30.5065 56.226 28.9749 55.2928 28.4933C54.3596 28.0116 53.0142 28.7623 52.2877 30.1699C51.5611 31.5775 51.7286 33.109 52.6618 33.5907C53.595 34.0723 54.9404 33.3217 55.6669 31.9141Z" fill="#FFB2AD"/>
<path d="M34.3944 33.6174C35.3275 33.1357 35.495 31.6042 34.7685 30.1966C34.042 28.789 32.6965 28.0383 31.7634 28.52C30.8302 29.0016 30.6627 30.5331 31.3892 31.9408C32.1157 33.3484 33.4612 34.099 34.3944 33.6174Z" fill="#FFB2AD"/>
<path d="M60.2185 51.7195L52.6906 49.0481C51.5426 50.368 50.123 51.4242 48.5289 52.1445C46.9348 52.8647 45.2038 53.232 43.4546 53.2211C41.7054 53.2102 39.9791 52.8215 38.3941 52.0815C36.8091 51.3415 35.4027 50.2678 34.2712 48.9337L26.7569 51.6795C24.8617 52.3716 23.225 53.6297 22.0687 55.2832C20.9125 56.9368 20.2925 58.9058 20.293 60.9235V75.4143H66.7683V60.999C66.7697 58.965 66.1406 56.9805 64.9677 55.3187C63.7947 53.6569 62.1356 52.3995 60.2185 51.7195Z" fill="#DCFE83"/>
<path d="M31.4419 75.4143L32.141 48.928C32.1432 48.844 32.1264 48.7606 32.0917 48.6841C32.0569 48.6076 32.0053 48.5401 31.9406 48.4865C31.8759 48.4329 31.7998 48.3948 31.7182 48.3749C31.6365 48.3551 31.5515 48.3541 31.4694 48.372L28.4948 49.0172C28.0649 49.11 27.6808 49.3501 27.4092 49.6961C27.1376 50.0421 26.9955 50.4721 27.0075 50.9118L27.6757 75.4177L31.4419 75.4143ZM59.3594 75.4143L60.0275 50.9084C60.0396 50.4687 59.8975 50.0386 59.6259 49.6927C59.3543 49.3467 58.9702 49.1065 58.5403 49.0138L55.5657 48.3686C55.4836 48.3507 55.3985 48.3517 55.3169 48.3715C55.2353 48.3913 55.1592 48.4295 55.0945 48.483C55.0298 48.5366 54.9781 48.6042 54.9434 48.6807C54.9087 48.7572 54.8918 48.8406 54.8941 48.9246L55.5931 75.4143H59.3594Z" fill="#095763"/>
<path d="M43.5291 53.224C45.266 53.2245 46.9827 52.852 48.5632 52.1315C50.1436 51.4111 51.5508 50.3596 52.6896 49.0481C51.9758 48.7954 51.3578 48.3275 50.921 47.7089C50.4841 47.0903 50.2499 46.3515 50.2505 45.5942V40.7125C48.8729 42.1481 47.2052 43.2737 45.3585 44.0142C44.9173 44.1608 44.458 44.2455 43.9936 44.2659C43.222 44.3238 42.4463 44.2389 41.7055 44.0154C39.8577 43.2749 38.1892 42.1489 36.8111 40.7125V45.307C36.811 46.0993 36.5674 46.8725 36.1133 47.5218C35.6592 48.1711 35.0166 48.6651 34.2725 48.9371C35.4117 50.2808 36.8299 51.3603 38.4284 52.1006C40.0269 52.8408 41.7675 53.2242 43.5291 53.224Z" fill="#FFB09E"/>
<path d="M43.9935 44.2659C43.2218 44.3238 42.4462 44.2389 41.7053 44.0154C39.8576 43.2749 38.1891 42.1489 36.811 40.7125V43.0006C38.4249 44.7408 40.4113 46.0936 42.6217 46.9579C44.1661 47.4269 45.8149 47.4269 47.3593 46.9579C48.3877 46.593 49.3606 46.0875 50.2504 45.4558V40.7125C48.8728 42.1481 47.2051 43.2737 45.3583 44.0142C44.9172 44.1608 44.4579 44.2455 43.9935 44.2659Z" fill="#FFA691"/>
<path d="M53.7855 35.1306C53.5443 37.3625 52.5754 39.453 51.0283 41.0797C49.4739 42.857 47.5326 44.2542 45.3538 45.164C44.1625 45.5148 42.8954 45.5148 41.7042 45.164C39.5254 44.2542 37.5841 42.857 36.0296 41.0797C34.4827 39.4529 33.5138 37.3625 33.2724 35.1306C33.0356 33.9408 33.1775 27.7056 33.166 27.7056C31.6444 23.9416 30.5153 19.3882 32.9521 17.7294C32.9521 17.7294 32.6547 10.6476 43.7406 11.0137C48.6144 11.1739 51.0627 12.3522 53.0419 15.1666C53.9702 16.5926 54.5575 18.2134 54.758 19.9031C55.0628 22.5322 54.7494 25.1961 53.8427 27.6827L53.8542 27.717C54.0248 30.1862 54.0018 32.665 53.7855 35.1306Z" fill="#FFC6B7"/>
<path d="M53.8427 27.6827C54.7493 25.1961 55.0627 22.5322 54.758 19.9031C54.5574 18.2134 53.9702 16.5926 53.0419 15.1666C52.5041 14.3888 51.854 13.6948 51.113 13.1073C51.2274 13.2595 51.3544 13.3991 51.4688 13.5649C52.3971 14.9909 52.9843 16.6117 53.1849 18.3014C53.2285 20.9344 52.9246 23.5618 52.2811 26.1153C52.4517 28.5845 52.4287 31.0633 52.2124 33.5289C51.9711 35.7608 51.0023 37.8513 49.4552 39.478C47.9008 41.2553 45.9595 42.6525 43.7807 43.5623C42.5894 43.9131 41.3223 43.9131 40.1311 43.5623C38.4669 42.9127 36.9518 41.9323 35.6772 40.6804C35.7917 40.8154 35.9061 40.9527 36.0296 41.082C37.5841 42.8593 39.5253 44.2565 41.7042 45.1663C42.8954 45.5171 44.1625 45.5171 45.3537 45.1663C47.5326 44.2565 49.4739 42.8593 51.0283 41.082C52.5754 39.4553 53.5442 37.3648 53.7855 35.1329C54.0018 32.6673 54.0248 30.1885 53.8541 27.7193L53.8427 27.6827Z" fill="#FFB8A6"/>
<path d="M33.2039 27.7159L34.5264 25.1131C34.1157 19.823 35.9771 18.8837 37.9392 17.9879C39.9012 17.0921 43.5279 18.799 43.5279 18.799C43.5279 18.799 47.1546 17.0921 49.1167 17.9879C51.0788 18.8837 52.9413 19.8184 52.5294 25.1131L53.8371 27.6861C54.7437 25.1996 55.0571 22.5356 54.7524 19.9065C54.5525 18.2166 53.9652 16.5957 53.0363 15.1701C51.0662 12.3477 48.6145 11.1738 43.743 11.0148C32.6456 10.6487 32.9488 17.7282 32.9488 17.7282C30.5039 19.3951 31.6674 23.9725 33.205 27.7491L33.2039 27.7159Z" fill="#095763"/>
<path d="M16.3081 73.1261V56.5726L28.6297 61.1489L43.53 56.5726L58.4303 61.1489L70.7519 56.5726V73.1261C70.7519 73.733 70.5108 74.315 70.0817 74.7441C69.6526 75.1732 69.0706 75.4142 68.4637 75.4142H18.5962C17.9894 75.4142 17.4074 75.1732 16.9783 74.7441C16.5492 74.315 16.3081 73.733 16.3081 73.1261Z" fill="#DCFE83"/>
<path d="M66.5747 75.4142H68.4624C69.0693 75.4142 69.6513 75.1732 70.0804 74.7441C70.5095 74.315 70.7505 73.733 70.7505 73.1261V56.5726L66.5747 58.124V75.4142Z" fill="#DCFE83"/>
<path d="M43.4797 75.4142H58.4349V61.1466L58.4291 61.1489L43.53 56.5726L43.4797 56.5886V75.4142ZM28.5656 61.126L16.3081 56.5726V73.1261C16.3081 73.733 16.5492 74.315 16.9783 74.7441C17.4074 75.1732 17.9894 75.4142 18.5962 75.4142H28.5656V61.126Z" fill="#095763"/>
<path d="M73.9392 71.4936H70.65C69.5692 71.4936 68.5327 71.0642 67.7684 70.3C67.0042 69.5357 66.5748 68.4992 66.5748 67.4184C66.5748 66.3376 67.0042 65.3011 67.7684 64.5368C68.5327 63.7726 69.5692 63.3432 70.65 63.3432H73.9392C74.6874 66.0089 74.6874 68.8279 73.9392 71.4936ZM13.0612 71.4936H16.3504C17.4312 71.4936 18.4677 71.0642 19.2319 70.3C19.9962 69.5357 20.4255 68.4992 20.4255 67.4184C20.4255 66.3376 19.9962 65.3011 19.2319 64.5368C18.4677 63.7726 17.4312 63.3432 16.3504 63.3432H13.0612C12.3129 66.0089 12.3129 68.8279 13.0612 71.4936Z" fill="#FFCEBF"/>
<path d="M73.9392 63.3432H72.5126C72.607 64.1327 72.6395 64.9283 72.6098 65.7229C72.5696 66.6617 72.1679 67.5485 71.4888 68.1978C70.8096 68.8471 69.9056 69.2086 68.966 69.2066H68.7749C68.078 69.2023 67.3941 69.0174 66.79 68.67C67.0518 69.4884 67.5664 70.2028 68.2598 70.7103C68.9531 71.2179 69.7896 71.4925 70.6489 71.4947H73.9381C74.6868 68.8292 74.6871 66.009 73.9392 63.3432ZM13.0612 63.3432H14.4879C14.3934 64.1327 14.3609 64.9283 14.3906 65.7229C14.4308 66.6617 14.8325 67.5485 15.5117 68.1978C16.1909 68.8471 17.0949 69.2086 18.0345 69.2066H18.2255C18.9224 69.2023 19.6063 69.0174 20.2105 68.67C19.9487 69.4884 19.4341 70.2028 18.7407 70.7103C18.0473 71.2179 17.2108 71.4925 16.3516 71.4947H13.0612C12.3129 68.8291 12.3129 66.0089 13.0612 63.3432Z" fill="#FFB8A6"/>
<path d="M33.2035 27.717V27.7514C33.1921 27.7399 33.1921 27.717 33.1807 27.7056C33.1921 27.7056 33.1921 27.717 33.2035 27.717Z" fill="#FFBAA8"/>
<path d="M33.2035 27.717V27.7514C33.1921 27.7399 33.1921 27.717 33.1807 27.7056C33.1921 27.7056 33.1921 27.717 33.2035 27.717Z" fill="#FFBAA8"/>
<path d="M20.9062 40.4299V44.5806C20.9062 44.884 21.0268 45.175 21.2413 45.3895C21.4559 45.6041 21.7469 45.7246 22.0503 45.7246C22.3537 45.7246 22.6447 45.6041 22.8593 45.3895C23.0738 45.175 23.1944 44.884 23.1944 44.5806V40.4299C23.1944 40.1265 23.0738 39.8355 22.8593 39.6209C22.6447 39.4064 22.3537 39.2858 22.0503 39.2858C21.7469 39.2858 21.4559 39.4064 21.2413 39.6209C21.0268 39.8355 20.9062 40.1265 20.9062 40.4299Z" fill="#FFFDFA"/>
<path d="M22.0995 49.1671C22.7585 49.1671 23.2928 48.6328 23.2928 47.9738C23.2928 47.3148 22.7585 46.7805 22.0995 46.7805C21.4405 46.7805 20.9062 47.3148 20.9062 47.9738C20.9062 48.6328 21.4405 49.1671 22.0995 49.1671Z" fill="#FFFDFA"/>
<path d="M50.0798 72.6371C48.7935 71.4184 46.6006 68.969 46.5017 66.3603C46.4691 65.2472 46.9086 64.1667 47.7256 63.3515C48.5426 62.5363 49.6718 62.0515 50.87 62.0017C51.4717 61.9857 52.0706 62.0819 52.6315 62.2846C53.1924 62.4873 53.7038 62.7924 54.1355 63.1818C54.5672 63.5712 54.9103 64.037 55.1447 64.5517C55.3791 65.0664 55.4999 65.6195 55.5 66.1783C55.5 68.8593 53.2248 71.4022 51.9122 72.646C51.7923 72.7589 51.6493 72.8483 51.4916 72.9091C51.3339 72.9699 51.1647 73.0008 50.994 73C50.8233 72.9991 50.6544 72.9666 50.4974 72.9043C50.3404 72.8419 50.1985 72.7511 50.0798 72.6371Z" fill="#FCAD22"/>
<path d="M51 68C51.8284 68 52.5 67.3284 52.5 66.5C52.5 65.6715 51.8284 65 51 65C50.1716 65 49.5 65.6715 49.5 66.5C49.5 67.3284 50.1716 68 51 68Z" fill="white"/>
</svg>
